<svg width="217" height="225" viewBox="0 0 217 225" fill="none" xmlns="http://www.w3.org/2000/svg">
<path d="M25.19 27.6329C25.19 27.6329 2.35448 40.2507 0.468977 61.5939C-1.41652 82.9371 0.311851 171.612 46.0928 193.41C91.8738 215.208 152.493 210.197 175.695 207.814C198.897 205.432 211.755 189.7 214.63 178.869C217.506 168.038 222.146 127.666 197.739 114.683C173.333 101.699 147.7 81.7511 122.094 62.3411C96.488 42.931 52.5821 11.2375 25.19 27.6329Z" fill="#AA9DC6"/>
<g clip-path="url(#clip0_1_129)">
<path d="M154.432 114.013C133.512 85.8937 125.033 54.6587 125.033 54.6587V81.8099C125.033 81.8099 142.837 111.687 149.091 118.342C151.595 118.342 154.432 117.229 154.432 114.013Z" fill="#43268B"/>
<path d="M187.971 189.38L185.545 184.729L179.425 187.055L180.537 191.917C180.537 191.917 185.868 193.353 187.971 189.38Z" fill="#FDB487"/>
<path d="M180.493 191.917C180.493 191.917 180.905 201.487 182.985 203.668C185.066 205.849 189.428 213.827 196.339 216.109C203.249 218.39 208.579 213.56 200.689 205.448C196.054 200.418 191.802 195.047 187.971 189.38C187.971 189.38 186.791 192.051 180.493 191.917Z" fill="#444444"/>
<path d="M123.842 122.426C123.842 122.426 151.917 128.234 162.633 136.758C173.349 145.282 187.225 185.152 187.225 185.152C186.168 188.323 183.23 189.491 179.213 189.514C179.213 189.514 161.008 170.597 154.432 149.677C154.432 149.677 116.365 147.285 103.312 127.745C102.522 126.554 118.991 124.384 123.842 122.426Z" fill="#9584B8"/>
<path d="M112.147 8.70177C112.36 11.2198 111.566 13.7194 109.939 15.653C108.312 17.5866 105.985 18.7963 103.468 19.017C101.848 19.1603 100.218 18.8804 98.7386 18.2047C97.2589 17.5348 95.9752 16.4977 95.0093 15.1918C94.0434 13.886 93.4274 12.3549 93.22 10.744C93.0126 9.13303 93.2205 7.49581 93.8241 5.98788C94.4276 4.47996 95.4068 3.15141 96.6684 2.1285C97.9301 1.10559 99.4324 0.422298 101.032 0.143547C102.633 -0.135205 104.277 -0.000153106 105.811 0.535871C107.344 1.0719 108.715 1.99109 109.793 3.20609C110.87 4.4211 111.62 5.89155 111.969 7.47773C112.057 7.8812 112.116 8.29018 112.147 8.70177Z" fill="#594A62"/>
<path d="M112.147 8.70177C112.36 11.2198 111.566 13.7194 109.939 15.653C108.312 17.5866 105.985 18.7963 103.468 19.017C101.848 19.1603 100.218 18.8804 98.7386 18.2047C101.287 9.74775 108.998 7.88945 111.958 7.47773C112.049 7.88093 112.112 8.28991 112.147 8.70177V8.70177Z" fill="white"/>
<path d="M133.902 30.8902C133.902 30.8902 133.368 38.5014 131.365 42.7076C129.139 47.3478 127.67 48.1045 128.026 52.945C128.026 52.945 125.567 50.5637 125.979 48.0823C126.391 45.6008 130.43 39.1802 129.54 36.1312C128.65 33.0823 132.622 29.6995 133.902 30.8902Z" fill="#594A62"/>
<path d="M107.518 42.7299H123.097C125.636 42.7322 128.09 41.8149 130.004 40.1476C131.919 38.4804 133.165 36.176 133.512 33.6609C133.779 31.7173 134.02 29.6921 134.236 27.5853C134.341 24.5307 133.989 21.4775 133.19 18.5274C131.621 13.4199 126.88 8.61275 116.209 8.23441C103.624 7.77818 96.7022 18.8167 97.0138 32.3145V32.4369C97.072 35.1851 98.204 37.8013 100.167 39.7252C102.131 41.649 104.769 42.7276 107.518 42.7299V42.7299Z" fill="#594A62"/>
<path d="M116.954 46.9806L116.398 50.0963L115.775 53.6127L115.241 56.6505C114.36 57.0744 113.398 57.3038 112.421 57.323C111.444 57.3422 110.474 57.1508 109.577 56.7618C108.03 56.1829 106.579 55.3765 105.27 54.3693V54.1245L105.359 53.0118L105.994 45.2225L106.127 43.5867C107.095 43.0971 108.62 43.4532 110.233 44.0652C111.847 44.6772 113.505 45.5229 114.818 46.0682C116.131 46.6134 116.954 46.9806 116.954 46.9806Z" fill="#FDB487"/>
<path d="M116.954 46.9917L115.775 53.6127C111.391 52.0325 108.364 45.3226 108.364 45.3226L114.84 46.057C116.098 46.5689 116.954 46.9917 116.954 46.9917Z" fill="#F48568"/>
<path d="M124.054 49.8404C121.57 50.5834 118.937 50.6716 116.409 50.0963C114.15 49.5973 111.974 48.7805 109.944 47.6705C108.582 46.9341 107.27 46.1089 106.016 45.2002C105.148 44.5771 104.436 44.0096 103.935 43.5867C103.434 43.1639 103.101 42.8412 103.101 42.8412C103.101 42.8412 103 41.172 103.034 38.7462C103.05 35.6711 103.332 32.6032 103.88 29.5771C104.647 25.7826 106.038 22.3553 108.564 21.1869H112.704L132.277 21.3761C132.277 21.3761 132.277 21.6654 132.277 22.1995C132.344 23.3123 132.433 25.6157 132.366 28.3865C132.366 28.5979 132.366 28.8093 132.366 29.0207C132.155 36.7544 130.619 47.7818 124.054 49.8404Z" fill="#FDB487"/>
<path d="M107.162 31.9806C107.162 31.9806 104.759 27.997 102.021 30.1891C99.0056 32.5927 100.363 41.0719 106.372 41.0274L107.162 31.9806Z" fill="#FDB487"/>
<path d="M132.333 22.2329C132.333 24.7588 127.882 27.2848 111.669 27.4295C111.669 27.4295 111.669 34.8849 108.475 34.2062C107.719 34.0504 106.973 29.7551 103.88 29.5326C103.023 22.4666 106.105 22.333 108.564 21.1869L132.32 21.1424C132.32 21.1424 132.311 21.6988 132.333 22.2329Z" fill="#594A62"/>
<path d="M111.669 27.4295C111.669 27.4295 112.459 34.807 110.011 38.7685C107.563 42.7299 105.337 44.221 106.673 49.0058C106.673 49.0058 104.213 46.6245 104.614 44.1431C105.015 41.6616 109.132 35.241 108.175 32.1809C107.218 29.1208 110.389 26.2499 111.669 27.4295Z" fill="#594A62"/>
<path d="M173.694 197.503L171.268 192.841L165.148 195.167L166.261 200.029C166.261 200.029 171.591 201.465 173.694 197.503Z" fill="#FDB487"/>
<path d="M166.038 199.517C166.038 199.517 166.494 209.087 168.575 211.268C170.656 213.449 175.074 221.383 181.928 223.631C188.783 225.879 194.169 221.027 186.224 212.948C181.582 207.941 177.323 202.592 173.482 196.947C173.482 196.947 172.325 199.584 166.038 199.517Z" fill="#444444"/>
<path d="M96.3016 124.173C96.3016 124.173 139.855 133.164 150.393 141.91C160.931 150.656 172.893 193.486 172.893 193.486C171.78 196.635 168.809 197.748 164.792 197.681C164.792 197.681 149.458 174.091 142.392 154.773C142.392 154.773 112.548 152.303 98.8499 146.984C90.3484 143.646 86.0086 129.859 96.3016 124.173Z" fill="#9584B8"/>
<path d="M124.154 99.9145C123.598 109.484 125.367 115.037 128.104 123.282C111.936 129.013 104.536 131.227 91.1496 129.058C90.6822 121.19 89.358 107.503 89.5917 99.258C89.8493 85.7724 91.0054 72.3191 93.0524 58.9873L99.7289 56.3834L106.628 53.7128L118.334 54.3137L120.793 54.4361L124.977 54.6587C125.419 62.2078 126.844 69.667 129.217 76.847C132.233 85.1816 128.772 86.8619 126.891 88.8314L126.669 89.0651C126.409 89.3616 126.195 89.6955 126.035 90.0555C125.978 90.1666 125.929 90.2819 125.89 90.4004C125.779 90.712 125.667 91.0681 125.556 91.4464C124.901 94.2348 124.433 97.0638 124.154 99.9145V99.9145Z" fill="#43268B"/>
<path d="M126.947 88.8314L126.724 89.0651C126.465 89.3616 126.251 89.6955 126.09 90.0555C126.033 90.1666 125.985 90.282 125.945 90.4004C120.407 92.7016 114.461 93.8598 108.464 93.8055H107.351C107.286 93.8071 107.22 93.7951 107.159 93.7704C107.099 93.7456 107.043 93.7086 106.998 93.6616C106.952 93.6147 106.916 93.5587 106.892 93.4973C106.869 93.4359 106.859 93.3703 106.862 93.3047C106.865 93.1757 106.917 93.0529 107.008 92.9617C107.099 92.8704 107.222 92.8179 107.351 92.8151V92.8151C114.106 93.049 120.82 91.6841 126.947 88.8314V88.8314Z" fill="#E1D5EB"/>
<path d="M118.39 54.3137C117.934 58.7647 118 66.1312 112.437 66.2758C105.76 66.4427 101.309 59.2098 99.7846 56.3834L106.684 53.7239L118.39 54.3137Z" fill="#FDB487"/>
<path d="M142.014 117.351C133.434 112.567 115.085 101.884 115.085 101.884C115.085 101.884 104.836 89.1653 93.0524 58.9873C93.0524 58.9873 87.088 64.3063 90.5709 80.3967C94.0539 96.4872 108.92 111.343 108.92 111.343C108.92 111.343 128.95 121.357 137.852 121.98L142.014 117.351Z" fill="#43268B"/>
<path d="M177.333 134.977L116.131 135.322C115.393 135.289 114.677 135.067 114.049 134.677C113.422 134.287 112.905 133.743 112.548 133.097V133.097C112.386 132.86 112.295 132.582 112.289 132.295C112.282 132.008 112.358 131.725 112.509 131.481C112.66 131.237 112.879 131.042 113.139 130.92C113.398 130.798 113.688 130.754 113.972 130.794L175.118 130.46C175.869 130.49 176.599 130.718 177.234 131.12C177.869 131.523 178.387 132.086 178.735 132.752C178.873 132.986 178.943 133.254 178.939 133.525C178.935 133.797 178.856 134.062 178.712 134.292C178.567 134.522 178.362 134.707 178.118 134.828C177.875 134.949 177.603 135.001 177.333 134.977Z" fill="white"/>
<path d="M179.825 135L125.623 135.3L131.053 100.148L185.233 100.015L179.825 135Z" fill="white"/>
<path d="M152.396 118.286C152.459 118.945 152.717 119.57 153.136 120.082C153.555 120.594 154.117 120.97 154.75 121.162C155.383 121.354 156.059 121.353 156.692 121.16C157.325 120.968 157.886 120.591 158.305 120.078C158.723 119.566 158.98 118.941 159.042 118.282C159.105 117.623 158.97 116.961 158.655 116.379C158.34 115.797 157.86 115.322 157.274 115.013C156.689 114.705 156.025 114.578 155.367 114.647C154.492 114.74 153.689 115.174 153.133 115.856C152.577 116.537 152.312 117.411 152.396 118.286V118.286Z" fill="#6A328C"/>
<path d="M176.465 135.011L176.454 135.022L122.251 135.322L127.637 100.326L131.009 100.315L125.623 135.3L176.465 135.011Z" fill="white"/>
<path d="M128.426 41.172C128.426 41.172 127.091 44.3245 121.75 41.5223C121.75 41.5223 122.526 44.8983 125.251 44.4733C127.976 44.0483 128.426 41.172 128.426 41.172Z" fill="#1A4850"/>
<path d="M116.377 29.9041C116.466 29.9726 116.575 30.0097 116.687 30.0097C116.799 30.0097 116.908 29.9726 116.996 29.9041C118.166 29.0782 119.599 28.7126 121.022 28.8775C121.156 28.8962 121.293 28.8607 121.401 28.779C121.509 28.6972 121.58 28.5759 121.599 28.4416C121.618 28.3073 121.582 28.1711 121.5 28.063C121.418 27.9549 121.297 27.8837 121.163 27.865C119.451 27.6657 117.728 28.1176 116.335 29.1307C116.288 29.1777 116.25 29.2336 116.225 29.2951C116.199 29.3567 116.186 29.4227 116.186 29.4893C116.186 29.5559 116.199 29.6219 116.225 29.6834C116.25 29.745 116.288 29.8009 116.335 29.8479L116.377 29.9041Z" fill="#0E3944"/>
<path d="M126.411 27.6556C126.479 27.7449 126.574 27.8093 126.682 27.8388C126.79 27.8682 126.905 27.861 127.008 27.8183C128.354 27.3288 129.833 27.3528 131.162 27.8858C131.287 27.9392 131.428 27.9408 131.554 27.8903C131.68 27.8399 131.78 27.7416 131.834 27.6169C131.887 27.4923 131.888 27.3515 131.838 27.2257C131.787 27.0999 131.689 26.9992 131.564 26.9459C129.965 26.3039 128.184 26.2868 126.573 26.8982C126.515 26.9312 126.465 26.9752 126.424 27.0279C126.383 27.0805 126.353 27.1408 126.335 27.205C126.318 27.2693 126.313 27.3365 126.322 27.4026C126.33 27.4686 126.352 27.5324 126.385 27.5902L126.411 27.6556Z" fill="#0E3944"/>
<path d="M118.984 33.7802C119.082 35.0459 119.716 36.0162 120.391 35.96C121.067 35.9037 121.588 34.849 121.489 33.5974C121.391 32.3458 120.743 31.3614 120.082 31.4036C119.42 31.4457 118.885 32.5286 118.984 33.7802Z" fill="#1A4850"/>
<path d="M127.264 32.6883C127.363 33.9399 127.996 34.9243 128.672 34.8681C129.347 34.8118 129.868 33.7571 129.77 32.4914C129.671 31.2258 129.024 30.2554 128.362 30.3117C127.701 30.3679 127.166 31.4226 127.264 32.6883Z" fill="#1A4850"/>
<path d="M122.351 32.8942C122.351 32.8942 121.182 29.8707 119.986 30.1801C118.79 30.4895 118.058 33.2318 118.058 33.2318L116.186 32.4161L118.002 32.5145C118.002 32.5145 118.734 29.7019 119.93 29.5754C121.647 29.4347 122.351 32.8942 122.351 32.8942Z" fill="#1A4850"/>
<path d="M126.201 32.59C126.201 32.59 126.89 29.4258 128.129 29.5524C129.368 29.679 130.479 32.2666 130.479 32.2666L132.211 31.1696L130.437 31.5493C130.437 31.5493 129.283 28.8493 128.073 28.9336C126.356 29.0039 126.201 32.59 126.201 32.59Z" fill="#1A4850"/>
</g>
<defs>
<clipPath id="clip0_1_129">
<rect width="115.048" height="224.154" fill="white" transform="matrix(-1 0 0 1 204.528 0)"/>
</clipPath>
</defs>
</svg>
