<svg width="139" height="262" viewBox="0 0 139 262" fill="none" xmlns="http://www.w3.org/2000/svg">
<path d="M14.4708 37.4686C14.4708 37.4686 12.2579 30.0063 10.5982 28.0617C8.93848 26.1172 5.59932 26.7489 3.68276 25.4065C1.7662 24.064 2.19096 27.0648 4.74966 27.6669C4.74966 27.6669 2.1317 27.1536 2.23049 29.7299C2.32928 32.3062 10.6081 38.6728 10.6081 38.6728L14.4708 37.4686Z" fill="#EF6E4B"/>
<path d="M79.6054 0.0482834C96.074 -0.770994 99.3637 13.364 97.6151 29.947C95.8665 46.5299 99.6601 67.6535 101.942 75.8561C103.268 80.9757 102.922 86.3848 100.954 91.294C100.954 91.294 102.989 85.1544 99.4329 75.8561C99.4329 75.8561 105.113 94.7686 89.8402 98.2826C74.567 101.797 71.1784 96.3775 66.7032 70.0027C62.2279 43.6279 55.7571 1.25252 79.6054 0.0482834Z" fill="#BF00FF"/>
<path d="M79.6054 0.0482834C96.074 -0.770994 99.3637 13.364 97.6151 29.947C95.8665 46.5299 99.6601 67.6535 101.942 75.8561C103.268 80.9757 102.922 86.3848 100.954 91.294C100.954 91.294 102.989 85.1544 99.4329 75.8561C99.4329 75.8561 105.113 94.7686 89.8402 98.2826C74.567 101.797 71.1784 96.3775 66.7032 70.0027C62.2279 43.6279 55.7571 1.25252 79.6054 0.0482834Z" fill="#594A62"/>
<path d="M100.195 138.299C100.195 138.299 60.9252 136.71 45.5038 112.635C45.5038 112.635 57.6552 89.2311 57.1415 70.4667C56.6278 51.7023 95.4924 68.0977 95.4924 68.0977C95.4924 68.0977 93.4968 83.0816 100.195 138.299Z" fill="#43268B"/>
<path d="M122.729 62.4516C125.455 61.8692 132.302 70.1706 132.43 75.718L123.292 80.6534L122.729 62.4516Z" fill="#C13A54"/>
<path d="M103.751 47.6358C105.826 48.7216 125.762 92.3308 125.762 92.3308C125.762 92.3308 125.13 101.086 120.823 102.073C116.515 103.06 99.6317 85.2929 99.6317 85.2929C99.6317 85.2929 95.3441 43.3025 103.751 47.6358Z" fill="#43268B"/>
<path d="M126.817 89.4189C129.228 82.5093 130.008 63.1231 128.24 54.3775L123.903 54.7823C123.903 54.7823 121.048 75.8466 118.113 82.2922C115.179 88.7378 115.693 93.9693 119.823 96.5654C123.952 99.1614 126.293 90.8798 126.817 89.4189Z" fill="#FF8B66"/>
<path d="M107.415 242.416L100.608 244.016C100.608 244.016 89.9287 186.824 87.4688 180.783C85.3547 175.571 76.335 155.632 73.3416 140.313C72.5478 140.289 71.7591 140.177 70.9904 139.977L70.0025 139.76L69.0146 139.553C68.7577 154.813 65.4383 173.637 64.4207 178.918C63.1957 185.314 63.8576 243.522 63.8576 243.522L56.8434 243.295C43.5362 196.162 50.5603 178.454 50.5603 178.454C50.5603 178.454 38.3595 136.009 42.6569 121.065C43.9863 116.512 45.6369 112.059 47.5965 107.739C47.7348 107.433 47.8632 107.127 48.0213 106.831C49.7912 102.863 51.8482 99.03 54.176 95.3612L68.4317 97.1478L68.57 96.9109L68.9849 96.9899V101.461L70.7928 101.372H71.1978L77.1253 101.057H77.9354L83.1121 100.78C83.1121 100.78 86.224 105.716 90.6499 113.612C90.808 113.918 90.9858 114.224 91.1439 114.53C92.7146 117.383 94.4435 120.581 96.2514 124.066C103.404 137.885 100.964 177.644 100.964 177.644C100.964 177.644 111.297 193.605 107.415 242.416Z" fill="#9584B8"/>
<path d="M58.8695 96.9996C58.8695 97.1082 55.145 105.883 47.5479 107.739C47.6863 107.433 47.8147 107.127 47.9727 106.831C54.7894 104.709 58.1187 96.8121 58.1582 96.7133L58.8695 96.9996Z" fill="#43268B"/>
<path d="M91.1434 114.51C82.6275 112.684 78.3004 103.781 77.1248 101.027C76.9174 100.533 76.8186 100.237 76.8087 100.218L77.5299 99.9609C77.5299 99.9609 77.6682 100.366 77.9349 100.948C79.1501 103.771 83.1412 111.569 90.6494 113.553C90.8075 113.898 90.9853 114.204 91.1434 114.51Z" fill="#43268B"/>
<path d="M70.972 139.977L69.9841 139.76C67.524 134.899 65.7297 129.73 64.6493 124.391C61.9918 112.605 68.0379 100.04 68.0972 99.9215L68.7887 100.257C68.7294 100.376 62.792 112.704 65.3903 124.223C65.4989 124.717 65.6175 125.211 65.7262 125.645L65.904 126.385C66.9807 131.121 68.685 135.692 70.972 139.977Z" fill="#43268B"/>
<path d="M65.4878 126.424H65.3792V125.664C65.622 125.658 65.8602 125.598 66.0771 125.489C66.294 125.379 66.4841 125.224 66.6338 125.033C67.1376 124.46 68.2145 122.634 67.3451 118.123C66.1794 112.122 70.625 101.599 70.8127 101.155L71.5141 101.461C71.5141 101.56 66.9697 112.21 68.096 117.985C68.995 122.614 67.928 124.677 67.2068 125.497C67.0018 125.763 66.7427 125.984 66.4465 126.144C66.1503 126.304 65.8236 126.399 65.4878 126.424Z" fill="#43268B"/>
<path d="M83.1121 100.711C78.2055 102.136 73.0333 102.394 68.009 101.465C62.9846 100.536 58.2475 98.4455 54.176 95.3608C54.176 95.3608 51.5679 41.7722 56.5273 38.1792C58.7007 36.6098 62.9882 37.8733 67.1177 39.7882C70.7404 41.5307 74.2247 43.5469 77.5403 45.8193C77.5403 45.8193 86.7872 44.5163 94.078 45.3158C98.7212 45.8094 102.554 47.1715 102.732 50.2512C103.187 58.1676 83.1121 100.711 83.1121 100.711Z" fill="#FF8B66"/>
<path d="M94.4727 45.4346C91.3509 45.1088 90.7681 47.4778 87.6463 48.613C84.9503 49.6017 82.1644 50.3256 79.328 50.7747C77.9054 50.903 77.1546 52.6699 77.1546 52.6699C77.1546 52.6699 76.6507 50.2811 75.8801 50.0837C75.1096 49.8863 68.5004 43.1742 67.1173 39.7885C70.74 41.531 74.2243 43.5472 77.5399 45.8195C77.5399 45.8195 86.7868 44.5166 94.0776 45.3161L94.4727 45.4346Z" fill="#EF6E4B"/>
<path d="M53.6531 249.237C54.0779 246.276 53.0012 244.242 53.7618 242.841C54.9473 240.669 56.1921 243.413 56.1921 243.413C56.2909 240.106 61.843 240.106 62.3962 241.626C62.5374 242.008 62.7023 242.381 62.8902 242.742C63.236 241.942 63.8189 241.172 64.5796 241.626C67.5433 243.403 63.8584 247.983 66.5554 251.32C69.9933 255.574 67.8792 262 67.8792 262H51.4205C49.4941 252.988 53.1888 252.139 53.6531 249.237Z" fill="#444444"/>
<path d="M63.8191 248.151C63.8191 248.151 59.9267 246.108 54.7698 248.813L55.7577 246.947C56.9058 246.318 58.1767 245.944 59.483 245.852C60.7893 245.76 62.1001 245.952 63.3252 246.414L63.8191 248.151Z" fill="#ADBEC4"/>
<path d="M64.4989 251.241C60.9602 250.157 57.1435 250.435 53.7997 252.021L54.7877 250.047C54.7877 250.047 59.7273 247.924 63.837 249.513L64.4989 251.241Z" fill="#ADBEC4"/>
<path d="M111.686 247.444C111.251 244.482 112.328 242.449 111.567 241.047C110.392 238.876 109.147 241.62 109.147 241.62C109.048 238.313 103.496 238.313 102.943 239.833C102.785 240.238 102.617 240.603 102.449 240.949C102.103 240.149 101.52 239.379 100.759 239.833C97.7956 241.61 101.481 246.19 98.7836 249.526C95.3555 253.781 97.4696 260.207 97.4696 260.207H113.928C115.796 251.195 112.061 250.346 111.686 247.444Z" fill="#444444"/>
<path d="M100.274 248.151C100.274 248.151 104.166 246.108 109.323 248.813L108.335 246.947C107.188 246.318 105.919 245.945 104.615 245.853C103.31 245.761 102.001 245.953 100.777 246.414L100.274 248.151Z" fill="#ADBEC4"/>
<path d="M99.6218 251.241C103.16 250.157 106.977 250.435 110.321 252.021L109.333 250.047C109.333 250.047 104.393 247.924 100.284 249.513L99.6218 251.241Z" fill="#ADBEC4"/>
<path d="M76.3455 28.1012C76.3455 28.1012 77.531 42.404 73.5497 44.4473C73.5497 44.4473 76.5134 49.8762 84.4168 46.5695C84.4168 46.5695 83.0831 39.2158 88.2993 30.4801C91.7669 24.6267 76.3455 28.1012 76.3455 28.1012Z" fill="#EF6E4B"/>
<path d="M95.4921 55.3053C89.1377 56.9756 82.487 57.1848 76.04 55.9173C65.173 53.8246 60.3124 47.7344 60.3124 47.7344C60.3124 47.7344 46.3828 38.3669 54.1774 95.361C54.1774 95.361 64.0566 107.117 83.1135 100.711C83.1135 100.711 106.754 66.3507 95.4921 55.3053Z" fill="#E1D5EB"/>
<path d="M91.7175 21.1522C91.7175 21.1522 94.6812 17.7172 95.3629 21.4188C96.1433 25.7224 92.3398 27.7657 91.4705 26.443C90.6011 25.1203 91.7175 21.1522 91.7175 21.1522Z" fill="#FF8B66"/>
<path d="M69.3 23.0869C69.3 23.0869 65.8522 20.1256 65.7336 23.9062C65.6151 28.2691 69.6853 29.7201 70.3472 28.2789C71.0091 26.8378 69.3 23.0869 69.3 23.0869Z" fill="#FF8B66"/>
<path d="M82.047 37.6761C89.1699 37.1332 92.8251 32.178 91.768 18.2503C91.2148 11.0644 87.2236 6.93838 79.2512 7.5405C71.2787 8.14262 68.2556 12.8115 68.8089 19.9975C69.9845 34.9616 74.6969 38.2288 82.047 37.6761Z" fill="#FF8B66"/>
<path d="M73.9348 15.9703C73.9971 16.0183 74.0735 16.0443 74.1521 16.0443C74.2308 16.0443 74.3072 16.0183 74.3695 15.9703C75.1903 15.3905 76.1964 15.1339 77.1949 15.2497C77.2893 15.2628 77.3849 15.2379 77.4609 15.1805C77.5369 15.1231 77.5869 15.0379 77.6 14.9437C77.6131 14.8494 77.5882 14.7539 77.5307 14.678C77.4733 14.6021 77.3881 14.5521 77.2938 14.539C76.0926 14.3991 74.8828 14.7163 73.9052 15.4274C73.872 15.4604 73.8457 15.4996 73.8278 15.5428C73.8098 15.586 73.8006 15.6323 73.8006 15.6791C73.8006 15.7258 73.8098 15.7721 73.8278 15.8153C73.8457 15.8585 73.872 15.8978 73.9052 15.9308L73.9348 15.9703Z" fill="#0E3944"/>
<path d="M84.3781 15.3879C84.4392 15.4075 84.5048 15.4075 84.5658 15.3879C85.5679 15.2981 86.5685 15.5752 87.3814 16.1677C87.4137 16.202 87.4527 16.2294 87.4961 16.2481C87.5394 16.2669 87.5861 16.2765 87.6333 16.2765C87.6805 16.2765 87.7272 16.2669 87.7705 16.2481C87.8139 16.2294 87.8529 16.202 87.8852 16.1677C87.9184 16.1346 87.9447 16.0954 87.9626 16.0522C87.9806 16.009 87.9898 15.9627 87.9898 15.916C87.9898 15.8692 87.9806 15.8229 87.9626 15.7797C87.9447 15.7365 87.9184 15.6973 87.8852 15.6643C86.9296 14.9176 85.7243 14.5645 84.5165 14.6772C84.423 14.6895 84.3379 14.7375 84.2789 14.8111C84.22 14.8847 84.1919 14.9781 84.2003 15.072C84.2008 15.1354 84.2174 15.1976 84.2485 15.2528C84.2796 15.308 84.3242 15.3545 84.3781 15.3879V15.3879Z" fill="#0E3944"/>
<path d="M75.1492 21.0336C75.2183 21.922 75.6629 22.6031 76.1371 22.5636C76.6113 22.5241 76.9769 21.7838 76.9077 20.9053C76.8385 20.0268 76.3841 19.3359 75.9198 19.3655C75.4555 19.3951 75.08 20.1551 75.1492 21.0336Z" fill="#1A4850"/>
<path d="M85.1863 20.2246C85.2555 21.1031 85.7 21.7941 86.1742 21.7546C86.6484 21.7151 87.0139 20.9748 86.9448 20.0864C86.8756 19.198 86.4212 18.5169 85.9569 18.5564C85.4925 18.5959 85.1172 19.3362 85.1863 20.2246Z" fill="#1A4850"/>
<path d="M84.4075 27.3414C84.4075 27.3414 80.0212 28.3285 77.6502 27.2822C77.6502 27.2822 79.1123 32.2176 81.5031 31.7438C83.8938 31.27 84.4075 27.3414 84.4075 27.3414Z" fill="#1A4850"/>
<path d="M77.5126 20.4118C77.5126 20.4118 76.6926 18.2895 75.8529 18.5067C75.0132 18.7239 74.4995 20.6487 74.4995 20.6487L73.1855 20.0762L74.46 20.1452C74.46 20.1452 74.9737 18.1711 75.8134 18.0823C77.0187 17.9835 77.5126 20.4118 77.5126 20.4118Z" fill="#1A4850"/>
<path d="M84.4375 20.1552C84.4375 20.1552 84.9216 17.9343 85.791 18.0231C86.6603 18.1119 87.4408 19.9282 87.4408 19.9282L88.656 19.1582L87.4112 19.4247C87.4112 19.4247 86.6011 17.5295 85.7515 17.5888C84.5462 17.6381 84.4375 20.1552 84.4375 20.1552Z" fill="#1A4850"/>
<path d="M77.5125 7.76734C77.5125 7.76734 84.0427 17.6381 92.4202 19.7209C93.1618 17.6538 93.3256 15.4239 92.8939 13.2709C92.4622 11.1178 91.4514 9.12296 89.9702 7.50082C84.8034 1.67705 75.349 5.4773 75.349 5.4773C75.349 5.4773 76.7815 16.049 92.2523 20.6685C92.2523 20.6487 79.1229 15.1507 77.5125 7.76734Z" fill="#BF00FF"/>
<path d="M77.5125 7.76734C77.5125 7.76734 84.0427 17.6381 92.4202 19.7209C93.1618 17.6538 93.3256 15.4239 92.8939 13.2709C92.4622 11.1178 91.4514 9.12296 89.9702 7.50082C84.8034 1.67705 75.349 5.4773 75.349 5.4773C75.349 5.4773 76.7815 16.049 92.2523 20.6685C92.2523 20.6487 79.1229 15.1507 77.5125 7.76734Z" fill="#594A62"/>
<path d="M76.6806 7.86597C74.2503 8.70499 71.3557 12.8507 70.9309 17.3123C70.5061 21.7739 69.0933 22.9288 69.0933 22.9288C68.0053 21.9521 67.184 20.7147 66.707 19.3331C66.23 17.9516 66.1129 16.4714 66.3667 15.0322C67.078 9.75129 75.0308 6.06948 76.3052 6.14845C77.5796 6.22741 76.6806 7.86597 76.6806 7.86597Z" fill="#594A62"/>
<path d="M122.727 62.4516C122.727 62.4516 126.343 75.5008 132.428 75.718C132.428 75.718 129.761 101.116 120.247 102.093C120.247 102.093 114.32 91.6495 116.296 82.2722C118.271 72.895 119.655 73.9215 119.655 73.9215L122.727 62.4516Z" fill="#43268B"/>
<path d="M16.635 44.9409C13.859 44.7237 8.18836 53.874 8.80087 59.3819L18.5121 63.0144L16.635 44.9409Z" fill="#C13A54"/>
<path d="M54.6097 35.998C52.3178 36.4718 21.1984 72.974 21.1984 72.974C21.1984 72.974 19.4103 81.5715 23.2928 83.6938C27.1753 85.816 53.4934 69.7463 53.4934 69.7463C53.4934 69.7463 63.8962 34.0831 54.6097 35.998Z" fill="#43268B"/>
<path d="M16.2404 72.204C12.9112 65.6399 9.53254 46.5399 10.1154 37.6562L14.4721 37.4785C14.4721 37.4785 20.1328 57.9604 23.8968 63.952C27.6608 69.9436 27.8485 75.2047 24.134 78.3239C20.4194 81.4431 16.9419 73.5859 16.2404 72.204Z" fill="#EF6E4B"/>
<path d="M16.635 44.9409C16.635 44.9409 14.8074 58.3455 8.80087 59.3819C8.80087 59.3819 14.8667 84.1873 24.4198 83.8813C24.4198 83.8813 28.9149 72.7371 25.714 63.7054C22.5131 54.6736 21.2585 55.8778 21.2585 55.8778L16.635 44.9409Z" fill="#43268B"/>
<path d="M54.7295 36.7384C57.2981 33.0862 66.2684 39.4134 66.2684 39.4134C66.2684 39.4134 61.4276 92.923 45.5221 112.625C45.5221 112.625 50.5507 99.0232 51.8251 91.0772C53.0995 83.1312 46.9448 47.774 54.7295 36.7384Z" fill="#43268B"/>
<path d="M91.944 44.2895C91.944 44.2895 92.0428 99.5661 94.473 110.888C96.9033 122.21 100.223 140.007 100.223 140.007C100.223 140.007 99.9461 119.347 97.5751 105.143C95.2041 90.939 106.536 61.7115 103.75 47.6653C103.75 47.6357 96.8045 44.4277 91.944 44.2895Z" fill="#43268B"/>
<path d="M4.06944 26.8577C3.17043 26.4036 0.987124 26.6899 0.226428 26.8577C-0.534268 27.0255 0.582078 30.5691 4.1781 32.6617C4.44143 32.3822 4.64334 32.0508 4.77094 31.6887C4.89854 31.3266 4.949 30.9419 4.91903 30.5592C4.75109 29.3846 3.93112 29.4537 3.93112 29.4537C4.61853 29.4057 5.30842 29.4057 5.99583 29.4537C6.73677 29.5425 7.03314 29.1378 5.99583 28.6443C5.99583 28.6443 6.55898 28.4567 5.66986 27.9435C5.62046 27.9435 5.76866 27.6868 4.06944 26.8577Z" fill="#EF6E4B"/>
<path d="M123.696 55.1473C123.696 55.1473 125.909 47.6948 127.568 45.7503C129.228 43.8057 132.557 44.4375 134.484 43.095C136.41 41.7526 135.975 44.7533 133.417 45.3555C133.417 45.3555 136.035 44.8422 135.936 47.4185C135.837 49.9947 127.558 56.3614 127.558 56.3614L123.696 55.1473Z" fill="#EF6E4B"/>
<path d="M134.405 44.487C135.274 44.0625 137.369 44.3291 138.08 44.487C138.791 44.6449 137.754 48.0405 134.316 50.0442C134.071 49.7802 133.882 49.469 133.762 49.1295C133.641 48.79 133.591 48.4295 133.615 48.0701C133.773 46.935 134.603 47.004 134.603 47.004C133.945 46.956 133.285 46.956 132.627 47.004C131.916 47.0929 131.639 46.6981 132.627 46.2341C132.627 46.2341 132.083 46.0466 132.933 45.553C132.923 45.5234 132.805 45.2767 134.405 44.487Z" fill="#EF6E4B"/>
</svg>
