<svg width="339" height="299" viewBox="0 0 339 299" fill="none" xmlns="http://www.w3.org/2000/svg">
<rect x="105.535" y="0.5" width="232" height="216" rx="3.5" fill="#E8E1ED" stroke="#444444"/>
<rect x="115.535" y="14.5" width="209" height="19" rx="3.5" fill="#E8E1ED" stroke="#444444"/>
<rect x="115.535" y="95.5" width="209" height="19" rx="3.5" fill="#E8E1ED" stroke="#444444"/>
<rect x="115.535" y="43.5" width="58" height="12" rx="3.5" fill="#E8E1ED" stroke="#444444"/>
<rect x="115.535" y="126.5" width="209" height="19" rx="3.5" fill="#E8E1ED" stroke="#444444"/>
<rect x="115.535" y="153.5" width="209" height="19" rx="3.5" fill="#E8E1ED" stroke="#444444"/>
<rect x="309.535" y="189.5" width="13" height="13" rx="6.5" fill="#E8E1ED" stroke="#444444"/>
<rect x="276.535" y="189.5" width="13" height="13" rx="6.5" fill="#E8E1ED" stroke="#444444"/>
<rect x="162.535" y="45.5" width="9" height="9" rx="4.5" fill="#E8E1ED" stroke="#444444"/>
<path d="M37.8385 283.211C31.3565 283.593 27.9354 285.919 27.0352 287.033V297.545C27.0352 299.934 38.8513 298.978 43.9153 297.545C48.9794 296.112 49.6546 294.794 52.693 292.882C55.1238 291.353 53.7058 285.6 52.693 283.211C50.4423 283.052 44.3205 282.829 37.8385 283.211Z" fill="#444444"/>
<path d="M8.67605 176.21C8.39605 180.4 8.35607 180.94 8.35607 180.94C8.35607 180.94 7.10605 180.53 6.92605 177.66V177.71L6.60607 178.87C6.02273 180.934 5.62118 183.046 5.40606 185.18C5.25606 187.92 4.30605 187.65 4.30605 187.65V181.07C4.30605 181.07 3.89605 186.98 3.30605 187.66C2.71605 188.34 2.00607 185.59 2.00607 185.59C2.00607 185.59 0.146065 184.14 0.00606545 180.25C-0.133935 176.36 2.19607 168.68 2.19607 168.68H7.94607C8.57812 171.137 8.82437 173.678 8.67605 176.21Z" fill="#FF8B66"/>
<path d="M11.8268 71.77C0.596788 75.34 5.82676 110.95 6.92676 123C6.92676 123 0.866791 151.9 2.23679 168.68C3.07475 169.282 4.08028 169.605 5.11179 169.605C6.1433 169.605 7.14884 169.282 7.98679 168.68C7.98679 168.68 15.9368 134.86 16.7568 125.92C17.5768 116.98 19.4768 93.14 19.4768 93.14L11.8268 71.77Z" fill="#FF8B66"/>
<path d="M13.2452 199.1C14.6152 206.21 16.5652 210.96 17.6352 216.94C19.1952 225.65 14.7552 238.26 19.2352 252.28C21.3152 258.92 24.9352 277.4 27.0352 289.5L35.0352 288C35.0352 287.89 35.4527 278.39 35.5352 286C35.5352 256.5 31.4652 227.94 32.0752 214.61C32.3252 208.97 33.2852 200.97 34.2952 193.7C34.2952 193.7 38.1652 168.83 41.2052 167.03C43.0452 165.94 57.8652 125.96 57.8652 125.96L25.8652 127.45C25.8652 127.45 7.20519 142.95 12.1052 170.54C12.1052 170.54 12.1052 170.83 12.0552 171.32C11.2352 184.27 12.0052 192.66 13.2452 199.1Z" fill="#9584B8"/>
<path d="M20.655 30.1501C20.655 30.1501 38.855 24.0501 42.525 36.8701C46.195 49.6901 42.525 63.0701 32.685 62.7501C20.605 62.3501 6.51498 37.3601 20.655 30.1501Z" fill="#FF8B66"/>
<path d="M34.4265 62.4002C34.4265 62.4002 33.6466 66.1302 36.0066 68.1702C36.0066 68.1702 37.5966 69.7702 35.1866 71.4102C27.6066 76.5602 19.4766 70.8502 19.4766 70.8502C21.1469 65.6125 21.3235 60.0127 19.9866 54.6802C21.5166 55.6902 26.3165 53.9202 34.4265 62.4002Z" fill="#EF6E4B"/>
<path d="M85.7757 291.65C79.9357 269.17 72.7057 235.14 71.7757 229.5C71.1657 225.86 70.6257 214.3 69.1957 200.11C68.8157 183.92 66.9557 146.92 57.8657 125.92L36.4657 126.42C37.3257 143.1 21.1557 161.1 40.8457 180.42C43.4157 187.62 51.9157 212.05 53.1457 222.81C54.5957 235.51 56.9657 241.14 64.3057 255.3C70.6657 267.56 75.1657 281.85 77.8557 291.68L85.7757 291.65Z" fill="#9584B8"/>
<path d="M45.4645 65.4702C45.4645 65.4702 37.0545 66.5702 27.5545 68.7702C18.0545 70.9702 14.0845 65.1902 9.22449 71.3102C1.92449 80.5102 13.7945 97.4702 20.0445 106.31C22.3745 109.59 27.2845 118.68 28.2745 127.39C28.2745 127.39 44.7745 132.19 58.9945 125.97L60.0545 105.73C60.0545 105.73 70.7845 83.2602 45.4645 65.4702Z" fill="#9584B8"/>
<path d="M96.8359 69.9299C97.4659 65.8799 107.836 59.2199 110.716 55.7699C110.716 55.7699 111.816 55.4699 110.716 57.2599C109.804 58.6015 108.748 59.8389 107.566 60.9499C107.566 60.9499 110.036 61.7199 110.036 62.8399C110.163 64.0956 110.02 65.3641 109.616 66.5599C109.076 67.7999 107.426 66.5599 107.426 66.5599C107.426 66.5599 104.516 70.6299 101.106 71.1999L96.8359 69.9299Z" fill="#FF8B66"/>
<path d="M96.1545 91.0399C99.0645 81.1099 101.155 71.2 101.155 71.2C99.8252 70.5082 98.3758 70.0771 96.8846 69.9299L85.6445 91.0399H96.1545Z" fill="#FF8B66"/>
<path d="M6.92512 177.66V177.71L6.60514 178.87C6.44983 177.605 6.13395 176.365 5.66514 175.18C5.28011 174.421 5.137 173.562 5.25513 172.72C5.58035 173.553 5.99618 174.348 6.49512 175.09C6.98512 175.64 6.92512 177.66 6.92512 177.66Z" fill="#EF6E4B"/>
<path d="M1.51562 178.22C1.34565 179.045 1.27846 179.888 1.31561 180.73C1.48561 181.18 1.80563 183.04 1.26562 183.33C1.31819 183.364 1.37889 183.383 1.44144 183.386C1.50398 183.388 1.56607 183.374 1.62122 183.344C1.67636 183.315 1.72257 183.271 1.755 183.217C1.78743 183.164 1.8049 183.102 1.8056 183.04C1.85378 182.524 1.85378 182.005 1.8056 181.49L2.06561 179.81C2.24774 179.972 2.39153 180.173 2.48663 180.398C2.58174 180.623 2.62579 180.866 2.6156 181.11C2.6156 182 2.0956 183.11 2.2756 183.38C2.4556 183.65 2.93561 185.75 2.03561 185.59C2.10288 185.677 2.19184 185.745 2.29361 185.787C2.39538 185.829 2.50638 185.844 2.6156 185.83C2.9356 185.75 2.7356 184.58 2.6156 183.3C2.63481 182.267 2.85563 181.248 3.26562 180.3C3.26563 180.3 3.12561 180.6 2.68561 179.95L1.51562 178.22Z" fill="#EF6E4B"/>
<path d="M10.7556 71.77C4.42562 74.06 1.86561 85.45 6.06561 122.09L4.38562 127.02C4.53782 127.345 4.62414 127.697 4.63959 128.056C4.65503 128.415 4.5993 128.773 4.47562 129.11C4.06562 130.31 1.26562 153.68 1.26562 153.68C1.26562 153.68 2.26562 159.52 10.7556 158.98C10.7556 158.98 19.7556 128.47 19.4756 125.92C19.1956 123.37 21.9656 96.15 21.9656 96.15L10.7556 71.77Z" fill="#43268B"/>
<path d="M55.5643 74.6C60.2043 90.6 56.1543 150.21 57.8043 157.52C57.8043 157.52 37.1843 163.91 25.6143 162.45C14.0443 160.99 8.72434 155.85 8.72434 155.85C8.72434 155.85 13.9243 138.78 15.3843 135.85C16.8443 132.92 16.8543 127.17 17.5743 124.61C18.2943 122.05 16.6643 109.33 14.7343 106.81C12.8043 104.29 2.89433 87.98 5.99432 77.12C9.09432 66.26 16.0543 69.46 29.3243 66.72C42.5943 63.98 52.3143 63.28 55.5643 74.6Z" fill="#43268B"/>
<path d="M43.9166 65.11C51.8166 64.22 79.1266 88.3 80.3966 89.03C81.6765 89.9889 82.8409 91.093 83.8666 92.32L85.7766 88.67L90.1866 81.32C90.1866 81.32 95.9266 84.57 98.1166 89.32L96.1166 94.65C95.3999 95.8486 94.9719 97.1975 94.8666 98.59C94.8666 100.42 87.6566 110.96 83.0866 109.32C78.5166 107.68 60.5366 99.77 50.8566 92.64C41.1766 85.51 43.9166 65.11 43.9166 65.11Z" fill="#43268B"/>
<path d="M31.0238 27.1198C40.0238 27.8598 44.2438 30.0398 44.7838 38.8098C45.3238 47.5798 35.0438 53.8098 34.6238 66.0098C34.2038 78.2098 41.3138 93.0098 35.4738 101.82C35.4738 101.82 38.4738 93.4198 36.4738 90.1298C36.4738 90.1298 37.2638 105.47 23.9238 108.21C21.8608 107.796 19.9582 106.803 18.4388 105.347C16.9194 103.892 15.8459 102.033 15.3438 99.9899C15.3438 99.9899 15.6238 104.63 18.3438 106.99C18.3438 106.99 12.7738 106.4 10.7438 94.5298C8.71384 82.6598 12.2039 69.6698 11.2339 50.9598C10.2639 32.2498 17.6238 26.0298 31.0238 27.1198Z" fill="#594A62"/>
<path d="M88.2386 282.224C81.5165 282.63 77.9688 285.101 77.0352 286.285V297.454C77.0352 299.992 89.2889 298.977 94.5405 297.454C99.7921 295.931 100.492 294.531 103.643 292.5C106.164 290.876 104.694 284.763 103.643 282.224C101.309 282.055 94.9606 281.818 88.2386 282.224Z" fill="#444444"/>
</svg>
