<svg width="605" height="985" viewBox="0 0 605 985" fill="none" xmlns="http://www.w3.org/2000/svg">
<path opacity="0.2" d="M378.235 380.608L390.96 378.7C392.205 373.116 392.769 367.402 392.641 361.683L380.517 357.364C380.261 354.831 379.841 352.316 379.262 349.837L389.324 341.845C387.592 336.391 385.215 331.164 382.243 326.273L369.595 328.554C368.111 326.486 366.495 324.515 364.758 322.654L369.473 310.701C365.246 306.839 360.568 303.502 355.54 300.763L345.759 309.081C344.055 308.321 342.298 307.621 340.495 307.013C339.872 306.793 339.248 306.61 338.624 306.42L336.723 293.707C331.139 292.453 325.423 291.886 319.701 292.019L315.374 304.147C312.841 304.397 310.329 304.813 307.851 305.394L299.85 295.342C294.392 297.069 289.16 299.443 284.266 302.413L286.593 315.065C284.523 316.545 282.552 318.158 280.691 319.894L268.735 315.179C264.87 319.406 261.53 324.083 258.787 329.109L267.092 338.926C266.332 340.629 265.624 342.378 265.016 344.18C264.803 344.803 264.62 345.434 264.43 346.058L251.706 347.951C250.458 353.534 249.891 359.248 250.017 364.968L262.148 369.287C262.406 371.82 262.822 374.334 263.396 376.814L253.402 384.806C255.128 390.264 257.505 395.495 260.483 400.385L273.131 398.104C274.613 400.17 276.227 402.138 277.961 403.997L273.177 415.92C277.404 419.784 282.082 423.123 287.11 425.865L296.922 417.57C298.633 418.33 300.383 419.037 302.193 419.653C302.816 419.866 303.44 420.041 304.064 420.231L305.958 432.959C311.545 434.207 317.263 434.771 322.987 434.64L327.315 422.52C329.843 422.26 332.353 421.841 334.829 421.265L342.83 431.256C348.289 429.526 353.521 427.149 358.415 424.177L356.08 411.57C358.147 410.084 360.118 408.469 361.982 406.734L373.93 411.449C377.798 407.225 381.139 402.547 383.879 397.519L375.558 387.733C376.319 386.03 377.018 384.281 377.634 382.471C377.863 381.833 378.045 381.232 378.235 380.608ZM351.858 363.325C351.86 369.361 350.071 375.262 346.718 380.281C343.364 385.3 338.598 389.212 333.02 391.522C327.443 393.833 321.305 394.438 315.384 393.26C309.462 392.083 304.023 389.177 299.754 384.909C295.485 380.641 292.578 375.204 291.401 369.284C290.223 363.364 290.828 357.229 293.139 351.653C295.45 346.077 299.364 341.311 304.384 337.959C309.405 334.607 315.307 332.818 321.344 332.82C325.351 332.82 329.319 333.609 333.021 335.142C336.724 336.675 340.087 338.922 342.921 341.755C345.754 344.587 348.002 347.95 349.536 351.651C351.069 355.353 351.858 359.319 351.858 363.325Z" fill="url(#paint0_linear_2_28)"/>
<path opacity="0.15" d="M290.565 245.175L318.305 241.014C321.019 228.841 322.25 216.384 321.97 203.916L295.539 194.5C294.981 188.977 294.067 183.495 292.803 178.089L314.74 160.667C310.963 148.778 305.781 137.381 299.303 126.719L271.729 131.692C268.492 127.183 264.97 122.886 261.183 118.828L271.463 92.7698C262.248 84.3507 252.048 77.0761 241.086 71.1042L219.763 89.239C216.049 87.5813 212.218 86.0562 208.289 84.7301C206.929 84.2494 205.569 83.8516 204.209 83.4372L200.064 55.7211C187.891 52.9878 175.429 51.752 162.955 52.0411L153.52 78.4808C148 79.0258 142.522 79.9338 137.122 81.1993L119.678 59.2851C107.779 63.0513 96.3727 68.2267 85.703 74.7013L90.7769 102.285C86.2636 105.51 81.9655 109.026 77.9098 112.811L51.8439 102.533C43.4187 111.747 36.1366 121.943 30.1557 132.902L48.2624 154.302C46.6043 158.015 45.0622 161.828 43.7357 165.756C43.2715 167.116 42.8735 168.492 42.459 169.851L14.7185 173.978C11.9992 186.151 10.7631 198.608 11.0374 211.077L37.4846 220.492C38.0459 226.014 38.9542 231.495 40.2039 236.903L18.4161 254.325C22.1788 266.226 27.3619 277.63 33.8533 288.291L61.428 283.318C64.6597 287.82 68.1766 292.111 71.957 296.164L61.5274 322.156C70.7425 330.581 80.9421 337.861 91.9044 343.839L113.294 325.754C117.025 327.411 120.839 328.953 124.785 330.296C126.145 330.76 127.504 331.141 128.864 331.555L132.993 359.305C145.174 362.025 157.64 363.255 170.118 362.968L179.553 336.545C185.066 335.978 190.538 335.065 195.935 333.81L213.379 355.591C225.279 351.819 236.685 346.638 247.354 340.159L242.264 312.675C246.77 309.434 251.067 305.913 255.131 302.132L281.18 312.409C289.612 303.201 296.895 293.004 302.868 282.041L284.728 260.707C286.386 256.994 287.912 253.181 289.255 249.236C289.752 247.844 290.15 246.534 290.565 245.175ZM233.061 207.496C233.064 220.654 229.164 233.518 221.854 244.46C214.543 255.402 204.151 263.931 191.992 268.968C179.832 274.005 166.452 275.324 153.543 272.757C140.634 270.191 128.776 263.855 119.469 254.551C110.162 245.247 103.824 233.392 101.257 220.487C98.6902 207.581 100.009 194.204 105.048 182.048C110.086 169.892 118.617 159.503 129.562 152.195C140.508 144.887 153.375 140.988 166.537 140.991C175.273 140.991 183.923 142.711 191.995 146.053C200.066 149.396 207.399 154.294 213.576 160.47C219.754 166.646 224.654 173.977 227.997 182.046C231.34 190.115 233.061 198.763 233.061 207.496Z" fill="url(#paint1_linear_2_28)"/>
<g opacity="0.2">
<path opacity="0.6" d="M507.536 340.201L505.976 340.435L505.516 341.944L505.511 341.961C505.303 342.643 505.121 343.238 504.897 343.865L504.891 343.883L504.885 343.9C504.241 345.793 503.506 347.629 502.703 349.427L502.061 350.866L503.082 352.066L511.034 361.419C508.591 365.668 505.735 369.666 502.508 373.356L491.092 368.852L489.625 368.273L488.471 369.347C486.515 371.168 484.445 372.863 482.275 374.424L480.988 375.35L481.277 376.909L483.506 388.946C479.259 391.395 474.785 393.427 470.146 395.014L462.502 385.468L461.517 384.239L459.984 384.595C457.385 385.2 454.75 385.64 452.096 385.912L450.527 386.074L449.997 387.559L445.861 399.143C440.961 399.143 436.073 398.661 431.268 397.703L429.457 385.534L429.225 383.972L427.713 383.511C427.484 383.441 427.271 383.378 427.067 383.317C426.603 383.179 426.188 383.055 425.751 382.906L425.749 382.905C423.861 382.263 422.023 381.521 420.208 380.714L418.775 380.078L417.579 381.09L408.198 389.021C403.95 386.578 399.951 383.725 396.259 380.503L400.826 369.122L401.417 367.648L400.334 366.486C398.515 364.536 396.823 362.471 395.267 360.304L394.347 359.021L392.793 359.302L380.701 361.482C378.246 357.237 376.212 352.762 374.628 348.121L384.176 340.487L385.405 339.504L385.051 337.971C384.449 335.367 384.012 332.727 383.741 330.068L383.581 328.496L382.093 327.966L370.5 323.839C370.505 318.944 370.989 314.061 371.947 309.261L384.111 307.451L385.674 307.218L386.135 305.707C386.189 305.53 386.24 305.36 386.29 305.195C386.445 304.68 386.586 304.212 386.748 303.737L386.751 303.729C387.384 301.854 388.125 300.02 388.931 298.216L389.571 296.781L388.556 295.582L380.615 286.196C383.061 281.947 385.918 277.947 389.143 274.254L400.568 278.758L402.036 279.337L403.19 278.26C405.141 276.441 407.207 274.75 409.378 273.199L410.67 272.275L410.383 270.713L408.159 258.624C412.405 256.178 416.878 254.148 421.515 252.564L429.161 262.17L430.147 263.408L431.687 263.047C434.283 262.439 436.916 262.002 439.569 261.74L441.146 261.584L441.678 260.092L445.815 248.5C450.713 248.5 455.598 248.984 460.4 249.947L462.218 262.102L462.452 263.664L463.962 264.124C464.085 264.162 464.206 264.198 464.323 264.234C464.888 264.405 465.391 264.557 465.899 264.737L465.916 264.743L465.933 264.748C467.816 265.384 469.659 266.117 471.456 266.919L472.894 267.561L474.094 266.541L483.442 258.591C487.691 261.033 491.69 263.885 495.383 267.107L490.877 278.526L490.298 279.995L491.375 281.15C493.197 283.102 494.892 285.17 496.45 287.339L497.37 288.622L498.924 288.342L511.014 286.161C513.464 290.405 515.497 294.875 517.085 299.509L507.473 307.143L506.233 308.128L506.593 309.67C507.201 312.271 507.64 314.908 507.909 317.565L508.068 319.138L509.558 319.669L521.143 323.796C521.141 328.691 520.658 333.575 519.702 338.376L507.536 340.201ZM475.6 343.705C479.533 337.818 481.631 330.897 481.629 323.817L445.838 288.035C438.757 288.034 431.834 290.131 425.946 294.063C420.057 297.995 415.467 303.585 412.756 310.125C410.046 316.665 409.336 323.862 410.717 330.806C412.098 337.75 415.508 344.128 420.515 349.134C425.523 354.14 431.902 357.548 438.847 358.929C445.793 360.31 452.992 359.6 459.533 356.89C466.075 354.18 471.666 349.592 475.6 343.705ZM481.629 323.817C481.629 319.118 480.704 314.465 478.905 310.124C477.106 305.783 474.47 301.838 471.146 298.515C467.822 295.193 463.877 292.557 459.534 290.759C455.192 288.961 450.538 288.035 445.838 288.035L481.629 323.817Z" stroke="#E1E1E1" stroke-width="5"/>
<path opacity="0.2" d="M551.411 407.979L549.85 408.213L549.39 409.722C549.292 410.043 549.218 410.287 549.126 410.542L549.12 410.56L549.114 410.577C548.834 411.401 548.512 412.205 548.159 412.997L547.516 414.435L548.537 415.636L551.558 419.189C550.76 420.49 549.872 421.733 548.901 422.911L544.565 421.2L543.098 420.621L541.944 421.695C541.088 422.492 540.183 423.233 539.234 423.916L537.947 424.842L538.235 426.401L539.081 430.967C537.737 431.693 536.344 432.325 534.914 432.86L532.01 429.234L531.026 428.006L529.493 428.362C528.356 428.626 527.204 428.819 526.043 428.938L524.474 429.099L523.944 430.584L522.372 434.986C520.847 434.942 519.327 434.792 517.824 434.537L517.135 429.912L516.903 428.349L515.391 427.888C515.265 427.85 515.157 427.818 515.06 427.789C514.862 427.73 514.709 427.684 514.534 427.625L514.531 427.624C513.713 427.345 512.908 427.021 512.104 426.663L510.671 426.027L509.474 427.039L505.907 430.055C504.608 429.257 503.365 428.371 502.188 427.402L503.92 423.087L504.511 421.612L503.428 420.45C502.633 419.598 501.893 418.696 501.213 417.749L500.293 416.466L498.739 416.746L494.142 417.575C493.415 416.23 492.781 414.836 492.246 413.404L495.872 410.505L497.1 409.522L496.746 407.989C496.483 406.85 496.292 405.695 496.173 404.532L496.014 402.96L494.525 402.43L490.121 400.862C490.167 399.34 490.317 397.822 490.572 396.321L495.196 395.633L496.759 395.4L497.219 393.889C497.248 393.797 497.273 393.712 497.297 393.633C497.366 393.405 497.421 393.221 497.487 393.028L497.487 393.028L497.49 393.02C497.764 392.209 498.086 391.409 498.443 390.61L499.084 389.175L498.069 387.976L495.049 384.407C495.849 383.105 496.738 381.86 497.71 380.681L502.049 382.392L503.517 382.971L504.671 381.894C505.523 381.1 506.426 380.361 507.373 379.684L508.666 378.76L508.378 377.198L507.534 372.607C508.877 371.883 510.268 371.252 511.698 370.718L514.602 374.367L515.588 375.605L517.128 375.244C518.261 374.979 519.41 374.788 520.568 374.674L522.145 374.518L522.677 373.026L524.249 368.621C525.773 368.665 527.292 368.816 528.795 369.072L529.486 373.693L529.719 375.255L531.229 375.715C531.292 375.734 531.35 375.752 531.406 375.769C531.664 375.847 531.86 375.906 532.061 375.977L532.078 375.983L532.095 375.989C532.914 376.265 533.72 376.586 534.51 376.938L535.948 377.58L537.148 376.56L540.699 373.54C542 374.338 543.244 375.224 544.422 376.194L542.711 380.53L542.132 381.999L543.209 383.153C544.005 384.007 544.746 384.91 545.426 385.858L546.347 387.141L547.901 386.861L552.496 386.032C553.222 387.375 553.854 388.766 554.39 390.195L550.74 393.094L549.5 394.078L549.861 395.62C550.126 396.757 550.319 397.909 550.436 399.07L550.595 400.643L552.084 401.173L556.485 402.741C556.441 404.264 556.291 405.782 556.036 407.285L551.411 407.979ZM538.087 411.676C540.04 408.753 541.082 405.317 541.081 401.802L523.31 384.035C519.795 384.034 516.358 385.076 513.435 387.028C510.511 388.98 508.232 391.755 506.886 395.003C505.54 398.25 505.188 401.824 505.873 405.271C506.559 408.719 508.252 411.886 510.738 414.371C513.224 416.857 516.392 418.549 519.84 419.234C523.288 419.92 526.863 419.568 530.11 418.222C533.358 416.877 536.134 414.599 538.087 411.676ZM541.081 401.801C541.081 399.468 540.621 397.158 539.728 395.003C538.835 392.847 537.526 390.888 535.876 389.239C534.226 387.589 532.267 386.28 530.111 385.388C527.955 384.495 525.644 384.035 523.311 384.035L541.081 401.801Z" stroke="#DEDEDE" stroke-width="5"/>
</g>
<g opacity="0.2">
<path opacity="0.5" d="M209.772 863.943L208.211 864.177L207.751 865.686L207.75 865.692C207.586 866.229 207.447 866.683 207.277 867.16L207.271 867.178L207.265 867.196C206.768 868.654 206.201 870.071 205.581 871.46L204.939 872.899L205.959 874.099L211.911 881.099C210.132 884.147 208.076 887.025 205.771 889.697L197.226 886.326L195.76 885.748L194.606 886.822C193.096 888.226 191.5 889.534 189.826 890.738L188.539 891.664L188.827 893.223L190.496 902.23C187.426 903.973 184.205 905.436 180.872 906.6L175.15 899.456L174.166 898.227L172.633 898.584C170.628 899.05 168.595 899.389 166.548 899.6L164.979 899.761L164.449 901.246L161.353 909.917C157.825 909.894 154.307 909.546 150.842 908.88L149.487 899.771L149.255 898.208L147.743 897.747C147.556 897.69 147.385 897.64 147.225 897.592C146.868 897.485 146.56 897.394 146.23 897.281L146.227 897.28C144.773 896.786 143.356 896.213 141.951 895.589L140.519 894.953L139.322 895.965L132.299 901.902C129.253 900.123 126.375 898.07 123.701 895.768L127.118 887.253L127.71 885.779L126.626 884.617C125.223 883.113 123.918 881.52 122.718 879.849L121.797 878.566L120.243 878.846L111.192 880.479C109.444 877.409 107.98 874.187 106.817 870.853L113.963 865.139L115.191 864.156L114.837 862.623C114.373 860.614 114.035 858.578 113.827 856.527L113.667 854.954L112.178 854.424L103.502 851.336C103.529 847.811 103.877 844.297 104.544 840.837L113.65 839.482L115.212 839.249L115.673 837.738C115.716 837.596 115.757 837.46 115.797 837.33C115.917 836.931 116.023 836.579 116.146 836.219L116.149 836.21C116.636 834.768 117.207 833.354 117.83 831.958L118.471 830.524L117.456 829.324L111.511 822.298C113.293 819.25 115.349 816.37 117.654 813.695L126.205 817.066L127.673 817.645L128.827 816.568C130.331 815.165 131.925 813.861 133.599 812.665L134.891 811.741L134.604 810.179L132.94 801.132C136.008 799.391 139.228 797.93 142.56 796.767L148.282 803.956L149.268 805.195L150.808 804.833C152.81 804.365 154.84 804.028 156.886 803.826L158.462 803.67L158.995 802.178L162.091 793.501C165.617 793.525 169.134 793.874 172.596 794.544L173.957 803.643L174.19 805.204L175.7 805.664C175.799 805.695 175.894 805.723 175.987 805.751C176.427 805.885 176.805 805.999 177.188 806.135L177.205 806.141L177.222 806.147C178.673 806.636 180.095 807.202 181.482 807.821L182.921 808.463L184.121 807.443L191.117 801.492C194.165 803.271 197.044 805.324 199.718 807.626L196.346 816.172L195.767 817.641L196.844 818.795C198.249 820.301 199.557 821.896 200.758 823.569L201.679 824.852L203.232 824.572L212.282 822.94C214.026 826.007 215.489 829.225 216.655 832.555L209.462 838.268L208.222 839.252L208.582 840.794C209.051 842.8 209.39 844.834 209.597 846.884L209.756 848.457L211.246 848.987L219.917 852.076C219.892 855.601 219.544 859.116 218.879 862.577L209.772 863.943ZM185.396 867.525C188.525 862.843 190.194 857.337 190.193 851.706L161.722 823.242C156.089 823.241 150.583 824.91 145.899 828.037C141.214 831.165 137.563 835.611 135.407 840.814C133.251 846.016 132.686 851.742 133.785 857.265C134.883 862.789 137.596 867.862 141.579 871.844C145.562 875.826 150.637 878.538 156.161 879.636C161.686 880.734 167.412 880.17 172.616 878.014C177.82 875.859 182.268 872.208 185.396 867.525ZM190.193 851.705C190.193 847.967 189.456 844.266 188.026 840.813C186.595 837.36 184.497 834.222 181.854 831.579C179.21 828.936 176.071 826.839 172.617 825.409C169.163 823.978 165.461 823.242 161.722 823.242L190.193 851.705Z" stroke="url(#paint2_linear_2_28)" stroke-width="5"/>
<path opacity="0.5" d="M243.997 916.817L242.437 917.051L241.977 918.56C241.9 918.812 241.845 918.991 241.779 919.175L241.773 919.193L241.767 919.211C241.554 919.836 241.31 920.447 241.04 921.051L240.398 922.49L241.418 923.69L243.515 926.156C243.032 926.915 242.509 927.647 241.948 928.35L238.94 927.163L237.474 926.585L236.32 927.659C235.669 928.264 234.981 928.828 234.259 929.347L232.972 930.273L233.261 931.832L233.847 934.997C233.047 935.413 232.227 935.785 231.388 936.114L229.374 933.599L228.39 932.37L226.856 932.726C225.992 932.927 225.116 933.074 224.233 933.164L222.665 933.326L222.134 934.811L221.044 937.865C220.146 937.825 219.251 937.737 218.362 937.6L217.884 934.39L217.652 932.827L216.141 932.366C216.032 932.333 215.944 932.307 215.867 932.284C215.721 932.241 215.615 932.209 215.489 932.166L215.486 932.165C214.867 931.955 214.255 931.708 213.639 931.434L212.206 930.798L211.009 931.81L208.533 933.903C207.775 933.422 207.044 932.9 206.342 932.341L207.541 929.351L208.133 927.877L207.049 926.715C206.445 926.067 205.883 925.381 205.366 924.662L204.446 923.379L202.892 923.659L199.701 924.235C199.284 923.434 198.91 922.612 198.581 921.771L201.096 919.76L202.325 918.778L201.971 917.245C201.77 916.379 201.625 915.501 201.535 914.616L201.375 913.044L199.886 912.514L196.831 911.426C196.872 910.53 196.961 909.637 197.097 908.751L200.307 908.273L201.869 908.041L202.33 906.53C202.353 906.453 202.374 906.384 202.393 906.32C202.446 906.146 202.485 906.016 202.533 905.875L202.533 905.875L202.536 905.867C202.743 905.254 202.988 904.646 203.261 904.035L203.901 902.601L202.886 901.401L200.79 898.924C201.274 898.163 201.798 897.429 202.36 896.725L205.37 897.912L206.838 898.491L207.993 897.414C208.639 896.81 209.325 896.249 210.045 895.735L211.337 894.811L211.05 893.249L210.464 890.064C211.262 889.65 212.082 889.278 212.919 888.951L214.934 891.482L215.92 892.72L217.461 892.359C218.321 892.158 219.193 892.013 220.073 891.926L221.649 891.771L222.182 890.279L223.272 887.221C224.17 887.262 225.064 887.351 225.952 887.487L226.432 890.696L226.665 892.257L228.175 892.717C228.226 892.733 228.274 892.747 228.318 892.761C228.518 892.821 228.657 892.863 228.801 892.914L228.818 892.92L228.835 892.926C229.455 893.135 230.068 893.379 230.67 893.648L232.109 894.29L233.309 893.269L235.773 891.174C236.532 891.656 237.265 892.178 237.968 892.739L236.781 895.746L236.202 897.215L237.279 898.369C237.884 899.018 238.447 899.704 238.964 900.425L239.885 901.708L241.439 901.427L244.628 900.852C245.044 901.65 245.417 902.47 245.746 903.308L243.214 905.318L241.974 906.303L242.335 907.845C242.537 908.708 242.683 909.584 242.772 910.466L242.931 912.039L244.42 912.57L247.473 913.657C247.433 914.554 247.345 915.448 247.209 916.335L243.997 916.817ZM215.203 934.695C215.273 934.716 215.342 934.737 215.412 934.758L212.623 933.719C213.292 934.016 213.975 934.292 214.681 934.532C214.855 934.592 215.029 934.643 215.203 934.695ZM234.143 920.55C235.726 918.179 236.571 915.393 236.571 912.542L222.158 898.132C219.307 898.132 216.519 898.976 214.148 900.56C211.777 902.143 209.929 904.394 208.837 907.027C207.746 909.661 207.46 912.56 208.016 915.356C208.572 918.152 209.945 920.72 211.962 922.736C213.978 924.752 216.547 926.125 219.344 926.68C222.14 927.236 225.039 926.951 227.673 925.86C230.307 924.768 232.559 922.921 234.143 920.55ZM236.571 912.541C236.571 910.649 236.198 908.775 235.474 907.027C234.749 905.279 233.687 903.691 232.349 902.353C231.011 901.015 229.422 899.953 227.673 899.229C225.925 898.505 224.051 898.132 222.159 898.132L236.571 912.541Z" stroke="url(#paint3_linear_2_28)" stroke-width="5"/>
</g>
<g opacity="0.1">
<path d="M429.894 736.05L472.551 729.652C476.725 710.933 478.617 691.778 478.186 672.605L437.543 658.126C436.684 649.633 435.279 641.204 433.336 632.891L467.07 606.101C461.262 587.818 453.293 570.292 443.331 553.897L400.929 561.544C395.952 554.61 390.536 548.003 384.713 541.763L400.521 501.693C386.35 488.747 370.666 477.56 353.81 468.377L321.02 496.263C315.308 493.714 309.419 491.369 303.376 489.33C301.285 488.591 299.194 487.979 297.103 487.342L290.729 444.722C272.009 440.519 252.846 438.619 233.665 439.063L219.157 479.72C210.669 480.558 202.245 481.955 193.94 483.9L167.117 450.202C148.819 455.994 131.28 463.952 114.873 473.908L122.675 516.324C115.735 521.284 109.125 526.691 102.889 532.51L62.8068 516.707C49.851 530.875 38.6533 546.554 29.4562 563.405L57.2994 596.313C54.7496 602.022 52.3784 607.885 50.3386 613.926C49.6247 616.016 49.0127 618.132 48.3752 620.222L5.71799 626.569C1.53644 645.287 -0.364265 664.442 0.0574681 683.617L40.726 698.095C41.5892 706.586 42.9858 715.015 44.9076 723.33L11.4039 750.121C17.19 768.42 25.1601 785.956 35.142 802.35L77.5444 794.703C82.514 801.627 87.9219 808.225 93.7352 814.458L77.6974 854.427C91.8676 867.381 107.552 878.576 124.409 887.768L157.3 859.958C163.037 862.507 168.902 864.878 174.97 866.942C177.061 867.656 179.152 868.242 181.243 868.88L187.591 911.55C206.322 915.734 225.493 917.625 244.68 917.184L259.188 876.552C267.666 875.681 276.08 874.276 284.38 872.346L311.203 905.84C329.502 900.04 347.041 892.073 363.448 882.109L355.62 839.846C362.549 834.863 369.158 829.448 375.406 823.634L415.463 839.438C428.429 825.279 439.627 809.598 448.813 792.74L420.919 759.934C423.469 754.225 425.815 748.362 427.88 742.295C428.645 740.154 429.257 738.14 429.894 736.05ZM341.469 678.111C341.474 698.344 335.477 718.125 324.235 734.951C312.994 751.777 297.014 764.892 278.316 772.637C259.618 780.382 239.043 782.41 219.192 778.464C199.341 774.518 181.107 764.775 166.795 750.468C152.484 736.16 142.738 717.931 138.791 698.086C134.844 678.241 136.872 657.671 144.62 638.979C152.367 620.286 165.486 604.311 182.317 593.073C199.147 581.834 218.934 575.839 239.173 575.844C252.607 575.844 265.909 578.489 278.32 583.628C290.731 588.768 302.008 596.301 311.507 605.797C321.006 615.294 328.541 626.567 333.682 638.975C338.823 651.382 341.469 664.681 341.469 678.111Z" fill="url(#paint4_linear_2_28)"/>
<path d="M429.894 736.05L472.551 729.652C476.725 710.933 478.617 691.778 478.186 672.605L437.543 658.126C436.684 649.633 435.279 641.204 433.336 632.891L467.07 606.101C461.262 587.818 453.293 570.292 443.331 553.897L400.929 561.544C395.952 554.61 390.536 548.003 384.713 541.763L400.521 501.693C386.35 488.747 370.666 477.56 353.81 468.377L321.02 496.263C315.308 493.714 309.419 491.369 303.376 489.33C301.285 488.591 299.194 487.979 297.103 487.342L290.729 444.722C272.009 440.519 252.846 438.619 233.665 439.063L219.157 479.72C210.669 480.558 202.245 481.955 193.94 483.9L167.117 450.202C148.819 455.994 131.28 463.952 114.873 473.908L122.675 516.324C115.735 521.284 109.125 526.691 102.889 532.51L62.8068 516.707C49.851 530.875 38.6533 546.554 29.4562 563.405L57.2994 596.313C54.7496 602.022 52.3784 607.885 50.3386 613.926C49.6247 616.016 49.0127 618.132 48.3752 620.222L5.71799 626.569C1.53644 645.287 -0.364265 664.442 0.0574681 683.617L40.726 698.095C41.5892 706.586 42.9858 715.015 44.9076 723.33L11.4039 750.121C17.19 768.42 25.1601 785.956 35.142 802.35L77.5444 794.703C82.514 801.627 87.9219 808.225 93.7352 814.458L77.6974 854.427C91.8676 867.381 107.552 878.576 124.409 887.768L157.3 859.958C163.037 862.507 168.902 864.878 174.97 866.942C177.061 867.656 179.152 868.242 181.243 868.88L187.591 911.55C206.322 915.734 225.493 917.625 244.68 917.184L259.188 876.552C267.666 875.681 276.08 874.276 284.38 872.346L311.203 905.84C329.502 900.04 347.041 892.073 363.448 882.109L355.62 839.846C362.549 834.863 369.158 829.448 375.406 823.634L415.463 839.438C428.429 825.279 439.627 809.598 448.813 792.74L420.919 759.934C423.469 754.225 425.815 748.362 427.88 742.295C428.645 740.154 429.257 738.14 429.894 736.05ZM341.469 678.111C341.474 698.344 335.477 718.125 324.235 734.951C312.994 751.777 297.014 764.892 278.316 772.637C259.618 780.382 239.043 782.41 219.192 778.464C199.341 774.518 181.107 764.775 166.795 750.468C152.484 736.16 142.738 717.931 138.791 698.086C134.844 678.241 136.872 657.671 144.62 638.979C152.367 620.286 165.486 604.311 182.317 593.073C199.147 581.834 218.934 575.839 239.173 575.844C252.607 575.844 265.909 578.489 278.32 583.628C290.731 588.768 302.008 596.301 311.507 605.797C321.006 615.294 328.541 626.567 333.682 638.975C338.823 651.382 341.469 664.681 341.469 678.111Z" fill="black" fill-opacity="0.2"/>
</g>
<g opacity="0.2">
<path d="M565.23 853.886L584.796 850.952C586.711 842.365 587.579 833.579 587.381 824.784L568.738 818.143C568.344 814.247 567.7 810.381 566.809 806.568L582.282 794.279C579.618 785.893 575.962 777.854 571.393 770.333L551.943 773.841C549.661 770.661 547.176 767.63 544.505 764.768L551.756 746.388C545.256 740.449 538.062 735.318 530.33 731.106L515.289 743.897C512.67 742.728 509.968 741.652 507.196 740.717C506.237 740.378 505.278 740.097 504.319 739.805L501.395 720.256C492.809 718.328 484.018 717.456 475.22 717.66L468.566 736.309C464.672 736.693 460.808 737.334 456.999 738.226L444.695 722.769C436.302 725.426 428.257 729.076 420.731 733.643L424.31 753.099C421.126 755.374 418.094 757.854 415.234 760.524L396.848 753.274C390.906 759.773 385.769 766.965 381.55 774.695L394.322 789.789C393.152 792.408 392.065 795.098 391.129 797.869C390.802 798.827 390.521 799.798 390.229 800.757L370.662 803.668C368.744 812.254 367.872 821.04 368.065 829.835L386.72 836.477C387.116 840.371 387.756 844.238 388.638 848.052L373.27 860.34C375.924 868.734 379.58 876.778 384.159 884.298L403.608 880.79C405.888 883.966 408.368 886.993 411.035 889.852L403.679 908.185C410.178 914.127 417.373 919.262 425.105 923.479L440.192 910.722C442.824 911.892 445.514 912.979 448.297 913.926C449.256 914.253 450.215 914.522 451.174 914.815L454.086 934.388C462.678 936.307 471.472 937.174 480.273 936.972L486.928 918.334C490.816 917.934 494.676 917.29 498.483 916.405L510.787 931.768C519.18 929.108 527.225 925.453 534.751 920.883L531.16 901.497C534.339 899.211 537.37 896.728 540.236 894.061L558.61 901.31C564.557 894.815 569.694 887.623 573.908 879.89L561.113 864.842C562.282 862.223 563.358 859.534 564.306 856.751C564.657 855.769 564.937 854.845 565.23 853.886ZM524.669 827.31C524.672 836.591 521.921 845.664 516.764 853.382C511.608 861.1 504.278 867.116 495.701 870.669C487.125 874.221 477.687 875.152 468.581 873.342C459.476 871.532 451.112 867.062 444.547 860.5C437.983 853.937 433.512 845.575 431.702 836.473C429.891 827.37 430.822 817.934 434.375 809.36C437.929 800.786 443.947 793.458 451.667 788.303C459.387 783.148 468.463 780.398 477.747 780.4C483.909 780.4 490.01 781.614 495.703 783.971C501.396 786.329 506.569 789.784 510.926 794.14C515.283 798.496 518.74 803.667 521.098 809.358C523.456 815.05 524.669 821.15 524.669 827.31Z" fill="url(#paint5_linear_2_28)"/>
<path d="M565.23 853.886L584.796 850.952C586.711 842.365 587.579 833.579 587.381 824.784L568.738 818.143C568.344 814.247 567.7 810.381 566.809 806.568L582.282 794.279C579.618 785.893 575.962 777.854 571.393 770.333L551.943 773.841C549.661 770.661 547.176 767.63 544.505 764.768L551.756 746.388C545.256 740.449 538.062 735.318 530.33 731.106L515.289 743.897C512.67 742.728 509.968 741.652 507.196 740.717C506.237 740.378 505.278 740.097 504.319 739.805L501.395 720.256C492.809 718.328 484.018 717.456 475.22 717.66L468.566 736.309C464.672 736.693 460.808 737.334 456.999 738.226L444.695 722.769C436.302 725.426 428.257 729.076 420.731 733.643L424.31 753.099C421.126 755.374 418.094 757.854 415.234 760.524L396.848 753.274C390.906 759.773 385.769 766.965 381.55 774.695L394.322 789.789C393.152 792.408 392.065 795.098 391.129 797.869C390.802 798.827 390.521 799.798 390.229 800.757L370.662 803.668C368.744 812.254 367.872 821.04 368.065 829.835L386.72 836.477C387.116 840.371 387.756 844.238 388.638 848.052L373.27 860.34C375.924 868.734 379.58 876.778 384.159 884.298L403.608 880.79C405.888 883.966 408.368 886.993 411.035 889.852L403.679 908.185C410.178 914.127 417.373 919.262 425.105 923.479L440.192 910.722C442.824 911.892 445.514 912.979 448.297 913.926C449.256 914.253 450.215 914.522 451.174 914.815L454.086 934.388C462.678 936.307 471.472 937.174 480.273 936.972L486.928 918.334C490.816 917.934 494.676 917.29 498.483 916.405L510.787 931.768C519.18 929.108 527.225 925.453 534.751 920.883L531.16 901.497C534.339 899.211 537.37 896.728 540.236 894.061L558.61 901.31C564.557 894.815 569.694 887.623 573.908 879.89L561.113 864.842C562.282 862.223 563.358 859.534 564.306 856.751C564.657 855.769 564.937 854.845 565.23 853.886ZM524.669 827.31C524.672 836.591 521.921 845.664 516.764 853.382C511.608 861.1 504.278 867.116 495.701 870.669C487.125 874.221 477.687 875.152 468.581 873.342C459.476 871.532 451.112 867.062 444.547 860.5C437.983 853.937 433.512 845.575 431.702 836.473C429.891 827.37 430.822 817.934 434.375 809.36C437.929 800.786 443.947 793.458 451.667 788.303C459.387 783.148 468.463 780.398 477.747 780.4C483.909 780.4 490.01 781.614 495.703 783.971C501.396 786.329 506.569 789.784 510.926 794.14C515.283 798.496 518.74 803.667 521.098 809.358C523.456 815.05 524.669 821.15 524.669 827.31Z" fill="black" fill-opacity="0.2"/>
</g>
<g opacity="0.2">
<path opacity="0.2" d="M493.232 140.84L504.466 125.641C499.959 118.549 494.611 112.028 488.537 106.22L471.458 114.327C468.561 111.962 465.514 109.785 462.336 107.812L464.487 89.0596C457.023 85.1943 449.124 82.2335 440.958 80.2399L430.189 95.7469C426.499 95.1407 422.774 94.7718 419.036 94.6427L411.519 77.3295C403.117 77.7089 394.792 79.1025 386.724 81.4799L385.205 100.279C382.645 101.259 380.094 102.357 377.59 103.598C376.713 104.017 375.876 104.475 375.03 104.925L359.85 93.6953C352.748 98.193 346.222 103.542 340.417 109.622L348.519 126.714C346.148 129.604 343.971 132.646 342.001 135.822L323.249 133.692C319.374 141.156 316.406 149.056 314.407 157.224L329.966 167.949C329.353 171.636 328.98 175.359 328.851 179.094L311.536 186.616C311.911 195.02 313.3 203.348 315.671 211.418L334.494 212.987C335.473 215.547 336.555 218.098 337.795 220.601C338.221 221.47 338.687 222.315 339.137 223.161L327.887 238.344C332.391 245.439 337.737 251.962 343.808 257.773L360.895 249.658C363.793 252.021 366.837 254.2 370.009 256.181L367.929 274.862C375.391 278.739 383.294 281.703 391.466 283.69L402.235 268.183C405.92 268.788 409.64 269.157 413.372 269.287L420.786 286.64C429.19 286.263 437.518 284.872 445.589 282.497L447.164 263.69C449.731 262.702 452.283 261.62 454.803 260.379C455.671 259.953 456.501 259.486 457.346 259.036L472.534 270.29C479.634 265.782 486.159 260.429 491.968 254.347L483.874 237.263C486.23 234.367 488.402 231.324 490.376 228.155L509.064 230.222C512.937 222.755 515.902 214.852 517.898 206.682L502.379 196.013C502.982 192.322 503.352 188.597 503.486 184.859L520.793 177.345C520.424 168.941 519.035 160.612 516.658 152.543L497.851 151.021C496.872 148.462 495.782 145.919 494.543 143.399C494.116 142.499 493.682 141.686 493.232 140.84ZM447.883 150.286C454.154 156.553 458.424 164.54 460.154 173.237C461.885 181.933 460.997 190.947 457.604 199.14C454.21 207.333 448.463 214.337 441.09 219.264C433.717 224.192 425.049 226.823 416.182 226.824C407.315 226.826 398.647 224.197 391.276 219.272C383.904 214.346 378.159 207.344 374.768 199.152C371.377 190.96 370.492 181.946 372.225 173.249C373.957 164.552 378.23 156.564 384.503 150.295C388.665 146.133 393.606 142.831 399.044 140.578C404.481 138.325 410.309 137.165 416.195 137.164C422.08 137.163 427.908 138.322 433.345 140.573C438.782 142.825 443.722 146.125 447.883 150.286Z" fill="url(#paint6_linear_2_28)"/>
<path opacity="0.2" d="M571.673 135.418L576.826 128.447C574.759 125.193 572.306 122.202 569.52 119.538L561.686 123.257C560.357 122.172 558.959 121.174 557.502 120.268L558.488 111.667C555.064 109.894 551.441 108.536 547.695 107.621L542.756 114.734C541.063 114.456 539.355 114.287 537.64 114.228L534.192 106.286C530.338 106.46 526.519 107.099 522.819 108.19L522.122 116.813C520.948 117.263 519.777 117.766 518.629 118.335C518.227 118.527 517.843 118.738 517.455 118.944L510.492 113.793C507.234 115.856 504.241 118.31 501.578 121.099L505.294 128.939C504.207 130.264 503.208 131.66 502.304 133.117L493.703 132.14C491.926 135.563 490.564 139.187 489.647 142.934L496.784 147.853C496.503 149.544 496.332 151.252 496.273 152.965L488.33 156.416C488.502 160.27 489.139 164.09 490.227 167.792L498.861 168.512C499.31 169.686 499.806 170.856 500.375 172.004C500.571 172.403 500.784 172.791 500.991 173.178L495.83 180.143C497.896 183.397 500.348 186.39 503.133 189.055L510.971 185.333C512.3 186.417 513.697 187.416 515.152 188.325L514.197 196.894C517.62 198.672 521.245 200.032 524.994 200.943L529.933 193.83C531.624 194.108 533.33 194.277 535.042 194.336L538.443 202.296C542.298 202.123 546.118 201.485 549.82 200.396L550.542 191.769C551.72 191.316 552.89 190.819 554.046 190.25C554.445 190.055 554.825 189.841 555.213 189.634L562.179 194.796C565.436 192.729 568.429 190.273 571.093 187.483L567.381 179.647C568.462 178.318 569.458 176.923 570.363 175.469L578.935 176.417C580.712 172.992 582.072 169.367 582.988 165.62L575.869 160.726C576.145 159.033 576.315 157.324 576.377 155.61L584.316 152.163C584.146 148.308 583.509 144.488 582.419 140.786L573.792 140.088C573.343 138.915 572.843 137.748 572.275 136.592C572.079 136.179 571.88 135.806 571.673 135.418ZM550.872 139.751C553.748 142.626 555.707 146.289 556.501 150.278C557.295 154.267 556.887 158.402 555.331 162.16C553.774 165.918 551.138 169.131 547.756 171.391C544.374 173.651 540.398 174.858 536.331 174.859C532.264 174.859 528.288 173.654 524.906 171.394C521.525 169.135 518.89 165.923 517.335 162.166C515.779 158.408 515.373 154.273 516.168 150.284C516.963 146.295 518.923 142.631 521.8 139.755C523.709 137.846 525.975 136.331 528.47 135.298C530.964 134.264 533.637 133.732 536.337 133.732C539.036 133.732 541.709 134.263 544.203 135.296C546.697 136.328 548.963 137.842 550.872 139.751Z" fill="url(#paint7_linear_2_28)"/>
</g>
<path opacity="0.2" d="M272.541 984.999C285.544 985.071 298.068 980.077 307.479 971.069C316.89 962.06 322.453 949.739 323 936.697C323 936.003 323 935.271 323 934.577C323.005 925.844 321.297 917.196 317.972 909.126C314.648 901.056 309.773 893.723 303.625 887.545C297.478 881.366 290.178 876.464 282.143 873.117C274.108 869.771 265.496 868.046 256.797 868.041H254.877C254.877 862.561 253.364 857.189 250.507 852.52C247.65 847.852 243.559 844.069 238.69 841.593C233.821 839.117 228.363 838.045 222.923 838.494C217.483 838.944 212.274 840.898 207.874 844.14C202.442 827.212 191.314 812.707 176.397 803.111C161.481 793.516 143.704 789.427 126.113 791.546C108.523 793.665 92.2144 801.86 79.9826 814.726C67.7508 827.591 60.3575 844.328 59.0697 862.065C43.809 864.739 30.1096 873.08 20.6952 885.43C11.2808 897.78 6.84118 913.234 8.25897 928.72C9.67675 944.206 16.8481 958.589 28.3472 969.009C39.8463 979.43 54.8308 985.124 70.3212 984.961L272.541 984.999Z" fill="url(#paint8_linear_2_28)"/>
<g opacity="0.05">
<path d="M164.303 406.059C163.4 406.95 161.984 408.232 160.092 409.904C160.885 410.685 162.13 411.821 163.827 413.298C164.056 413.446 164.247 413.645 164.384 413.88C164.522 414.114 164.603 414.378 164.621 414.65C164.639 414.921 164.593 415.193 164.487 415.444C164.381 415.695 164.218 415.917 164.01 416.093C163.619 416.475 163.092 416.686 162.545 416.679C161.69 416.565 160.899 416.165 160.299 415.544L158.468 413.75C157.663 412.917 156.689 412.268 155.611 411.845C154.537 411.467 154 410.869 154 410.063C154 409.257 154.476 408.744 155.441 408.317C156.638 407.732 157.724 406.943 158.651 405.985C160.25 404.423 161.215 403.544 161.557 403.275C161.943 402.96 162.425 402.783 162.924 402.775C163.196 402.771 163.467 402.82 163.721 402.921C163.974 403.021 164.205 403.171 164.401 403.361C164.597 403.529 164.753 403.739 164.858 403.974C164.963 404.21 165.014 404.466 165.008 404.724C165.002 404.982 164.939 405.236 164.824 405.467C164.708 405.697 164.543 405.9 164.34 406.059H164.303Z" fill="white"/>
<path d="M175.559 416.997C173.89 417.05 172.259 416.494 170.969 415.434C170.332 414.913 169.825 414.252 169.486 413.502C169.147 412.753 168.986 411.935 169.016 411.113C169.079 409.274 169.692 407.497 170.774 406.01C172.092 403.992 173.63 402.986 175.388 402.995C176.432 403.033 177.46 403.269 178.416 403.69C179.82 404.264 180.515 404.911 180.515 405.668C180.514 406.071 180.361 406.458 180.088 406.755C179.947 406.919 179.77 407.049 179.572 407.136C179.373 407.223 179.157 407.263 178.941 407.255C178.458 407.21 178.004 407.008 177.647 406.681C176.976 406.249 176.183 406.048 175.388 406.108C174.753 406.108 174.058 406.73 173.313 407.975C172.695 408.912 172.329 409.993 172.251 411.113C172.231 411.505 172.306 411.896 172.47 412.253C172.633 412.61 172.881 412.923 173.191 413.164C173.874 413.667 174.711 413.917 175.559 413.872C176.279 413.824 176.978 413.607 177.598 413.237C178.069 412.945 178.585 412.731 179.124 412.602C179.548 412.608 179.954 412.778 180.256 413.076C180.559 413.374 180.735 413.777 180.747 414.201C180.747 414.848 180.051 415.495 178.635 416.142C177.677 416.629 176.631 416.92 175.559 416.997V416.997Z" fill="white"/>
<path d="M187.994 416.948C187.262 416.961 186.535 416.827 185.856 416.555C185.177 416.282 184.559 415.876 184.039 415.361C183.428 414.762 182.944 414.045 182.617 413.254C182.289 412.463 182.125 411.615 182.135 410.759C182.068 409.006 182.602 407.283 183.648 405.876C184.248 405.055 185.041 404.395 185.956 403.954C186.872 403.514 187.882 403.305 188.898 403.349C189.67 403.325 190.437 403.495 191.127 403.843C191.818 404.19 192.411 404.704 192.853 405.338C193.766 406.631 194.229 408.188 194.171 409.77C194.214 411.523 193.673 413.241 192.633 414.653C192.107 415.386 191.408 415.978 190.6 416.378C189.791 416.778 188.896 416.974 187.994 416.948V416.948ZM188.739 406.596C188.242 406.584 187.752 406.708 187.321 406.956C186.891 407.203 186.537 407.564 186.297 408C185.781 408.826 185.518 409.785 185.541 410.759C185.515 411.178 185.577 411.598 185.725 411.991C185.872 412.384 186.1 412.742 186.395 413.041C186.6 413.247 186.843 413.409 187.112 413.518C187.38 413.627 187.668 413.681 187.958 413.676C188.655 413.684 189.329 413.422 189.838 412.944C190.145 412.638 190.388 412.275 190.554 411.875C190.719 411.474 190.804 411.045 190.802 410.612C190.949 407.951 190.204 406.608 188.739 406.547V406.596Z" fill="white"/>
<path d="M205.368 403.715C205.466 400.895 205.6 398.942 205.746 397.867C205.776 397.557 205.894 397.262 206.086 397.017C206.278 396.772 206.535 396.586 206.829 396.482C207.123 396.378 207.44 396.361 207.743 396.431C208.047 396.501 208.324 396.656 208.542 396.878C208.691 397.031 208.809 397.213 208.886 397.412C208.964 397.612 209 397.824 208.994 398.038C208.994 399.259 208.896 401.066 208.713 403.458C208.53 405.851 208.432 407.67 208.432 408.891C208.379 410.877 208.473 412.864 208.713 414.836C208.729 414.957 208.729 415.081 208.713 415.202C208.718 415.417 208.676 415.63 208.59 415.826C208.503 416.022 208.374 416.197 208.212 416.338C207.895 416.625 207.481 416.782 207.053 416.777C206.77 416.787 206.491 416.715 206.248 416.57C206.005 416.425 205.81 416.213 205.685 415.959C205.15 416.288 204.558 416.516 203.94 416.63C203.318 416.729 202.689 416.778 202.06 416.777C201.209 416.805 200.362 416.663 199.568 416.359C198.773 416.055 198.047 415.595 197.433 415.007C196.811 414.412 196.322 413.692 195.998 412.895C195.674 412.097 195.522 411.24 195.553 410.38C195.463 408.405 196.141 406.471 197.445 404.984C198.063 404.31 198.819 403.776 199.661 403.42C200.504 403.064 201.414 402.894 202.328 402.921C202.891 402.918 203.453 402.984 204.001 403.117C204.489 403.23 204.953 403.433 205.368 403.715V403.715ZM205.112 407.633C204.887 407.13 204.517 406.705 204.049 406.413C203.568 406.148 203.024 406.017 202.475 406.034C201.965 405.996 201.453 406.072 200.976 406.255C200.499 406.439 200.068 406.726 199.716 407.096C199.04 408.015 198.715 409.145 198.8 410.283C198.795 410.713 198.881 411.14 199.051 411.535C199.221 411.93 199.473 412.285 199.789 412.578C200.092 412.885 200.453 413.128 200.851 413.294C201.25 413.46 201.677 413.544 202.108 413.542C202.604 413.569 203.099 413.49 203.561 413.31C203.971 413.087 204.356 412.821 204.709 412.517C204.843 412.407 204.977 412.272 205.112 412.138C205.099 411.784 205.099 410.27 205.112 407.633V407.633Z" fill="white"/>
<path d="M217.479 416.777C215.739 416.861 214.021 416.362 212.596 415.361C211.914 414.853 211.366 414.186 211.002 413.418C210.638 412.649 210.469 411.803 210.509 410.954C210.451 409.044 211.036 407.17 212.169 405.631C212.733 404.85 213.479 404.22 214.343 403.794C215.207 403.368 216.162 403.161 217.125 403.19C218.36 403.151 219.587 403.393 220.714 403.898C221.235 404.095 221.689 404.437 222.02 404.885C222.352 405.332 222.548 405.865 222.586 406.421C222.623 406.977 222.5 407.531 222.231 408.019C221.962 408.507 221.558 408.907 221.068 409.171C220.176 409.717 219.241 410.191 218.273 410.588L214.073 412.443C214.477 412.875 214.974 413.209 215.526 413.42C216.303 413.682 217.126 413.784 217.944 413.721C218.762 413.659 219.559 413.431 220.287 413.053C220.777 412.716 221.343 412.506 221.935 412.443C222.105 412.416 222.278 412.428 222.443 412.479C222.607 412.53 222.757 412.617 222.882 412.735C223.007 412.853 223.103 412.998 223.164 413.159C223.224 413.32 223.246 413.493 223.229 413.664C223.229 414.604 222.533 415.373 221.154 415.971C219.997 416.489 218.746 416.763 217.479 416.777V416.777ZM217.15 406.229C216.415 406.216 215.704 406.492 215.172 406.998C214.544 407.644 214.091 408.438 213.854 409.306L216.649 408.085C217.572 407.68 218.466 407.211 219.323 406.681C218.65 406.345 217.901 406.189 217.15 406.229V406.229Z" fill="white"/>
<path d="M238.451 410.649C235.935 412.822 233.23 414.766 230.369 416.459C230.002 416.686 229.58 416.809 229.148 416.813C228.876 416.819 228.606 416.769 228.354 416.666C228.102 416.563 227.874 416.41 227.683 416.215C227.495 416.041 227.344 415.83 227.241 415.594C227.138 415.359 227.085 415.105 227.085 414.848C227.093 414.545 227.177 414.25 227.328 413.987C227.48 413.725 227.694 413.505 227.952 413.346C229.173 412.504 231.053 411.198 233.519 409.464C232.271 408.559 231.084 407.572 229.966 406.51C228.538 405.167 227.818 404.215 227.818 403.678C227.819 403.417 227.878 403.16 227.992 402.925C228.107 402.69 228.272 402.485 228.477 402.323C228.88 401.954 229.407 401.749 229.954 401.749C230.247 401.754 230.536 401.82 230.803 401.942C231.07 402.064 231.308 402.239 231.504 402.457C233.347 404.494 235.523 406.203 237.938 407.511C238.805 407.926 239.244 408.476 239.244 409.159C239.228 409.45 239.149 409.734 239.012 409.992C238.875 410.249 238.683 410.473 238.451 410.649V410.649Z" fill="white"/>
</g>
<defs>
<linearGradient id="paint0_linear_2_28" x1="321.329" y1="292" x2="321.329" y2="434.658" gradientUnits="userSpaceOnUse">
<stop stop-color="#CDCDCD"/>
<stop offset="1" stop-color="#575757"/>
</linearGradient>
<linearGradient id="paint1_linear_2_28" x1="322.009" y1="315.343" x2="129.319" y2="150.035" gradientUnits="userSpaceOnUse">
<stop offset="0.268048" stop-color="#BDBDBD"/>
<stop offset="0.859895" stop-color="#2C3737"/>
</linearGradient>
<linearGradient id="paint2_linear_2_28" x1="161.709" y1="791" x2="161.709" y2="912.418" gradientUnits="userSpaceOnUse">
<stop stop-color="#EFEFEF"/>
<stop offset="0.456943" stop-color="#4F5452"/>
</linearGradient>
<linearGradient id="paint3_linear_2_28" x1="173" y1="862.5" x2="222.152" y2="940.39" gradientUnits="userSpaceOnUse">
<stop stop-color="#BBBBBB"/>
<stop offset="0.63596" stop-color="#6D6D6D"/>
</linearGradient>
<linearGradient id="paint4_linear_2_28" x1="19.9117" y1="439.003" x2="248.083" y2="439.705" gradientUnits="userSpaceOnUse">
<stop stop-color="#252525"/>
<stop offset="1" stop-color="#6A6B6F"/>
</linearGradient>
<linearGradient id="paint5_linear_2_28" x1="377.172" y1="717.632" x2="481.834" y2="717.954" gradientUnits="userSpaceOnUse">
<stop stop-color="#252525"/>
<stop offset="1" stop-color="#6A6B6F"/>
</linearGradient>
<linearGradient id="paint6_linear_2_28" x1="541.644" y1="159.29" x2="371.079" y2="172.336" gradientUnits="userSpaceOnUse">
<stop offset="0.268048" stop-color="#C7C7C7"/>
<stop offset="0.859895" stop-color="#717171"/>
</linearGradient>
<linearGradient id="paint7_linear_2_28" x1="502.344" y1="120.314" x2="570.313" y2="188.282" gradientUnits="userSpaceOnUse">
<stop stop-color="#BA6FCD"/>
<stop offset="1" stop-color="#230E4D"/>
</linearGradient>
<linearGradient id="paint8_linear_2_28" x1="165.5" y1="791" x2="165.5" y2="985" gradientUnits="userSpaceOnUse">
<stop stop-color="#E4E4E4"/>
<stop offset="1" stop-color="#1B191D"/>
</linearGradient>
</defs>
</svg>
