<svg width="145" height="274" viewBox="0 0 145 274" fill="none" xmlns="http://www.w3.org/2000/svg">
<path d="M15.0986 39.7272C15.0986 39.7272 12.7897 31.9411 11.058 29.9122C9.32629 27.8833 5.84225 28.5424 3.84254 27.1418C1.84283 25.7411 2.28602 28.872 4.95574 29.5002C4.95574 29.5002 2.22418 28.9647 2.32726 31.6528C2.43034 34.3408 11.0683 40.9837 11.0683 40.9837L15.0986 39.7272Z" fill="#EF6E4B"/>
<path d="M83.0592 0.683346C100.242 -0.171477 103.675 14.5768 101.85 31.8792C100.026 49.1817 103.984 71.2217 106.365 79.7802C107.749 85.122 107.388 90.7657 105.334 95.8879C105.334 95.8879 107.458 89.4819 103.747 79.7802C103.747 79.7802 109.674 99.5132 93.738 103.18C77.8022 106.846 74.2666 101.192 69.5972 73.6728C64.9278 46.1537 58.1762 1.93983 83.0592 0.683346Z" fill="#BF00FF"/>
<path d="M83.0592 0.683346C100.242 -0.171477 103.675 14.5768 101.85 31.8792C100.026 49.1817 103.984 71.2217 106.365 79.7802C107.749 85.122 107.388 90.7657 105.334 95.8879C105.334 95.8879 107.458 89.4819 103.747 79.7802C103.747 79.7802 109.674 99.5132 93.738 103.18C77.8022 106.846 74.2666 101.192 69.5972 73.6728C64.9278 46.1537 58.1762 1.93983 83.0592 0.683346Z" fill="#594A62"/>
<path d="M128.053 65.7941C130.898 65.1865 138.042 73.848 138.176 79.6361L128.641 84.7856L128.053 65.7941Z" fill="#C13A54"/>
<path d="M132.319 93.9314C134.834 86.7221 135.648 66.4947 133.803 57.3697L129.278 57.792C129.278 57.792 126.299 79.7702 123.238 86.4955C120.177 93.2208 120.713 98.6793 125.021 101.388C129.33 104.097 131.773 95.4557 132.319 93.9314Z" fill="#FF8B66"/>
<path d="M112.075 253.567L104.973 255.235C104.973 255.235 93.8304 195.563 91.2638 189.26C89.0579 183.822 79.6469 163.018 76.5237 147.033C75.6954 147.009 74.8725 146.891 74.0704 146.683L73.0396 146.457L72.0089 146.24C71.7408 162.163 68.2774 181.803 67.2157 187.313C65.9375 193.987 66.6282 254.721 66.6282 254.721L59.3096 254.484C45.425 205.306 52.7539 186.829 52.7539 186.829C52.7539 186.829 40.0238 142.543 44.5077 126.95C45.8947 122.2 47.617 117.554 49.6616 113.047C49.8059 112.727 49.9399 112.408 50.1048 112.099C51.9515 107.959 54.0978 103.959 56.5265 100.132L71.4007 101.996L71.545 101.748L71.9779 101.831V106.496L73.8642 106.404H74.2868L80.4715 106.074H81.3168L86.718 105.786C86.718 105.786 89.965 110.935 94.5829 119.175C94.7478 119.494 94.9333 119.813 95.0983 120.132C96.7372 123.109 98.5411 126.446 100.427 130.081C107.89 144.5 105.344 185.985 105.344 185.985C105.344 185.985 116.126 202.638 112.075 253.567Z" fill="#A7CDC7"/>
<path d="M61.4236 101.841C61.4236 101.954 57.5376 111.11 49.6109 113.046C49.7552 112.727 49.8892 112.408 50.0541 112.099C57.1665 109.885 60.6403 101.645 60.6815 101.542L61.4236 101.841Z" fill="#006E4E"/>
<path d="M95.0977 120.112C86.2124 118.206 81.6976 108.917 80.471 106.043C80.2545 105.528 80.1514 105.219 80.1411 105.199L80.8936 104.931C80.8936 104.931 81.0379 105.353 81.3162 105.961C82.5841 108.906 86.7484 117.043 94.5824 119.113C94.7473 119.473 94.9328 119.792 95.0977 120.112Z" fill="#006E4E"/>
<path d="M74.0512 146.683L73.0205 146.457C70.4537 141.385 68.5815 135.992 67.4542 130.421C64.6814 118.124 70.9899 105.013 71.0517 104.89L71.7732 105.24C71.7113 105.363 65.5164 118.227 68.2273 130.246C68.3407 130.761 68.4644 131.276 68.5778 131.729L68.7633 132.501C69.8867 137.443 71.665 142.212 74.0512 146.683Z" fill="#006E4E"/>
<path d="M68.3291 132.542H68.2158V131.749C68.4691 131.743 68.7177 131.68 68.944 131.566C69.1703 131.452 69.3686 131.29 69.5248 131.09C70.0505 130.493 71.1741 128.588 70.267 123.881C69.0507 117.619 73.6892 106.64 73.885 106.177L74.6168 106.496C74.6168 106.599 69.8753 117.712 71.0504 123.737C71.9884 128.567 70.8751 130.72 70.1227 131.574C69.9088 131.853 69.6385 132.083 69.3294 132.25C69.0203 132.417 68.6795 132.516 68.3291 132.542Z" fill="#006E4E"/>
<path d="M86.718 105.713C81.5985 107.2 76.202 107.469 70.9596 106.5C65.7173 105.531 60.7746 103.35 56.5265 100.131C56.5265 100.131 53.8053 44.2175 58.9798 40.4686C61.2475 38.8311 65.7211 40.1493 70.0297 42.1474C73.8095 43.9655 77.4451 46.0692 80.9045 48.4401C80.9045 48.4401 90.5526 47.0806 98.1597 47.9148C103.004 48.4298 107.004 49.8511 107.189 53.0644C107.664 61.3242 86.718 105.713 86.718 105.713Z" fill="#FF8B66"/>
<path d="M98.5716 48.0387C95.3143 47.6988 94.7062 50.1706 91.4489 51.355C88.636 52.3866 85.7293 53.142 82.7698 53.6105C81.2855 53.7444 80.5021 55.5879 80.5021 55.5879C80.5021 55.5879 79.9763 53.0955 79.1723 52.8896C78.3683 52.6836 71.4724 45.6802 70.0293 42.1477C73.8091 43.9658 77.4447 46.0695 80.9041 48.4404C80.9041 48.4404 90.5522 47.0809 98.1593 47.9151L98.5716 48.0387Z" fill="#EF6E4B"/>
<path d="M55.981 260.683C56.4242 257.594 55.3007 255.472 56.0944 254.009C57.3313 251.744 58.6301 254.607 58.6301 254.607C58.7331 251.157 64.5261 251.157 65.1034 252.743C65.2506 253.141 65.4228 253.53 65.6188 253.906C65.9795 253.072 66.5877 252.269 67.3814 252.743C70.4738 254.597 66.629 259.375 69.443 262.856C73.0301 267.295 70.8242 274 70.8242 274H53.6514C51.6414 264.597 55.4965 263.711 55.981 260.683Z" fill="#444444"/>
<path d="M66.588 259.551C66.588 259.551 62.5267 257.419 57.1461 260.241L58.1768 258.294C59.3747 257.637 60.7008 257.248 62.0638 257.152C63.4268 257.056 64.7944 257.256 66.0726 257.738L66.588 259.551Z" fill="#ADBEC4"/>
<path d="M67.2973 262.774C63.605 261.643 59.6227 261.933 56.1339 263.588L57.1647 261.528C57.1647 261.528 62.3186 259.314 66.6067 260.972L67.2973 262.774Z" fill="#ADBEC4"/>
<path d="M116.531 258.812C116.078 255.723 117.201 253.601 116.408 252.138C115.181 249.873 113.882 252.736 113.882 252.736C113.779 249.286 107.986 249.286 107.409 250.872C107.244 251.294 107.069 251.675 106.894 252.035C106.533 251.201 105.925 250.398 105.131 250.872C102.039 252.726 105.883 257.504 103.069 260.985C99.4926 265.424 101.698 272.129 101.698 272.129H118.871C120.819 262.726 116.923 261.84 116.531 258.812Z" fill="#444444"/>
<path d="M104.624 259.551C104.624 259.551 108.685 257.419 114.066 260.241L113.035 258.294C111.839 257.638 110.515 257.249 109.154 257.153C107.792 257.057 106.426 257.256 105.15 257.738L104.624 259.551Z" fill="#ADBEC4"/>
<path d="M103.944 262.774C107.636 261.643 111.619 261.933 115.107 263.588L114.077 261.528C114.077 261.528 108.923 259.314 104.635 260.972L103.944 262.774Z" fill="#ADBEC4"/>
<path d="M79.6579 29.9533C79.6579 29.9533 80.8948 44.8767 76.7407 47.0086C76.7407 47.0086 79.8331 52.6731 88.0793 49.2229C88.0793 49.2229 86.6877 41.5501 92.1303 32.4354C95.7483 26.328 79.6579 29.9533 79.6579 29.9533Z" fill="#EF6E4B"/>
<path d="M99.6352 58.3377C93.0051 60.0804 86.0658 60.2987 79.3392 58.9762C68.0006 56.7928 62.9292 50.4383 62.9292 50.4383C62.9292 50.4383 48.3952 40.6644 56.528 100.131C56.528 100.131 66.8358 112.397 86.7195 105.713C86.7195 105.713 111.386 69.8623 99.6352 58.3377Z" fill="#E1D5EB"/>
<path d="M95.6968 22.7029C95.6968 22.7029 98.7891 19.1188 99.5003 22.9809C100.315 27.4713 96.3462 29.6032 95.4391 28.2231C94.532 26.8431 95.6968 22.7029 95.6968 22.7029Z" fill="#FF8B66"/>
<path d="M72.3067 24.7215C72.3067 24.7215 68.7093 21.6317 68.5856 25.5763C68.4619 30.1285 72.7087 31.6424 73.3993 30.1388C74.0899 28.6351 72.3067 24.7215 72.3067 24.7215Z" fill="#FF8B66"/>
<path d="M85.6067 39.9436C93.0386 39.3772 96.8525 34.207 95.7495 19.675C95.1723 12.1773 91.008 7.87233 82.6896 8.50057C74.3712 9.12881 71.217 14.0003 71.7942 21.498C73.0209 37.1114 77.9377 40.5204 85.6067 39.9436Z" fill="#FF8B66"/>
<path d="M77.1426 17.296C77.2076 17.3461 77.2873 17.3733 77.3693 17.3733C77.4514 17.3733 77.5312 17.3461 77.5961 17.296C78.4526 16.6911 79.5023 16.4234 80.5441 16.5442C80.6426 16.5578 80.7424 16.5319 80.8217 16.472C80.9009 16.4121 80.9531 16.3232 80.9668 16.2249C80.9805 16.1266 80.9544 16.0268 80.8945 15.9477C80.8346 15.8685 80.7457 15.8163 80.6473 15.8026C79.394 15.6567 78.1317 15.9876 77.1116 16.7296C77.077 16.764 77.0497 16.8049 77.0309 16.85C77.0122 16.8951 77.0025 16.9434 77.0025 16.9922C77.0025 17.041 77.0122 17.0893 77.0309 17.1344C77.0497 17.1794 77.077 17.2204 77.1116 17.2548L77.1426 17.296Z" fill="#0E3944"/>
<path d="M88.039 16.6884C88.1027 16.7089 88.1712 16.7089 88.2349 16.6884C89.2804 16.5948 90.3244 16.884 91.1725 17.5021C91.2063 17.5379 91.247 17.5665 91.2922 17.586C91.3374 17.6056 91.3861 17.6156 91.4354 17.6156C91.4846 17.6156 91.5334 17.6056 91.5786 17.586C91.6238 17.5665 91.6645 17.5379 91.6983 17.5021C91.7328 17.4676 91.7603 17.4267 91.779 17.3816C91.7978 17.3366 91.8074 17.2882 91.8074 17.2394C91.8074 17.1906 91.7978 17.1423 91.779 17.0973C91.7603 17.0522 91.7328 17.0113 91.6983 16.9768C90.7011 16.1978 89.4436 15.8293 88.1833 15.9469C88.0858 15.9598 87.997 16.0099 87.9355 16.0866C87.874 16.1634 87.8446 16.2609 87.8535 16.3589C87.854 16.425 87.8713 16.4899 87.9037 16.5475C87.9362 16.6052 87.9827 16.6536 88.039 16.6884V16.6884Z" fill="#0E3944"/>
<path d="M78.4096 22.5791C78.4818 23.506 78.9456 24.2166 79.4404 24.1754C79.9352 24.1342 80.3166 23.3618 80.2445 22.4452C80.1723 21.5286 79.6981 20.8076 79.2137 20.8385C78.7292 20.8694 78.3375 21.6625 78.4096 22.5791Z" fill="#1A4850"/>
<path d="M88.8823 21.735C88.9544 22.6516 89.4183 23.3726 89.913 23.3314C90.4078 23.2902 90.7892 22.5177 90.717 21.5908C90.6449 20.6639 90.1707 19.9533 89.6862 19.9945C89.2018 20.0357 88.8101 20.8081 88.8823 21.735Z" fill="#1A4850"/>
<path d="M88.0697 29.1606C88.0697 29.1606 83.493 30.1905 81.0192 29.0988C81.0192 29.0988 82.5447 34.2484 85.0392 33.754C87.5337 33.2596 88.0697 29.1606 88.0697 29.1606Z" fill="#1A4850"/>
<path d="M80.8756 21.9303C80.8756 21.9303 80.0201 19.716 79.1439 19.9426C78.2677 20.1692 77.7317 22.1775 77.7317 22.1775L76.3608 21.5801L77.6905 21.6522C77.6905 21.6522 78.2265 19.5924 79.1027 19.4997C80.3602 19.3967 80.8756 21.9303 80.8756 21.9303Z" fill="#1A4850"/>
<path d="M88.101 21.6626C88.101 21.6626 88.606 19.3453 89.5131 19.438C90.4202 19.5306 91.2345 21.4257 91.2345 21.4257L92.5024 20.6223L91.2036 20.9004C91.2036 20.9004 90.3584 18.923 89.4719 18.9848C88.2144 19.0363 88.101 21.6626 88.101 21.6626Z" fill="#1A4850"/>
<path d="M80.8755 8.7373C80.8755 8.7373 87.689 19.0364 96.43 21.2095C97.2038 19.0527 97.3746 16.7261 96.9242 14.4796C96.4738 12.2331 95.4192 10.1517 93.8737 8.45922C88.4827 2.38277 78.6181 6.34791 78.6181 6.34791C78.6181 6.34791 80.1127 17.3782 96.2548 22.1982C96.2548 22.1776 82.5557 16.441 80.8755 8.7373Z" fill="#BF00FF"/>
<path d="M80.8755 8.7373C80.8755 8.7373 87.689 19.0364 96.43 21.2095C97.2038 19.0527 97.3746 16.7261 96.9242 14.4796C96.4738 12.2331 95.4192 10.1517 93.8737 8.45922C88.4827 2.38277 78.6181 6.34791 78.6181 6.34791C78.6181 6.34791 80.1127 17.3782 96.2548 22.1982C96.2548 22.1776 82.5557 16.441 80.8755 8.7373Z" fill="#594A62"/>
<path d="M80.0075 8.84019C77.4718 9.71561 74.4516 14.0412 74.0084 18.6964C73.5651 23.3516 72.0911 24.5566 72.0911 24.5566C70.9558 23.5375 70.0989 22.2464 69.6012 20.8049C69.1035 19.3634 68.9813 17.819 69.2462 16.3173C69.9883 10.8073 78.2861 6.96575 79.6158 7.04814C80.9455 7.13054 80.0075 8.84019 80.0075 8.84019Z" fill="#594A62"/>
<path d="M17.3568 47.5237C14.4603 47.2971 8.54363 56.8443 9.18271 62.5912L19.3153 66.3813L17.3568 47.5237Z" fill="#C13A54"/>
<path d="M16.9451 75.9696C13.4713 69.1207 9.94612 49.192 10.5543 39.9229L15.1 39.7375C15.1 39.7375 21.0063 61.1081 24.9336 67.3596C28.8609 73.6111 29.0568 79.1005 25.181 82.3551C21.3053 85.6096 17.6769 77.4115 16.9451 75.9696Z" fill="#EF6E4B"/>
<path fill-rule="evenodd" clip-rule="evenodd" d="M53.3437 74.8845C46.9265 78.6814 29.8951 88.4536 25.0869 88.1524C15.3459 87.7945 9.1827 62.5911 9.1827 62.5911C15.4498 61.5097 17.3568 47.5235 17.3568 47.5235L22.1808 58.9349C22.1808 58.9349 23.4899 57.6784 26.8296 67.1021C27.2011 68.1503 27.4733 69.2259 27.6636 70.3096C37.0466 59.4203 55.2132 38.5577 56.9791 38.1927C57.3697 38.1121 57.727 38.0953 58.0529 38.1372C61.5044 36.3679 69.1436 41.7562 69.1436 41.7562C69.1436 41.7562 64.0927 97.5874 47.4972 118.144C47.4972 118.144 52.7439 103.952 54.0736 95.6615C54.4914 93.0562 54.1438 87.6265 53.7226 81.0475C53.5967 79.081 53.4643 77.0117 53.3437 74.8845Z" fill="#006E4E"/>
<path fill-rule="evenodd" clip-rule="evenodd" d="M86.0794 106.537C83.5437 94.7236 95.9331 46.844 95.9331 46.844C100.164 46.9643 105.909 49.3139 107.697 50.1073C107.876 50.1609 108.061 50.2366 108.253 50.3354C109.514 50.9956 117.105 66.7249 123.22 79.7351C124.227 77.3021 124.846 77.7616 124.846 77.7616L128.052 65.7941C128.052 65.7941 131.824 79.4095 138.174 79.6361C138.174 79.6361 135.682 103.361 127.005 106.777C126.712 106.937 126.399 107.058 126.065 107.135C121.57 108.165 103.954 89.6264 103.954 89.6264C103.954 89.6264 103.875 88.8445 103.757 87.5004C102.074 96.2591 100.836 104.51 101.809 110.338C104.282 125.158 104.571 146.714 104.571 146.714C104.571 146.714 88.6151 118.35 86.0794 106.537Z" fill="#006E4E"/>
<path d="M4.246 28.6558C3.30799 28.1821 1.02995 28.4807 0.236251 28.6558C-0.557449 28.8309 0.607332 32.5283 4.35937 34.7117C4.63413 34.42 4.8448 34.0742 4.97794 33.6965C5.11107 33.3187 5.16372 32.9173 5.13245 32.518C4.95722 31.2924 4.10167 31.3645 4.10167 31.3645C4.81891 31.3144 5.53873 31.3144 6.25597 31.3645C7.02905 31.4572 7.33829 31.0349 6.25597 30.5199C6.25597 30.5199 6.84356 30.3243 5.91586 29.7887C5.86432 29.7887 6.01894 29.5209 4.246 28.6558Z" fill="#EF6E4B"/>
<path d="M129.062 58.1728C129.062 58.1728 131.371 50.397 133.103 48.3681C134.835 46.3392 138.308 46.9983 140.318 45.5977C142.328 44.197 141.875 47.3279 139.205 47.9562C139.205 47.9562 141.937 47.4206 141.834 50.1087C141.731 52.7967 133.093 59.4396 133.093 59.4396L129.062 58.1728Z" fill="#EF6E4B"/>
<path d="M140.236 47.0501C141.144 46.6072 143.329 46.8853 144.071 47.0501C144.813 47.2149 143.731 50.7577 140.144 52.8484C139.888 52.573 139.691 52.2482 139.565 51.894C139.439 51.5398 139.387 51.1637 139.412 50.7886C139.577 49.6043 140.443 49.6763 140.443 49.6763C139.756 49.6262 139.067 49.6262 138.381 49.6763C137.639 49.769 137.35 49.3571 138.381 48.873C138.381 48.873 137.814 48.6773 138.701 48.1624C138.69 48.1315 138.567 47.874 140.236 47.0501Z" fill="#EF6E4B"/>
</svg>
