<svg width="190" height="124" viewBox="0 0 190 124" fill="none" xmlns="http://www.w3.org/2000/svg">
<path fill-rule="evenodd" clip-rule="evenodd" d="M0 61.861C0 95.9716 27.6701 123.722 61.6817 123.722C62.8613 123.722 63.8113 122.769 63.8113 121.578C63.8113 120.395 62.8613 119.442 61.6817 119.442C30.0135 119.442 4.25936 93.6054 4.25936 61.8531C4.25936 30.1008 30.0214 4.26382 61.6817 4.26382C83.9523 4.26382 104.41 17.3649 113.792 37.628C114.282 38.6999 115.549 39.1683 116.618 38.6681C117.687 38.1758 118.154 36.9054 117.655 35.8335C107.577 14.0698 85.607 0 61.6817 0C27.6701 0 0 27.7505 0 61.861ZM61.6814 113.421C33.3305 113.421 10.2681 90.2919 10.2681 61.8586C10.2681 33.4252 33.3305 10.2958 61.6814 10.2958C67.54 10.2958 73.2799 11.2724 78.7585 13.2098C79.8668 13.5988 80.4527 14.8216 80.0648 15.9332C79.6768 17.0448 78.4576 17.6324 77.3492 17.2433C72.3298 15.4727 67.065 14.5755 61.6893 14.5755C35.6898 14.5755 14.5433 35.7913 14.5433 61.8586C14.5433 87.9337 35.6977 109.142 61.6893 109.142C62.869 109.142 63.819 110.094 63.819 111.278C63.8111 112.461 62.861 113.421 61.6814 113.421ZM61.681 103.268C38.9196 103.268 20.3937 84.696 20.3937 61.8604C20.3937 48.7593 26.379 36.7142 36.8136 28.8059C37.7478 28.0913 39.0858 28.2819 39.7983 29.2188C40.5109 30.1637 40.3209 31.4976 39.3867 32.2122C30.0287 39.3027 24.661 50.1091 24.661 61.8525C24.661 82.3299 41.2709 98.9802 61.681 98.9802C62.8607 98.9802 63.8107 99.933 63.8107 101.116C63.8107 102.307 62.8607 103.268 61.681 103.268Z" fill="url(#paint0_linear_2_26)"/>
<path fill-rule="evenodd" clip-rule="evenodd" d="M79.1932 100.442H69.7482H69.7403V103.126H73.1288V115.616H75.8285V103.126H79.1932V100.442ZM90.2766 101.108C89.3583 100.711 88.3845 100.512 87.3394 100.512C86.2865 100.512 85.2968 100.711 84.3785 101.108C83.4601 101.505 82.6605 102.037 81.9796 102.728C81.2987 103.418 80.7604 104.22 80.3645 105.133C79.9687 106.047 79.7707 107.031 79.7707 108.071C79.7707 109.127 79.9766 110.12 80.3645 111.033C80.7524 111.946 81.2987 112.74 81.9796 113.423C82.6605 114.106 83.4601 114.638 84.3785 115.035C85.2968 115.432 86.2865 115.63 87.3394 115.63C88.3845 115.63 89.3583 115.432 90.2766 115.035C91.1871 114.638 91.9867 114.098 92.6755 113.423C93.3564 112.748 93.8947 111.946 94.2906 111.033C94.6864 110.12 94.8844 109.127 94.8844 108.071C94.8844 107.031 94.6864 106.047 94.2906 105.133C93.9026 104.212 93.3564 103.41 92.6755 102.728C91.9946 102.045 91.195 101.505 90.2766 101.108ZM91.8046 106.182C92.058 106.777 92.1847 107.412 92.1847 108.079C92.1847 108.762 92.0659 109.397 91.8046 109.985C91.5513 110.572 91.2029 111.089 90.7675 111.525C90.3241 111.97 89.8095 112.311 89.2158 112.565C88.622 112.819 87.9886 112.946 87.3236 112.946C86.6348 112.946 86.0014 112.819 85.4156 112.565C84.8297 112.311 84.3151 111.962 83.8797 111.525C83.4363 111.089 83.0959 110.572 82.8426 109.985C82.5892 109.397 82.4625 108.762 82.4625 108.079C82.4625 107.404 82.5892 106.777 82.8426 106.182C83.0959 105.586 83.4442 105.07 83.8797 104.633C84.3151 104.197 84.8297 103.847 85.4156 103.585C86.0014 103.323 86.6427 103.196 87.3236 103.196C87.9886 103.196 88.622 103.323 89.2158 103.585C89.8095 103.847 90.3321 104.197 90.7675 104.633C91.2029 105.07 91.5513 105.586 91.8046 106.182ZM109.482 100.49C109.514 101.784 109.538 103.11 109.545 104.468C109.561 105.826 109.569 107.152 109.569 108.446V108.716V109.288C109.569 109.47 109.553 109.653 109.522 109.836V109.812C109.45 110.717 109.245 111.535 108.92 112.249C108.595 112.964 108.152 113.575 107.606 114.068C107.052 114.568 106.41 114.949 105.666 115.219C104.922 115.489 104.098 115.624 103.196 115.624C102.333 115.624 101.533 115.481 100.797 115.195C100.061 114.909 99.4116 114.512 98.8574 113.996C98.3032 113.48 97.8519 112.869 97.5115 112.162C97.1711 111.455 96.9652 110.669 96.8861 109.804C96.8544 109.581 96.8386 109.343 96.8386 109.089V108.327V107.97V106.183C96.8386 105.603 96.8465 105.008 96.8623 104.397V103.491C96.8623 103.142 96.8623 102.777 96.8702 102.404L96.8712 102.357C96.8788 102.001 96.8861 101.659 96.8861 101.332V100.482H99.562V109.669C99.562 110.145 99.6649 110.582 99.8708 110.979C100.077 111.376 100.354 111.709 100.694 111.987C101.035 112.265 101.423 112.48 101.866 112.638C102.301 112.797 102.745 112.877 103.188 112.877C103.631 112.877 104.075 112.797 104.502 112.638C104.93 112.48 105.318 112.265 105.65 111.987C105.983 111.709 106.252 111.376 106.466 110.979C106.672 110.582 106.774 110.145 106.774 109.669V100.482H109.482V100.49ZM121.938 115.028C122.848 114.631 123.703 114.059 124.503 113.297L122.571 111.455C122.049 111.931 121.487 112.296 120.885 112.558C120.283 112.82 119.682 112.947 119.088 112.947C118.407 112.947 117.766 112.82 117.172 112.566C116.578 112.312 116.056 111.971 115.612 111.526C115.169 111.082 114.821 110.565 114.567 109.97C114.314 109.374 114.187 108.731 114.187 108.048C114.187 107.381 114.314 106.746 114.575 106.151C114.836 105.555 115.193 105.031 115.636 104.587C116.079 104.142 116.602 103.793 117.204 103.538C117.805 103.284 118.439 103.157 119.112 103.157C119.705 103.157 120.299 103.284 120.893 103.546C121.487 103.8 122.041 104.174 122.563 104.65L124.503 102.792C123.711 102.03 122.864 101.458 121.962 101.061C121.059 100.664 120.109 100.466 119.112 100.466C118.059 100.466 117.069 100.664 116.151 101.061C115.232 101.458 114.425 101.998 113.728 102.673C113.031 103.356 112.485 104.158 112.089 105.079C111.693 106 111.495 106.992 111.495 108.048C111.495 109.104 111.693 110.097 112.089 111.018C112.485 111.939 113.023 112.749 113.712 113.432C114.401 114.123 115.208 114.655 116.127 115.044C117.045 115.433 118.035 115.623 119.088 115.623C120.077 115.623 121.035 115.425 121.938 115.028ZM134.645 100.466H137.344V115.615H134.645V109.136H128.826V115.615H126.126V100.466H128.826V106.548H134.645V100.466ZM156.376 101.108C155.458 100.711 154.484 100.512 153.439 100.512C152.386 100.512 151.396 100.711 150.486 101.108C149.575 101.505 148.776 102.045 148.087 102.728C147.406 103.418 146.868 104.22 146.472 105.133C146.076 106.047 145.878 107.031 145.878 108.071C145.878 109.127 146.076 110.12 146.472 111.033C146.868 111.946 147.406 112.748 148.087 113.423C148.768 114.106 149.567 114.638 150.486 115.035C151.396 115.432 152.386 115.63 153.439 115.63C154.484 115.63 155.458 115.432 156.376 115.035C157.287 114.638 158.086 114.098 158.775 113.423C159.456 112.748 159.994 111.946 160.39 111.033C160.786 110.12 160.984 109.127 160.984 108.071C160.984 107.031 160.786 106.047 160.39 105.133C159.994 104.212 159.456 103.41 158.775 102.728C158.094 102.045 157.295 101.505 156.376 101.108ZM157.904 106.182C158.157 106.777 158.284 107.412 158.284 108.079C158.284 108.762 158.157 109.397 157.904 109.985C157.651 110.572 157.302 111.089 156.867 111.525C156.424 111.97 155.909 112.311 155.315 112.565C154.721 112.819 154.088 112.946 153.423 112.946C152.734 112.946 152.101 112.819 151.515 112.565C150.929 112.311 150.415 111.962 149.979 111.525C149.544 111.089 149.195 110.572 148.942 109.985C148.689 109.397 148.562 108.762 148.562 108.079C148.562 107.404 148.689 106.777 148.942 106.182C149.195 105.586 149.544 105.07 149.979 104.633C150.415 104.197 150.929 103.847 151.515 103.585C152.101 103.323 152.742 103.196 153.423 103.196C154.088 103.196 154.721 103.323 155.315 103.585C155.909 103.847 156.432 104.197 156.867 104.633C157.302 105.07 157.651 105.586 157.904 106.182ZM167.833 100.466C168.561 100.466 169.234 100.577 169.852 100.799C170.469 101.021 171 101.339 171.451 101.752C171.894 102.165 172.243 102.665 172.488 103.261C172.734 103.856 172.86 104.531 172.86 105.293C172.86 106.913 172.425 108.144 171.554 108.969C170.683 109.795 169.448 110.208 167.841 110.208H165.838V115.615H163.138V100.466H167.833ZM165.838 107.461H165.838C165.909 107.461 165.988 107.461 166.06 107.469C166.131 107.477 166.21 107.477 166.281 107.477H166.281C166.535 107.493 166.788 107.501 167.049 107.509C167.31 107.516 167.571 107.516 167.833 107.516H167.833C168.538 107.516 169.108 107.35 169.527 107.008C169.947 106.667 170.161 106.127 170.161 105.396C170.161 104.69 169.947 104.134 169.527 103.737C169.108 103.34 168.538 103.141 167.833 103.141H165.838V107.461ZM178.685 103.452C178.993 103.198 179.35 103.063 179.769 103.063C180.197 103.063 180.608 103.166 181.012 103.412C181.416 103.658 181.788 103.976 182.129 104.365L182.865 103.539C182.884 103.517 182.904 103.493 182.924 103.469C183.047 103.323 183.194 103.15 183.364 102.959C183.569 102.737 183.728 102.547 183.847 102.38C183.593 102.086 183.3 101.816 182.976 101.578C182.651 101.34 182.311 101.141 181.954 100.974C181.598 100.816 181.234 100.689 180.87 100.609C180.506 100.522 180.157 100.482 179.833 100.482C179.215 100.482 178.621 100.562 178.075 100.736C177.521 100.911 177.046 101.165 176.634 101.506C176.23 101.848 175.906 102.277 175.668 102.793C175.431 103.309 175.312 103.912 175.312 104.595C175.312 105.159 175.415 105.651 175.621 106.08C175.827 106.509 176.104 106.89 176.444 107.223C176.785 107.565 177.165 107.858 177.584 108.12C177.996 108.383 178.423 108.629 178.851 108.867C179.175 109.049 179.484 109.224 179.785 109.407C180.086 109.589 180.347 109.772 180.569 109.955C180.799 110.145 180.973 110.344 181.107 110.558C181.242 110.78 181.305 111.011 181.305 111.265C181.305 111.828 181.123 112.249 180.759 112.527C180.395 112.805 179.936 112.94 179.389 112.94C179.168 112.94 178.93 112.916 178.685 112.861C178.439 112.805 178.202 112.718 177.972 112.591C177.743 112.472 177.529 112.305 177.339 112.114C177.149 111.924 176.982 111.694 176.848 111.424C176.795 111.464 176.738 111.507 176.677 111.552C176.581 111.623 176.476 111.702 176.365 111.789C176.256 111.874 176.142 111.96 176.025 112.047C175.946 112.105 175.867 112.165 175.787 112.225L175.786 112.226C175.588 112.369 175.391 112.512 175.209 112.646C175.019 112.781 174.861 112.892 174.726 112.98C175.249 113.877 175.922 114.536 176.753 114.949C177.584 115.37 178.431 115.576 179.294 115.576C180.007 115.576 180.664 115.473 181.258 115.274C181.851 115.068 182.366 114.782 182.794 114.401C183.221 114.02 183.562 113.544 183.807 112.98C184.052 112.408 184.171 111.757 184.171 111.011C184.171 110.431 184.06 109.923 183.847 109.494C183.633 109.065 183.356 108.676 183.015 108.335C182.675 107.993 182.287 107.692 181.859 107.43C181.432 107.168 180.996 106.922 180.569 106.683C180.252 106.517 179.959 106.358 179.674 106.191C179.397 106.024 179.144 105.85 178.93 105.675C178.716 105.5 178.542 105.318 178.415 105.119C178.289 104.921 178.225 104.706 178.225 104.468C178.225 104.047 178.376 103.706 178.685 103.452Z" fill="#43268B"/>
<path fill-rule="evenodd" clip-rule="evenodd" d="M84.6958 42.0337C82.1861 39.5246 79.2252 37.5237 75.8762 36.0786C72.5194 34.6335 68.8934 33.8951 65.0853 33.8951C61.2218 33.8951 57.5641 34.6256 54.2073 36.0786C50.8663 37.5237 47.8974 39.5246 45.3877 42.0337C42.878 44.5427 40.8829 47.5123 39.442 50.863C38.0011 54.2217 37.2648 57.8582 37.2648 61.6774C37.2648 65.5522 37.9932 69.2125 39.442 72.5712C40.8829 75.9219 42.8859 78.8835 45.3956 81.3688C47.9053 83.854 50.8663 85.839 54.2152 87.2841C57.5641 88.7292 61.2218 89.4676 65.0932 89.4676C68.9093 89.4676 72.5353 88.7371 75.8921 87.2841C79.241 85.839 82.202 83.854 84.7117 81.3688C87.2214 78.8915 89.2244 75.9298 90.6653 72.5712C92.1062 69.2125 92.8425 65.5442 92.8425 61.6774C92.8425 57.8662 92.1062 54.2217 90.6653 50.863C89.2085 47.5123 87.2055 44.5427 84.6958 42.0337ZM65.0457 44.4157C67.405 44.4157 69.6614 44.8842 71.7515 45.7973C73.8495 46.7183 75.7021 47.9649 77.2459 49.5132C78.7897 51.0615 80.0248 52.9116 80.9194 55.0077C81.8061 57.1039 82.2574 59.3668 82.2574 61.725C82.2574 64.1388 81.8061 66.4097 80.9194 68.482C80.0248 70.5544 78.7897 72.3885 77.2459 73.9369C75.7021 75.4772 73.8574 76.7159 71.7594 77.6131C69.6693 78.5024 67.405 78.955 65.0457 78.955C62.631 78.955 60.3588 78.5024 58.2925 77.6131C56.2182 76.7238 54.3894 75.4852 52.8376 73.9369C51.2938 72.3885 50.0588 70.5544 49.1641 68.482C48.2774 66.4176 47.8262 64.1468 47.8262 61.725C47.8262 59.3668 48.2774 57.1039 49.1721 55.0077C50.0588 52.9116 51.2938 51.0615 52.8456 49.5132C54.3894 47.9649 56.2262 46.7183 58.3004 45.7973C60.3668 44.8762 62.631 44.4157 65.0457 44.4157ZM129.917 34.7055V63.4962L99.6268 34.1735V89.4602H110.03V59.5579L140.328 90.024V34.7055H129.917ZM165.441 61.7169L148.325 81.0986V89.0069H190V70.8083H180.658V79.2089H162.757L177.911 61.4549L162.393 44.5902H179.977V51.903H189.311V35.1495H148.253V42.8672L165.441 61.7169Z" fill="url(#paint1_linear_2_26)"/>
<defs>
<linearGradient id="paint0_linear_2_26" x1="-1.41899e-07" y1="45.7772" x2="58.9275" y2="123.722" gradientUnits="userSpaceOnUse">
<stop stop-color="#BB6BED"/>
<stop offset="1" stop-color="#42368B"/>
</linearGradient>
<linearGradient id="paint1_linear_2_26" x1="49.4888" y1="73.4085" x2="190.001" y2="76.2215" gradientUnits="userSpaceOnUse">
<stop stop-color="#BB6BED"/>
<stop offset="1" stop-color="#42368B"/>
</linearGradient>
</defs>
</svg>
