<svg width="615" height="985" viewBox="0 0 615 985" fill="none" xmlns="http://www.w3.org/2000/svg">
<path opacity="0.2" d="M388.235 380.608L400.96 378.7C402.205 373.116 402.769 367.402 402.641 361.683L390.517 357.364C390.261 354.831 389.841 352.316 389.262 349.837L399.324 341.845C397.592 336.391 395.215 331.164 392.243 326.273L379.595 328.554C378.111 326.486 376.495 324.515 374.758 322.654L379.473 310.701C375.246 306.839 370.568 303.502 365.54 300.763L355.759 309.081C354.055 308.321 352.298 307.621 350.495 307.013C349.872 306.793 349.248 306.61 348.624 306.42L346.723 293.707C341.139 292.453 335.423 291.886 329.701 292.019L325.374 304.147C322.841 304.397 320.329 304.813 317.851 305.394L309.85 295.342C304.392 297.069 299.16 299.443 294.266 302.413L296.593 315.065C294.523 316.545 292.552 318.158 290.691 319.894L278.735 315.179C274.87 319.406 271.53 324.083 268.787 329.109L277.092 338.925C276.332 340.629 275.624 342.378 275.016 344.18C274.803 344.803 274.62 345.434 274.43 346.058L261.706 347.951C260.458 353.534 259.891 359.248 260.017 364.968L272.148 369.287C272.406 371.82 272.822 374.334 273.396 376.814L263.402 384.806C265.128 390.264 267.505 395.495 270.483 400.385L283.131 398.104C284.613 400.17 286.227 402.138 287.961 403.997L283.177 415.92C287.404 419.784 292.082 423.123 297.11 425.865L306.922 417.57C308.633 418.33 310.383 419.037 312.193 419.653C312.816 419.866 313.44 420.041 314.064 420.231L315.958 432.959C321.545 434.207 327.263 434.771 332.987 434.64L337.315 422.52C339.843 422.26 342.353 421.84 344.829 421.265L352.83 431.256C358.289 429.526 363.521 427.149 368.415 424.177L366.08 411.57C368.147 410.084 370.118 408.469 371.982 406.734L383.93 411.449C387.798 407.225 391.139 402.547 393.879 397.519L385.558 387.733C386.319 386.03 387.018 384.281 387.634 382.471C387.863 381.833 388.045 381.232 388.235 380.608ZM361.858 363.325C361.86 369.361 360.071 375.262 356.718 380.281C353.364 385.3 348.598 389.212 343.02 391.522C337.443 393.833 331.305 394.438 325.384 393.26C319.462 392.083 314.023 389.177 309.754 384.909C305.485 380.641 302.578 375.204 301.401 369.284C300.223 363.364 300.828 357.228 303.139 351.653C305.45 346.077 309.364 341.311 314.384 337.959C319.405 334.607 325.307 332.818 331.344 332.82C335.351 332.82 339.319 333.609 343.021 335.142C346.724 336.675 350.087 338.922 352.921 341.755C355.754 344.587 358.002 347.95 359.536 351.651C361.069 355.353 361.858 359.319 361.858 363.325Z" fill="url(#paint0_linear_2_114)"/>
<path opacity="0.15" d="M300.565 245.175L328.305 241.014C331.019 228.841 332.25 216.384 331.97 203.916L305.539 194.5C304.981 188.977 304.067 183.495 302.803 178.089L324.74 160.667C320.963 148.778 315.781 137.381 309.303 126.719L281.729 131.692C278.492 127.183 274.97 122.886 271.183 118.828L281.463 92.7698C272.248 84.3507 262.048 77.0761 251.086 71.1042L229.763 89.239C226.049 87.5813 222.218 86.0562 218.289 84.7301C216.929 84.2494 215.569 83.8516 214.209 83.4372L210.064 55.7211C197.891 52.9878 185.429 51.752 172.955 52.0411L163.52 78.4808C158 79.0257 152.522 79.9338 147.122 81.1993L129.678 59.2851C117.779 63.0512 106.373 68.2267 95.703 74.7013L100.777 102.285C96.2636 105.51 91.9655 109.026 87.9098 112.811L61.8439 102.533C53.4187 111.747 46.1366 121.943 40.1557 132.902L58.2624 154.302C56.6043 158.015 55.0622 161.828 53.7357 165.756C53.2715 167.116 52.8735 168.492 52.459 169.851L24.7185 173.978C21.9992 186.151 20.7631 198.608 21.0374 211.077L47.4846 220.492C48.0459 226.014 48.9542 231.495 50.2039 236.903L28.4161 254.325C32.1788 266.226 37.3619 277.63 43.8533 288.291L71.428 283.318C74.6597 287.82 78.1766 292.111 81.957 296.164L71.5274 322.156C80.7425 330.581 90.9421 337.861 101.904 343.839L123.294 325.754C127.025 327.411 130.839 328.953 134.785 330.296C136.145 330.76 137.504 331.141 138.864 331.555L142.993 359.305C155.174 362.025 167.64 363.255 180.118 362.968L189.553 336.545C195.066 335.978 200.538 335.065 205.935 333.81L223.379 355.591C235.279 351.819 246.685 346.638 257.354 340.159L252.264 312.675C256.77 309.434 261.067 305.913 265.131 302.132L291.18 312.409C299.612 303.201 306.895 293.004 312.868 282.041L294.728 260.707C296.386 256.994 297.912 253.181 299.255 249.236C299.752 247.844 300.15 246.534 300.565 245.175ZM243.061 207.496C243.064 220.654 239.164 233.518 231.854 244.46C224.543 255.402 214.151 263.931 201.992 268.968C189.832 274.005 176.452 275.324 163.543 272.757C150.634 270.191 138.776 263.855 129.469 254.551C120.162 245.247 113.824 233.392 111.257 220.487C108.69 207.581 110.009 194.204 115.048 182.048C120.086 169.892 128.617 159.503 139.562 152.195C150.508 144.887 163.375 140.988 176.537 140.991C185.273 140.991 193.923 142.711 201.995 146.053C210.066 149.396 217.399 154.294 223.576 160.47C229.754 166.646 234.654 173.977 237.997 182.046C241.34 190.115 243.061 198.763 243.061 207.496Z" fill="url(#paint1_linear_2_114)"/>
<g opacity="0.2">
<path opacity="0.6" d="M517.536 340.201L515.976 340.435L515.516 341.944L515.511 341.959C515.303 342.642 515.122 343.237 514.897 343.865L514.891 343.883L514.885 343.9C514.241 345.793 513.506 347.629 512.703 349.427L512.061 350.866L513.082 352.066L521.034 361.419C518.591 365.668 515.735 369.666 512.508 373.356L501.092 368.852L499.625 368.273L498.471 369.347C496.515 371.168 494.445 372.863 492.275 374.424L490.988 375.35L491.277 376.909L493.506 388.946C489.259 391.395 484.785 393.427 480.146 395.014L472.502 385.468L471.517 384.239L469.984 384.595C467.385 385.2 464.75 385.64 462.096 385.912L460.527 386.074L459.997 387.559L455.861 399.143C450.961 399.143 446.073 398.661 441.268 397.703L439.457 385.534L439.225 383.972L437.713 383.511C437.484 383.441 437.271 383.377 437.067 383.317C436.603 383.178 436.188 383.055 435.751 382.906L435.749 382.905C433.861 382.263 432.023 381.521 430.208 380.714L428.775 380.078L427.579 381.09L418.198 389.021C413.95 386.578 409.951 383.725 406.259 380.503L410.826 369.122L411.417 367.648L410.334 366.486C408.515 364.536 406.823 362.471 405.267 360.304L404.347 359.021L402.793 359.302L390.701 361.482C388.246 357.237 386.212 352.762 384.628 348.121L394.176 340.487L395.405 339.504L395.051 337.971C394.449 335.367 394.012 332.727 393.741 330.068L393.581 328.496L392.093 327.966L380.5 323.839C380.505 318.944 380.989 314.061 381.947 309.261L394.111 307.451L395.674 307.218L396.135 305.707C396.189 305.53 396.24 305.36 396.29 305.195C396.445 304.68 396.586 304.212 396.748 303.737L396.751 303.729C397.384 301.854 398.125 300.02 398.931 298.216L399.571 296.781L398.556 295.582L390.615 286.196C393.061 281.947 395.918 277.947 399.143 274.254L410.568 278.758L412.036 279.337L413.19 278.26C415.141 276.441 417.207 274.75 419.378 273.199L420.67 272.275L420.383 270.712L418.159 258.624C422.405 256.178 426.878 254.148 431.515 252.564L439.161 262.17L440.147 263.408L441.687 263.047C444.283 262.438 446.916 262.002 449.569 261.74L451.146 261.584L451.678 260.092L455.815 248.5C460.713 248.5 465.598 248.984 470.4 249.947L472.218 262.102L472.452 263.664L473.962 264.124C474.085 264.162 474.205 264.198 474.323 264.234C474.888 264.405 475.391 264.557 475.899 264.737L475.916 264.743L475.933 264.748C477.816 265.384 479.659 266.117 481.456 266.919L482.894 267.561L484.094 266.54L493.442 258.591C497.691 261.033 501.69 263.885 505.383 267.107L500.877 278.526L500.298 279.995L501.375 281.149C503.197 283.102 504.892 285.17 506.45 287.339L507.37 288.622L508.924 288.342L521.014 286.161C523.464 290.405 525.497 294.875 527.085 299.509L517.473 307.143L516.233 308.128L516.593 309.67C517.201 312.271 517.64 314.908 517.909 317.565L518.068 319.138L519.558 319.669L531.143 323.796C531.141 328.691 530.658 333.575 529.702 338.376L517.536 340.201ZM485.6 343.705C489.533 337.818 491.631 330.897 491.629 323.817L455.838 288.035C448.757 288.034 441.834 290.131 435.946 294.063C430.057 297.995 425.467 303.585 422.756 310.125C420.046 316.665 419.336 323.862 420.717 330.806C422.098 337.75 425.508 344.128 430.515 349.134C435.523 354.14 441.902 357.548 448.848 358.929C455.793 360.31 462.992 359.6 469.533 356.89C476.075 354.18 481.666 349.592 485.6 343.705ZM491.629 323.817C491.629 319.118 490.704 314.465 488.905 310.124C487.106 305.783 484.47 301.838 481.146 298.515C477.822 295.193 473.877 292.557 469.534 290.759C465.192 288.961 460.538 288.035 455.838 288.035L491.629 323.817Z" stroke="#27C697" stroke-width="5"/>
<path opacity="0.2" d="M561.411 407.978L559.85 408.212L559.39 409.722C559.292 410.043 559.218 410.287 559.126 410.542L559.12 410.56L559.114 410.577C558.834 411.401 558.512 412.205 558.159 412.997L557.516 414.435L558.537 415.636L561.558 419.189C560.76 420.49 559.872 421.733 558.901 422.911L554.565 421.2L553.098 420.621L551.944 421.695C551.088 422.492 550.183 423.233 549.234 423.916L547.947 424.842L548.235 426.401L549.081 430.967C547.737 431.693 546.344 432.325 544.914 432.86L542.01 429.234L541.026 428.006L539.493 428.362C538.356 428.626 537.204 428.819 536.043 428.938L534.474 429.099L533.944 430.584L532.372 434.986C530.847 434.942 529.327 434.792 527.824 434.537L527.135 429.912L526.903 428.349L525.391 427.888C525.265 427.85 525.157 427.818 525.06 427.789C524.862 427.73 524.709 427.684 524.534 427.625L524.531 427.624C523.713 427.345 522.908 427.021 522.104 426.663L520.671 426.027L519.474 427.039L515.907 430.055C514.608 429.257 513.365 428.37 512.188 427.402L513.92 423.087L514.511 421.612L513.428 420.45C512.633 419.598 511.893 418.696 511.213 417.749L510.293 416.466L508.739 416.746L504.142 417.575C503.415 416.23 502.781 414.836 502.246 413.404L505.872 410.505L507.1 409.522L506.746 407.989C506.483 406.85 506.292 405.695 506.173 404.532L506.014 402.96L504.525 402.43L500.121 400.862C500.167 399.34 500.317 397.822 500.572 396.321L505.196 395.633L506.759 395.4L507.219 393.889C507.248 393.797 507.273 393.712 507.297 393.633C507.366 393.405 507.421 393.221 507.487 393.028L507.487 393.028L507.49 393.02C507.764 392.209 508.086 391.409 508.443 390.61L509.084 389.175L508.069 387.976L505.049 384.407C505.849 383.105 506.738 381.86 507.71 380.681L512.049 382.392L513.517 382.971L514.671 381.894C515.523 381.1 516.426 380.361 517.373 379.684L518.666 378.76L518.378 377.198L517.534 372.607C518.877 371.883 520.268 371.252 521.698 370.718L524.602 374.367L525.588 375.605L527.128 375.244C528.261 374.979 529.41 374.788 530.568 374.674L532.145 374.518L532.677 373.026L534.249 368.621C535.773 368.665 537.292 368.816 538.795 369.072L539.486 373.693L539.719 375.255L541.229 375.715C541.292 375.734 541.35 375.752 541.406 375.769C541.664 375.847 541.86 375.906 542.061 375.977L542.078 375.983L542.095 375.989C542.914 376.265 543.72 376.586 544.51 376.938L545.948 377.58L547.148 376.56L550.699 373.54C552 374.337 553.244 375.224 554.422 376.194L552.711 380.53L552.132 381.999L553.209 383.153C554.005 384.007 554.746 384.91 555.426 385.858L556.347 387.141L557.901 386.861L562.496 386.032C563.222 387.375 563.854 388.766 564.39 390.195L560.74 393.093L559.5 394.078L559.861 395.62C560.126 396.757 560.319 397.909 560.436 399.07L560.595 400.643L562.084 401.173L566.485 402.741C566.441 404.264 566.291 405.782 566.036 407.285L561.411 407.978ZM548.087 411.676C550.04 408.753 551.082 405.317 551.081 401.802L533.31 384.035C529.795 384.034 526.358 385.076 523.435 387.028C520.511 388.98 518.232 391.755 516.886 395.003C515.54 398.25 515.188 401.824 515.873 405.271C516.559 408.719 518.252 411.886 520.738 414.371C523.224 416.857 526.392 418.549 529.84 419.234C533.288 419.92 536.863 419.568 540.11 418.222C543.358 416.877 546.134 414.599 548.087 411.676ZM551.081 401.801C551.081 399.468 550.621 397.158 549.728 395.002C548.835 392.847 547.526 390.888 545.876 389.239C544.226 387.589 542.267 386.28 540.111 385.387C537.955 384.495 535.644 384.035 533.311 384.035L551.081 401.801Z" stroke="#006E4E" stroke-width="5"/>
</g>
<g opacity="0.2">
<path opacity="0.5" d="M219.772 863.943L218.211 864.177L217.751 865.686L217.75 865.692C217.586 866.229 217.447 866.683 217.277 867.16L217.271 867.178L217.265 867.196C216.768 868.654 216.201 870.071 215.581 871.46L214.939 872.899L215.959 874.099L221.911 881.099C220.132 884.147 218.076 887.025 215.771 889.697L207.226 886.326L205.76 885.748L204.606 886.822C203.096 888.226 201.5 889.534 199.826 890.738L198.539 891.664L198.827 893.223L200.496 902.23C197.426 903.973 194.205 905.436 190.872 906.6L185.15 899.456L184.166 898.227L182.633 898.584C180.628 899.05 178.595 899.389 176.548 899.6L174.979 899.761L174.449 901.246L171.353 909.917C167.825 909.894 164.307 909.546 160.842 908.88L159.487 899.771L159.255 898.208L157.743 897.747C157.556 897.69 157.385 897.64 157.225 897.592C156.868 897.485 156.56 897.394 156.23 897.281L156.227 897.28C154.773 896.786 153.356 896.213 151.951 895.589L150.519 894.953L149.322 895.965L142.299 901.902C139.253 900.123 136.375 898.07 133.701 895.768L137.118 887.253L137.71 885.779L136.626 884.617C135.223 883.113 133.918 881.52 132.718 879.849L131.797 878.566L130.243 878.846L121.192 880.479C119.444 877.409 117.98 874.187 116.817 870.853L123.963 865.139L125.191 864.156L124.837 862.623C124.373 860.614 124.035 858.578 123.827 856.527L123.667 854.954L122.178 854.424L113.502 851.336C113.529 847.811 113.877 844.297 114.544 840.837L123.65 839.482L125.212 839.249L125.673 837.738C125.716 837.596 125.757 837.46 125.797 837.33C125.917 836.931 126.023 836.579 126.146 836.219L126.149 836.21C126.636 834.768 127.207 833.354 127.83 831.958L128.471 830.524L127.456 829.324L121.511 822.298C123.293 819.25 125.349 816.37 127.654 813.695L136.205 817.066L137.673 817.645L138.827 816.568C140.331 815.165 141.925 813.861 143.599 812.665L144.891 811.741L144.604 810.179L142.94 801.132C146.008 799.391 149.228 797.93 152.56 796.767L158.282 803.956L159.268 805.195L160.808 804.833C162.81 804.365 164.84 804.028 166.886 803.826L168.462 803.67L168.995 802.178L172.091 793.501C175.617 793.525 179.134 793.874 182.596 794.544L183.957 803.643L184.19 805.204L185.7 805.664C185.799 805.695 185.894 805.723 185.987 805.751C186.427 805.885 186.805 805.999 187.188 806.135L187.205 806.141L187.222 806.147C188.673 806.636 190.095 807.202 191.482 807.821L192.921 808.463L194.121 807.443L201.117 801.492C204.165 803.271 207.044 805.324 209.718 807.626L206.346 816.172L205.767 817.641L206.844 818.795C208.249 820.301 209.557 821.896 210.758 823.569L211.679 824.852L213.232 824.572L222.282 822.94C224.026 826.007 225.489 829.225 226.655 832.555L219.462 838.268L218.222 839.252L218.582 840.794C219.051 842.8 219.39 844.834 219.597 846.884L219.756 848.457L221.246 848.987L229.917 852.076C229.892 855.601 229.544 859.116 228.879 862.577L219.772 863.943ZM195.396 867.525C198.525 862.843 200.194 857.337 200.193 851.706L171.722 823.242C166.089 823.241 160.583 824.91 155.899 828.037C151.214 831.165 147.563 835.611 145.407 840.814C143.251 846.016 142.686 851.742 143.785 857.265C144.883 862.789 147.596 867.862 151.579 871.844C155.562 875.826 160.637 878.538 166.161 879.636C171.686 880.734 177.412 880.17 182.616 878.014C187.82 875.859 192.268 872.208 195.396 867.525ZM200.193 851.705C200.193 847.967 199.456 844.266 198.026 840.813C196.595 837.36 194.497 834.222 191.854 831.579C189.21 828.936 186.071 826.839 182.617 825.409C179.163 823.978 175.461 823.242 171.722 823.242L200.193 851.705Z" stroke="url(#paint2_linear_2_114)" stroke-width="5"/>
<path opacity="0.5" d="M253.997 916.817L252.437 917.051L251.977 918.56C251.9 918.812 251.845 918.991 251.779 919.175L251.773 919.193L251.767 919.211C251.554 919.836 251.31 920.447 251.04 921.051L250.398 922.49L251.418 923.69L253.515 926.156C253.032 926.915 252.509 927.647 251.948 928.35L248.94 927.163L247.474 926.585L246.32 927.658C245.669 928.264 244.981 928.828 244.259 929.347L242.972 930.273L243.261 931.832L243.847 934.997C243.047 935.413 242.227 935.785 241.388 936.114L239.374 933.599L238.39 932.37L236.856 932.726C235.992 932.927 235.116 933.074 234.233 933.164L232.665 933.326L232.134 934.811L231.044 937.865C230.146 937.825 229.251 937.737 228.362 937.6L227.884 934.39L227.652 932.827L226.141 932.366C226.032 932.333 225.944 932.307 225.867 932.284C225.721 932.241 225.615 932.209 225.489 932.166L225.486 932.165C224.867 931.954 224.255 931.708 223.639 931.434L222.206 930.798L221.009 931.81L218.533 933.903C217.775 933.422 217.044 932.9 216.342 932.341L217.541 929.351L218.133 927.877L217.049 926.715C216.445 926.067 215.883 925.381 215.366 924.662L214.446 923.379L212.892 923.659L209.701 924.235C209.284 923.434 208.91 922.612 208.581 921.771L211.096 919.76L212.325 918.778L211.971 917.245C211.77 916.379 211.625 915.501 211.535 914.616L211.375 913.044L209.886 912.514L206.831 911.426C206.872 910.53 206.961 909.637 207.097 908.751L210.307 908.273L211.869 908.041L212.33 906.53C212.353 906.452 212.374 906.384 212.393 906.32C212.446 906.146 212.485 906.016 212.533 905.875L212.533 905.875L212.536 905.867C212.743 905.254 212.988 904.646 213.261 904.035L213.901 902.601L212.886 901.401L210.79 898.924C211.274 898.163 211.798 897.429 212.36 896.725L215.37 897.912L216.838 898.491L217.993 897.414C218.639 896.81 219.325 896.249 220.045 895.735L221.337 894.811L221.05 893.249L220.464 890.064C221.262 889.65 222.082 889.278 222.919 888.951L224.934 891.482L225.92 892.72L227.461 892.359C228.321 892.158 229.193 892.013 230.073 891.926L231.649 891.771L232.182 890.278L233.272 887.221C234.17 887.262 235.064 887.351 235.952 887.487L236.432 890.696L236.665 892.257L238.175 892.717C238.226 892.733 238.274 892.747 238.318 892.761C238.518 892.821 238.657 892.863 238.801 892.914L238.818 892.92L238.835 892.926C239.455 893.135 240.068 893.379 240.67 893.648L242.109 894.29L243.309 893.269L245.773 891.174C246.532 891.656 247.265 892.178 247.968 892.738L246.781 895.746L246.202 897.215L247.279 898.369C247.884 899.018 248.447 899.704 248.964 900.425L249.885 901.708L251.439 901.427L254.628 900.852C255.044 901.65 255.417 902.47 255.746 903.308L253.214 905.318L251.974 906.303L252.335 907.845C252.537 908.708 252.683 909.584 252.772 910.466L252.931 912.039L254.42 912.57L257.473 913.657C257.433 914.554 257.345 915.448 257.209 916.335L253.997 916.817ZM225.203 934.695C225.273 934.716 225.342 934.737 225.412 934.758L222.623 933.719C223.292 934.016 223.975 934.292 224.681 934.532C224.855 934.591 225.029 934.643 225.203 934.695ZM244.143 920.55C245.726 918.179 246.571 915.393 246.571 912.542L232.158 898.132C229.307 898.132 226.519 898.976 224.148 900.56C221.777 902.143 219.929 904.394 218.837 907.027C217.746 909.661 217.46 912.56 218.016 915.356C218.572 918.152 219.945 920.72 221.962 922.736C223.978 924.752 226.547 926.125 229.344 926.68C232.14 927.236 235.039 926.951 237.673 925.859C240.307 924.768 242.559 922.921 244.143 920.55ZM246.571 912.541C246.571 910.649 246.198 908.775 245.474 907.027C244.749 905.279 243.687 903.691 242.349 902.353C241.011 901.015 239.422 899.953 237.673 899.229C235.925 898.505 234.051 898.132 232.159 898.132L246.571 912.541Z" stroke="url(#paint3_linear_2_114)" stroke-width="5"/>
</g>
<g opacity="0.1">
<path d="M429.894 736.05L472.551 729.652C476.725 710.933 478.617 691.778 478.186 672.605L437.543 658.126C436.684 649.633 435.279 641.204 433.336 632.891L467.07 606.101C461.262 587.818 453.293 570.292 443.331 553.897L400.929 561.544C395.952 554.61 390.536 548.003 384.713 541.763L400.521 501.693C386.35 488.747 370.666 477.56 353.81 468.377L321.02 496.263C315.308 493.714 309.419 491.369 303.376 489.33C301.285 488.591 299.194 487.979 297.103 487.342L290.729 444.722C272.009 440.519 252.846 438.619 233.665 439.063L219.157 479.72C210.669 480.558 202.245 481.955 193.94 483.9L167.117 450.202C148.819 455.994 131.28 463.952 114.873 473.908L122.675 516.324C115.735 521.284 109.125 526.691 102.889 532.51L62.8068 516.707C49.851 530.875 38.6533 546.554 29.4562 563.405L57.2994 596.313C54.7496 602.022 52.3784 607.885 50.3386 613.926C49.6247 616.016 49.0127 618.132 48.3752 620.222L5.71799 626.569C1.53644 645.287 -0.364265 664.442 0.0574681 683.617L40.726 698.095C41.5892 706.586 42.9858 715.015 44.9076 723.33L11.4039 750.121C17.19 768.42 25.1601 785.956 35.142 802.35L77.5444 794.703C82.514 801.627 87.9219 808.225 93.7352 814.458L77.6974 854.427C91.8676 867.381 107.552 878.576 124.409 887.768L157.3 859.958C163.037 862.507 168.902 864.878 174.97 866.942C177.061 867.656 179.152 868.242 181.243 868.88L187.591 911.55C206.322 915.734 225.493 917.625 244.68 917.184L259.188 876.552C267.666 875.681 276.08 874.276 284.38 872.346L311.203 905.84C329.502 900.04 347.041 892.073 363.448 882.109L355.62 839.846C362.549 834.863 369.158 829.448 375.406 823.634L415.463 839.438C428.429 825.279 439.627 809.598 448.813 792.74L420.919 759.934C423.469 754.225 425.815 748.362 427.88 742.295C428.645 740.154 429.257 738.14 429.894 736.05ZM341.469 678.111C341.474 698.344 335.477 718.125 324.235 734.951C312.994 751.777 297.014 764.892 278.316 772.637C259.618 780.382 239.043 782.41 219.192 778.464C199.341 774.518 181.107 764.775 166.795 750.468C152.484 736.16 142.738 717.931 138.791 698.086C134.844 678.241 136.872 657.671 144.62 638.979C152.367 620.286 165.486 604.311 182.317 593.073C199.147 581.834 218.934 575.839 239.173 575.844C252.607 575.844 265.909 578.489 278.32 583.628C290.731 588.768 302.008 596.301 311.507 605.797C321.006 615.294 328.541 626.567 333.682 638.975C338.823 651.382 341.469 664.681 341.469 678.111Z" fill="url(#paint4_linear_2_114)"/>
<path d="M429.894 736.05L472.551 729.652C476.725 710.933 478.617 691.778 478.186 672.605L437.543 658.126C436.684 649.633 435.279 641.204 433.336 632.891L467.07 606.101C461.262 587.818 453.293 570.292 443.331 553.897L400.929 561.544C395.952 554.61 390.536 548.003 384.713 541.763L400.521 501.693C386.35 488.747 370.666 477.56 353.81 468.377L321.02 496.263C315.308 493.714 309.419 491.369 303.376 489.33C301.285 488.591 299.194 487.979 297.103 487.342L290.729 444.722C272.009 440.519 252.846 438.619 233.665 439.063L219.157 479.72C210.669 480.558 202.245 481.955 193.94 483.9L167.117 450.202C148.819 455.994 131.28 463.952 114.873 473.908L122.675 516.324C115.735 521.284 109.125 526.691 102.889 532.51L62.8068 516.707C49.851 530.875 38.6533 546.554 29.4562 563.405L57.2994 596.313C54.7496 602.022 52.3784 607.885 50.3386 613.926C49.6247 616.016 49.0127 618.132 48.3752 620.222L5.71799 626.569C1.53644 645.287 -0.364265 664.442 0.0574681 683.617L40.726 698.095C41.5892 706.586 42.9858 715.015 44.9076 723.33L11.4039 750.121C17.19 768.42 25.1601 785.956 35.142 802.35L77.5444 794.703C82.514 801.627 87.9219 808.225 93.7352 814.458L77.6974 854.427C91.8676 867.381 107.552 878.576 124.409 887.768L157.3 859.958C163.037 862.507 168.902 864.878 174.97 866.942C177.061 867.656 179.152 868.242 181.243 868.88L187.591 911.55C206.322 915.734 225.493 917.625 244.68 917.184L259.188 876.552C267.666 875.681 276.08 874.276 284.38 872.346L311.203 905.84C329.502 900.04 347.041 892.073 363.448 882.109L355.62 839.846C362.549 834.863 369.158 829.448 375.406 823.634L415.463 839.438C428.429 825.279 439.627 809.598 448.813 792.74L420.919 759.934C423.469 754.225 425.815 748.362 427.88 742.295C428.645 740.154 429.257 738.14 429.894 736.05ZM341.469 678.111C341.474 698.344 335.477 718.125 324.235 734.951C312.994 751.777 297.014 764.892 278.316 772.637C259.618 780.382 239.043 782.41 219.192 778.464C199.341 774.518 181.107 764.775 166.795 750.468C152.484 736.16 142.738 717.931 138.791 698.086C134.844 678.241 136.872 657.671 144.62 638.979C152.367 620.286 165.486 604.311 182.317 593.073C199.147 581.834 218.934 575.839 239.173 575.844C252.607 575.844 265.909 578.489 278.32 583.628C290.731 588.768 302.008 596.301 311.507 605.797C321.006 615.294 328.541 626.567 333.682 638.975C338.823 651.382 341.469 664.681 341.469 678.111Z" fill="black" fill-opacity="0.2"/>
</g>
<g opacity="0.2">
<path d="M575.23 853.886L594.796 850.951C596.711 842.365 597.579 833.579 597.381 824.784L578.738 818.143C578.344 814.247 577.7 810.38 576.809 806.567L592.282 794.279C589.618 785.892 585.962 777.854 581.393 770.333L561.943 773.841C559.661 770.66 557.176 767.63 554.505 764.767L561.756 746.387C555.256 740.449 548.062 735.318 540.33 731.105L525.289 743.897C522.67 742.728 519.968 741.652 517.196 740.716C516.237 740.377 515.278 740.097 514.319 739.804L511.395 720.255C502.809 718.327 494.018 717.455 485.22 717.659L478.566 736.309C474.672 736.693 470.808 737.333 466.999 738.226L454.695 722.769C446.302 725.425 438.257 729.076 430.731 733.643L434.31 753.099C431.126 755.374 428.094 757.854 425.234 760.523L406.848 753.274C400.906 759.773 395.769 766.965 391.55 774.694L404.322 789.789C403.152 792.408 402.065 795.097 401.129 797.868C400.802 798.827 400.521 799.797 400.229 800.756L380.662 803.668C378.744 812.253 377.872 821.04 378.065 829.835L396.72 836.476C397.116 840.371 397.756 844.237 398.638 848.051L383.27 860.34C385.924 868.734 389.58 876.778 394.159 884.297L413.608 880.79C415.888 883.966 418.368 886.992 421.035 889.851L413.679 908.185C420.178 914.127 427.373 919.262 435.105 923.478L450.192 910.722C452.824 911.891 455.514 912.979 458.297 913.926C459.256 914.253 460.215 914.522 461.174 914.814L464.086 934.387C472.678 936.306 481.472 937.174 490.273 936.971L496.928 918.334C500.816 917.934 504.676 917.289 508.483 916.404L520.787 931.768C529.18 929.107 537.225 925.453 544.751 920.883L541.16 901.497C544.339 899.211 547.37 896.727 550.236 894.06L568.61 901.31C574.557 894.815 579.694 887.622 583.908 879.889L571.113 864.842C572.282 862.222 573.358 859.533 574.306 856.751C574.657 855.768 574.937 854.845 575.23 853.886ZM534.669 827.309C534.672 836.59 531.921 845.664 526.764 853.382C521.608 861.1 514.278 867.115 505.701 870.668C497.125 874.221 487.687 875.151 478.581 873.341C469.476 871.531 461.112 867.062 454.547 860.499C447.983 853.937 443.512 845.575 441.702 836.472C439.891 827.369 440.822 817.934 444.375 809.36C447.929 800.786 453.947 793.458 461.667 788.303C469.387 783.148 478.463 780.398 487.747 780.4C493.909 780.4 500.01 781.613 505.703 783.971C511.396 786.328 516.569 789.784 520.926 794.139C525.283 798.495 528.74 803.667 531.098 809.358C533.456 815.049 534.669 821.149 534.669 827.309Z" fill="url(#paint5_linear_2_114)"/>
<path d="M575.23 853.886L594.796 850.951C596.711 842.365 597.579 833.579 597.381 824.784L578.738 818.143C578.344 814.247 577.7 810.38 576.809 806.567L592.282 794.279C589.618 785.892 585.962 777.854 581.393 770.333L561.943 773.841C559.661 770.66 557.176 767.63 554.505 764.767L561.756 746.387C555.256 740.449 548.062 735.318 540.33 731.105L525.289 743.897C522.67 742.728 519.968 741.652 517.196 740.716C516.237 740.377 515.278 740.097 514.319 739.804L511.395 720.255C502.809 718.327 494.018 717.455 485.22 717.659L478.566 736.309C474.672 736.693 470.808 737.333 466.999 738.226L454.695 722.769C446.302 725.425 438.257 729.076 430.731 733.643L434.31 753.099C431.126 755.374 428.094 757.854 425.234 760.523L406.848 753.274C400.906 759.773 395.769 766.965 391.55 774.694L404.322 789.789C403.152 792.408 402.065 795.097 401.129 797.868C400.802 798.827 400.521 799.797 400.229 800.756L380.662 803.668C378.744 812.253 377.872 821.04 378.065 829.835L396.72 836.476C397.116 840.371 397.756 844.237 398.638 848.051L383.27 860.34C385.924 868.734 389.58 876.778 394.159 884.297L413.608 880.79C415.888 883.966 418.368 886.992 421.035 889.851L413.679 908.185C420.178 914.127 427.373 919.262 435.105 923.478L450.192 910.722C452.824 911.891 455.514 912.979 458.297 913.926C459.256 914.253 460.215 914.522 461.174 914.814L464.086 934.387C472.678 936.306 481.472 937.174 490.273 936.971L496.928 918.334C500.816 917.934 504.676 917.289 508.483 916.404L520.787 931.768C529.18 929.107 537.225 925.453 544.751 920.883L541.16 901.497C544.339 899.211 547.37 896.727 550.236 894.06L568.61 901.31C574.557 894.815 579.694 887.622 583.908 879.889L571.113 864.842C572.282 862.222 573.358 859.533 574.306 856.751C574.657 855.768 574.937 854.845 575.23 853.886ZM534.669 827.309C534.672 836.59 531.921 845.664 526.764 853.382C521.608 861.1 514.278 867.115 505.701 870.668C497.125 874.221 487.687 875.151 478.581 873.341C469.476 871.531 461.112 867.062 454.547 860.499C447.983 853.937 443.512 845.575 441.702 836.472C439.891 827.369 440.822 817.934 444.375 809.36C447.929 800.786 453.947 793.458 461.667 788.303C469.387 783.148 478.463 780.398 487.747 780.4C493.909 780.4 500.01 781.613 505.703 783.971C511.396 786.328 516.569 789.784 520.926 794.139C525.283 798.495 528.74 803.667 531.098 809.358C533.456 815.049 534.669 821.149 534.669 827.309Z" fill="black" fill-opacity="0.2"/>
</g>
<g opacity="0.2">
<path opacity="0.2" d="M503.232 140.84L514.466 125.641C509.959 118.549 504.611 112.028 498.537 106.22L481.458 114.327C478.561 111.962 475.514 109.785 472.336 107.812L474.487 89.0596C467.023 85.1943 459.124 82.2335 450.958 80.2399L440.189 95.7469C436.499 95.1406 432.774 94.7718 429.036 94.6427L421.519 77.3295C413.117 77.7089 404.792 79.1025 396.724 81.4799L395.205 100.279C392.645 101.259 390.094 102.357 387.59 103.598C386.713 104.017 385.876 104.475 385.03 104.925L369.85 93.6953C362.748 98.193 356.222 103.542 350.417 109.622L358.519 126.714C356.148 129.604 353.971 132.646 352.001 135.822L333.249 133.692C329.374 141.156 326.406 149.056 324.407 157.224L339.966 167.949C339.353 171.636 338.98 175.359 338.851 179.094L321.536 186.616C321.911 195.02 323.3 203.348 325.671 211.418L344.494 212.987C345.473 215.547 346.555 218.098 347.795 220.601C348.221 221.47 348.687 222.315 349.137 223.16L337.887 238.344C342.391 245.439 347.737 251.962 353.808 257.773L370.895 249.658C373.793 252.021 376.837 254.2 380.009 256.181L377.929 274.862C385.391 278.739 393.294 281.703 401.466 283.69L412.235 268.183C415.92 268.788 419.64 269.157 423.372 269.287L430.786 286.64C439.19 286.263 447.518 284.872 455.589 282.497L457.164 263.69C459.731 262.702 462.283 261.62 464.803 260.379C465.671 259.953 466.501 259.486 467.346 259.036L482.534 270.29C489.634 265.782 496.159 260.429 501.968 254.347L493.874 237.263C496.23 234.366 498.402 231.324 500.376 228.155L519.064 230.222C522.937 222.755 525.902 214.852 527.898 206.682L512.379 196.013C512.982 192.322 513.352 188.597 513.486 184.859L530.793 177.345C530.424 168.941 529.035 160.612 526.658 152.543L507.851 151.021C506.872 148.462 505.782 145.919 504.543 143.399C504.116 142.499 503.682 141.686 503.232 140.84ZM457.883 150.286C464.154 156.553 468.424 164.54 470.154 173.237C471.885 181.933 470.997 190.947 467.604 199.14C464.21 207.333 458.463 214.337 451.09 219.264C443.717 224.192 435.049 226.823 426.182 226.824C417.315 226.826 408.647 224.197 401.276 219.272C393.904 214.346 388.159 207.344 384.768 199.152C381.377 190.96 380.492 181.946 382.225 173.249C383.957 164.552 388.23 156.564 394.503 150.295C398.665 146.133 403.606 142.831 409.044 140.578C414.481 138.325 420.309 137.165 426.195 137.164C432.08 137.163 437.908 138.322 443.345 140.573C448.782 142.824 453.722 146.125 457.883 150.286Z" fill="url(#paint6_linear_2_114)"/>
<path opacity="0.2" d="M581.673 135.418L586.826 128.447C584.759 125.193 582.306 122.202 579.52 119.538L571.686 123.257C570.357 122.172 568.959 121.174 567.502 120.268L568.488 111.667C565.064 109.894 561.441 108.536 557.695 107.621L552.756 114.734C551.063 114.456 549.355 114.287 547.64 114.228L544.192 106.286C540.338 106.46 536.519 107.099 532.819 108.19L532.122 116.813C530.948 117.263 529.777 117.766 528.629 118.335C528.227 118.527 527.843 118.738 527.455 118.944L520.492 113.793C517.234 115.856 514.241 118.31 511.578 121.099L515.294 128.939C514.207 130.264 513.208 131.66 512.304 133.117L503.703 132.14C501.926 135.563 500.564 139.187 499.647 142.934L506.784 147.853C506.503 149.544 506.332 151.252 506.273 152.965L498.33 156.416C498.502 160.27 499.139 164.09 500.227 167.792L508.861 168.512C509.31 169.686 509.806 170.856 510.375 172.004C510.571 172.403 510.784 172.791 510.991 173.178L505.83 180.143C507.896 183.397 510.348 186.39 513.133 189.055L520.971 185.333C522.3 186.417 523.697 187.416 525.152 188.325L524.197 196.894C527.62 198.672 531.245 200.032 534.994 200.943L539.933 193.83C541.624 194.108 543.33 194.277 545.042 194.336L548.443 202.296C552.298 202.123 556.118 201.485 559.82 200.396L560.542 191.769C561.72 191.316 562.89 190.819 564.046 190.25C564.445 190.055 564.825 189.841 565.213 189.634L572.179 194.796C575.436 192.729 578.429 190.273 581.093 187.483L577.381 179.647C578.462 178.318 579.458 176.923 580.363 175.469L588.935 176.417C590.712 172.992 592.072 169.367 592.988 165.62L585.869 160.726C586.145 159.033 586.315 157.324 586.377 155.61L594.316 152.163C594.146 148.308 593.509 144.488 592.419 140.786L583.792 140.088C583.343 138.915 582.843 137.748 582.275 136.592C582.079 136.179 581.88 135.806 581.673 135.418ZM560.872 139.751C563.748 142.626 565.707 146.289 566.501 150.278C567.295 154.267 566.887 158.402 565.331 162.16C563.774 165.918 561.138 169.131 557.756 171.391C554.374 173.651 550.398 174.858 546.331 174.859C542.264 174.859 538.288 173.654 534.906 171.394C531.525 169.135 528.89 165.923 527.335 162.166C525.779 158.408 525.373 154.273 526.168 150.284C526.963 146.295 528.923 142.631 531.8 139.755C533.709 137.846 535.975 136.331 538.47 135.298C540.964 134.264 543.637 133.732 546.337 133.732C549.036 133.732 551.709 134.263 554.203 135.296C556.697 136.328 558.963 137.842 560.872 139.751Z" fill="url(#paint7_linear_2_114)"/>
</g>
<path opacity="0.2" d="M274.541 984.999C287.544 985.071 300.068 980.077 309.479 971.069C318.89 962.06 324.453 949.739 325 936.697C325 936.003 325 935.271 325 934.577C325.005 925.844 323.297 917.196 319.972 909.126C316.648 901.056 311.773 893.723 305.625 887.545C299.478 881.366 292.178 876.464 284.143 873.117C276.108 869.771 267.496 868.046 258.797 868.041H256.877C256.877 862.561 255.364 857.189 252.507 852.52C249.65 847.852 245.559 844.069 240.69 841.593C235.821 839.117 230.363 838.045 224.923 838.494C219.483 838.944 214.274 840.898 209.874 844.14C204.442 827.212 193.314 812.707 178.397 803.111C163.481 793.516 145.704 789.427 128.113 791.546C110.523 793.665 94.2144 801.86 81.9826 814.726C69.7508 827.591 62.3575 844.328 61.0697 862.065C45.809 864.739 32.1096 873.08 22.6952 885.43C13.2808 897.78 8.84118 913.234 10.259 928.72C11.6768 944.206 18.8481 958.589 30.3472 969.009C41.8463 979.43 56.8308 985.124 72.3212 984.961L274.541 984.999Z" fill="url(#paint8_linear_2_114)"/>
<g opacity="0.05">
<path d="M174.303 406.059C173.4 406.95 171.984 408.232 170.092 409.904C170.885 410.685 172.13 411.821 173.827 413.298C174.056 413.446 174.247 413.645 174.384 413.88C174.522 414.114 174.603 414.378 174.621 414.65C174.639 414.921 174.593 415.193 174.487 415.444C174.381 415.695 174.218 415.917 174.01 416.093C173.619 416.475 173.092 416.686 172.545 416.679C171.69 416.565 170.899 416.165 170.299 415.544L168.468 413.75C167.663 412.917 166.689 412.268 165.611 411.845C164.537 411.467 164 410.869 164 410.063C164 409.257 164.476 408.744 165.441 408.317C166.638 407.732 167.724 406.943 168.651 405.985C170.25 404.423 171.215 403.544 171.557 403.275C171.943 402.96 172.425 402.783 172.924 402.775C173.196 402.771 173.467 402.82 173.721 402.921C173.974 403.021 174.205 403.171 174.401 403.361C174.597 403.529 174.753 403.739 174.858 403.974C174.963 404.21 175.014 404.466 175.008 404.724C175.002 404.982 174.939 405.236 174.824 405.467C174.708 405.697 174.543 405.9 174.34 406.059H174.303Z" fill="white"/>
<path d="M185.559 416.997C183.89 417.05 182.259 416.494 180.969 415.434C180.332 414.913 179.825 414.252 179.486 413.502C179.147 412.753 178.986 411.935 179.016 411.113C179.079 409.274 179.692 407.497 180.774 406.01C182.092 403.992 183.63 402.986 185.388 402.995C186.432 403.033 187.46 403.269 188.416 403.69C189.82 404.264 190.515 404.911 190.515 405.668C190.514 406.071 190.361 406.458 190.088 406.755C189.947 406.919 189.77 407.049 189.572 407.136C189.373 407.223 189.157 407.263 188.941 407.255C188.458 407.21 188.004 407.008 187.647 406.681C186.976 406.249 186.183 406.048 185.388 406.108C184.753 406.108 184.058 406.73 183.313 407.975C182.695 408.912 182.329 409.993 182.251 411.113C182.231 411.505 182.306 411.896 182.47 412.253C182.633 412.61 182.881 412.923 183.191 413.164C183.874 413.667 184.711 413.917 185.559 413.872C186.279 413.824 186.978 413.607 187.598 413.237C188.069 412.945 188.585 412.731 189.124 412.602C189.548 412.608 189.954 412.778 190.256 413.076C190.559 413.374 190.735 413.777 190.747 414.201C190.747 414.848 190.051 415.495 188.635 416.142C187.677 416.629 186.631 416.92 185.559 416.997V416.997Z" fill="white"/>
<path d="M197.994 416.948C197.262 416.961 196.535 416.827 195.856 416.555C195.177 416.282 194.559 415.876 194.039 415.361C193.428 414.762 192.944 414.045 192.617 413.254C192.289 412.463 192.125 411.615 192.135 410.759C192.068 409.006 192.602 407.283 193.648 405.876C194.248 405.055 195.041 404.395 195.956 403.954C196.872 403.514 197.882 403.305 198.898 403.349C199.67 403.325 200.437 403.495 201.127 403.843C201.818 404.19 202.411 404.704 202.853 405.338C203.766 406.631 204.229 408.188 204.171 409.77C204.214 411.523 203.673 413.241 202.633 414.653C202.107 415.386 201.408 415.978 200.6 416.378C199.791 416.778 198.896 416.974 197.994 416.948V416.948ZM198.739 406.596C198.242 406.584 197.752 406.708 197.321 406.956C196.891 407.203 196.537 407.564 196.297 408C195.781 408.826 195.518 409.785 195.541 410.759C195.515 411.178 195.577 411.598 195.725 411.991C195.872 412.384 196.1 412.742 196.395 413.041C196.6 413.247 196.843 413.409 197.112 413.518C197.38 413.627 197.668 413.681 197.958 413.676C198.655 413.684 199.329 413.422 199.838 412.944C200.145 412.638 200.388 412.275 200.554 411.875C200.719 411.474 200.804 411.045 200.802 410.612C200.949 407.951 200.204 406.608 198.739 406.547V406.596Z" fill="white"/>
<path d="M215.368 403.715C215.466 400.895 215.6 398.942 215.746 397.867C215.776 397.557 215.894 397.262 216.086 397.017C216.278 396.772 216.535 396.586 216.829 396.482C217.123 396.378 217.44 396.361 217.743 396.431C218.047 396.501 218.324 396.656 218.542 396.878C218.691 397.031 218.809 397.213 218.886 397.412C218.964 397.612 219 397.824 218.994 398.038C218.994 399.259 218.896 401.066 218.713 403.458C218.53 405.851 218.432 407.67 218.432 408.891C218.379 410.877 218.473 412.864 218.713 414.836C218.729 414.957 218.729 415.081 218.713 415.202C218.718 415.417 218.676 415.63 218.59 415.826C218.503 416.022 218.374 416.197 218.212 416.338C217.895 416.625 217.481 416.782 217.053 416.777C216.77 416.787 216.491 416.715 216.248 416.57C216.005 416.425 215.81 416.213 215.685 415.959C215.15 416.288 214.558 416.516 213.94 416.63C213.318 416.729 212.689 416.778 212.06 416.777C211.209 416.805 210.362 416.663 209.568 416.359C208.773 416.055 208.047 415.595 207.433 415.007C206.811 414.412 206.322 413.692 205.998 412.895C205.674 412.097 205.522 411.24 205.553 410.38C205.463 408.405 206.141 406.471 207.445 404.984C208.063 404.31 208.819 403.776 209.661 403.42C210.504 403.064 211.414 402.894 212.328 402.921C212.891 402.918 213.453 402.984 214.001 403.117C214.489 403.23 214.953 403.433 215.368 403.715V403.715ZM215.112 407.633C214.887 407.13 214.517 406.705 214.049 406.413C213.568 406.148 213.024 406.017 212.475 406.034C211.965 405.996 211.453 406.072 210.976 406.255C210.499 406.439 210.068 406.726 209.716 407.096C209.04 408.015 208.715 409.145 208.8 410.283C208.795 410.713 208.881 411.14 209.051 411.535C209.221 411.93 209.473 412.285 209.789 412.578C210.092 412.885 210.453 413.128 210.851 413.294C211.25 413.46 211.677 413.544 212.108 413.542C212.604 413.569 213.099 413.49 213.561 413.31C213.971 413.087 214.356 412.821 214.709 412.517C214.843 412.407 214.977 412.272 215.112 412.138C215.099 411.784 215.099 410.27 215.112 407.633V407.633Z" fill="white"/>
<path d="M227.479 416.777C225.739 416.861 224.021 416.362 222.596 415.361C221.914 414.853 221.366 414.186 221.002 413.418C220.638 412.649 220.469 411.803 220.509 410.954C220.451 409.044 221.036 407.17 222.169 405.631C222.733 404.85 223.479 404.22 224.343 403.794C225.207 403.368 226.162 403.161 227.125 403.19C228.36 403.151 229.587 403.393 230.714 403.898C231.235 404.095 231.689 404.437 232.02 404.885C232.352 405.332 232.548 405.865 232.586 406.421C232.623 406.977 232.5 407.531 232.231 408.019C231.962 408.507 231.558 408.907 231.068 409.171C230.176 409.717 229.241 410.191 228.273 410.588L224.073 412.443C224.477 412.875 224.974 413.209 225.526 413.42C226.303 413.682 227.126 413.784 227.944 413.721C228.762 413.659 229.559 413.431 230.287 413.053C230.777 412.716 231.343 412.506 231.935 412.443C232.105 412.416 232.278 412.428 232.443 412.479C232.607 412.53 232.757 412.617 232.882 412.735C233.007 412.853 233.103 412.998 233.164 413.159C233.224 413.32 233.246 413.493 233.229 413.664C233.229 414.604 232.533 415.373 231.154 415.971C229.997 416.489 228.746 416.763 227.479 416.777V416.777ZM227.15 406.229C226.415 406.216 225.704 406.492 225.172 406.998C224.544 407.644 224.091 408.438 223.854 409.306L226.649 408.085C227.572 407.68 228.466 407.211 229.323 406.681C228.65 406.345 227.901 406.189 227.15 406.229V406.229Z" fill="white"/>
<path d="M248.451 410.649C245.935 412.822 243.23 414.766 240.369 416.459C240.002 416.686 239.58 416.809 239.148 416.813C238.876 416.819 238.606 416.769 238.354 416.666C238.102 416.563 237.874 416.41 237.683 416.215C237.495 416.041 237.344 415.83 237.241 415.594C237.138 415.359 237.085 415.105 237.085 414.848C237.093 414.545 237.177 414.25 237.328 413.987C237.48 413.725 237.694 413.505 237.952 413.346C239.173 412.504 241.053 411.198 243.519 409.464C242.271 408.559 241.084 407.572 239.966 406.51C238.538 405.167 237.818 404.215 237.818 403.678C237.819 403.417 237.878 403.16 237.992 402.925C238.107 402.69 238.272 402.485 238.477 402.323C238.88 401.954 239.407 401.749 239.954 401.749C240.247 401.754 240.536 401.82 240.803 401.942C241.07 402.064 241.308 402.239 241.504 402.457C243.347 404.494 245.523 406.203 247.938 407.511C248.805 407.926 249.244 408.476 249.244 409.159C249.228 409.45 249.149 409.734 249.012 409.992C248.875 410.249 248.683 410.473 248.451 410.649V410.649Z" fill="white"/>
</g>
<defs>
<linearGradient id="paint0_linear_2_114" x1="331.329" y1="292" x2="331.329" y2="434.658" gradientUnits="userSpaceOnUse">
<stop stop-color="#3CC2AB"/>
<stop offset="1" stop-color="#006E4E"/>
</linearGradient>
<linearGradient id="paint1_linear_2_114" x1="332.009" y1="315.343" x2="139.319" y2="150.035" gradientUnits="userSpaceOnUse">
<stop offset="0.268048" stop-color="#61B1A4"/>
<stop offset="0.859895" stop-color="#006E4E"/>
</linearGradient>
<linearGradient id="paint2_linear_2_114" x1="171.709" y1="791" x2="171.709" y2="912.418" gradientUnits="userSpaceOnUse">
<stop stop-color="#459C83"/>
<stop offset="0.456943" stop-color="#006E4E"/>
</linearGradient>
<linearGradient id="paint3_linear_2_114" x1="183" y1="862.5" x2="232.152" y2="940.39" gradientUnits="userSpaceOnUse">
<stop stop-color="#459C83"/>
<stop offset="0.63596" stop-color="#006E4E"/>
</linearGradient>
<linearGradient id="paint4_linear_2_114" x1="19.9117" y1="439.003" x2="248.083" y2="439.705" gradientUnits="userSpaceOnUse">
<stop stop-color="#64CDAF"/>
<stop offset="1" stop-color="#065D44"/>
</linearGradient>
<linearGradient id="paint5_linear_2_114" x1="387.172" y1="717.632" x2="491.834" y2="717.954" gradientUnits="userSpaceOnUse">
<stop stop-color="#64CDAF"/>
<stop offset="1" stop-color="#065D44"/>
</linearGradient>
<linearGradient id="paint6_linear_2_114" x1="551.644" y1="159.29" x2="381.079" y2="172.336" gradientUnits="userSpaceOnUse">
<stop offset="0.268048" stop-color="#5AB8A8"/>
<stop offset="0.859895" stop-color="#006E4E"/>
</linearGradient>
<linearGradient id="paint7_linear_2_114" x1="512.344" y1="120.314" x2="580.313" y2="188.282" gradientUnits="userSpaceOnUse">
<stop stop-color="#BA6FCD"/>
<stop offset="1" stop-color="#230E4D"/>
</linearGradient>
<linearGradient id="paint8_linear_2_114" x1="167.5" y1="791" x2="167.5" y2="985" gradientUnits="userSpaceOnUse">
<stop stop-color="#8BB4AD"/>
<stop offset="1" stop-color="#006E4E"/>
</linearGradient>
</defs>
</svg>
