<svg width="145" height="274" viewBox="0 0 145 274" fill="none" xmlns="http://www.w3.org/2000/svg">
<path d="M15.0984 39.7271C15.0984 39.7271 12.7895 31.941 11.0578 29.912C9.32609 27.8831 5.84205 28.5423 3.84234 27.1416C1.84263 25.7409 2.28582 28.8718 4.95554 29.5001C4.95554 29.5001 2.22399 28.9645 2.32706 31.6526C2.43014 34.3406 11.0681 40.9835 11.0681 40.9835L15.0984 39.7271Z" fill="#EF6E4B"/>
<path d="M83.0586 0.683346C100.242 -0.171477 103.674 14.5768 101.85 31.8792C100.025 49.1817 103.983 71.2217 106.364 79.7802C107.748 85.122 107.387 90.7657 105.334 95.8879C105.334 95.8879 107.457 89.4819 103.746 79.7802C103.746 79.7802 109.673 99.5132 93.7374 103.18C77.8016 106.846 74.266 101.192 69.5966 73.6728C64.9272 46.1537 58.1755 1.93983 83.0586 0.683346Z" fill="#BF00FF"/>
<path d="M83.0586 0.683346C100.242 -0.171477 103.674 14.5768 101.85 31.8792C100.025 49.1817 103.983 71.2217 106.364 79.7802C107.748 85.122 107.387 90.7657 105.334 95.8879C105.334 95.8879 107.457 89.4819 103.746 79.7802C103.746 79.7802 109.673 99.5132 93.7374 103.18C77.8016 106.846 74.266 101.192 69.5966 73.6728C64.9272 46.1537 58.1755 1.93983 83.0586 0.683346Z" fill="#5B5B5B"/>
<path d="M128.053 65.794C130.898 65.1863 138.041 73.8479 138.175 79.6359L128.64 84.7855L128.053 65.794Z" fill="#A2A2A2"/>
<path d="M132.319 93.9313C134.834 86.722 135.648 66.4946 133.803 57.3696L129.278 57.7919C129.278 57.7919 126.299 79.7701 123.238 86.4954C120.176 93.2207 120.712 98.6792 125.021 101.388C129.329 104.096 131.772 95.4556 132.319 93.9313Z" fill="#FF8B66"/>
<path d="M112.075 253.567L104.973 255.235C104.973 255.235 93.8304 195.563 91.2638 189.259C89.0579 183.822 79.6469 163.017 76.5237 147.033C75.6954 147.009 74.8725 146.891 74.0704 146.683L73.0396 146.457L72.0088 146.24C71.7408 162.163 68.2774 181.803 67.2157 187.313C65.9375 193.987 66.6281 254.72 66.6281 254.72L59.3096 254.483C45.425 205.305 52.7539 186.829 52.7539 186.829C52.7539 186.829 40.0238 142.543 44.5076 126.95C45.8947 122.2 47.617 117.553 49.6615 113.046C49.8059 112.727 49.9398 112.408 50.1048 112.099C51.9515 107.959 54.0977 103.959 56.5265 100.131L71.4006 101.995L71.545 101.748L71.9779 101.831V106.496L73.8642 106.403H74.2868L80.4715 106.074H81.3167L86.718 105.786C86.718 105.786 89.965 110.935 94.5829 119.174C94.7478 119.494 94.9333 119.813 95.0982 120.132C96.7372 123.109 98.5411 126.445 100.427 130.081C107.89 144.5 105.344 185.984 105.344 185.984C105.344 185.984 116.126 202.638 112.075 253.567Z" fill="#242424"/>
<path d="M61.4241 101.841C61.4241 101.954 57.538 111.11 49.6113 113.047C49.7556 112.727 49.8896 112.408 50.0546 112.099C57.1669 109.885 60.6407 101.645 60.6819 101.542L61.4241 101.841Z" fill="#343434"/>
<path d="M95.0972 120.112C86.2119 118.206 81.6971 108.916 80.4705 106.043C80.254 105.528 80.1509 105.219 80.1406 105.198L80.8931 104.931C80.8931 104.931 81.0374 105.353 81.3157 105.961C82.5836 108.906 86.7479 117.042 94.5818 119.112C94.7468 119.473 94.9323 119.792 95.0972 120.112Z" fill="#343434"/>
<path d="M74.051 146.683L73.0202 146.457C70.4535 141.385 68.5812 135.991 67.454 130.421C64.6812 118.124 70.9896 105.013 71.0515 104.89L71.773 105.24C71.7111 105.363 65.5161 118.227 68.2271 130.246C68.3405 130.761 68.4642 131.276 68.5776 131.729L68.7631 132.501C69.8865 137.443 71.6648 142.212 74.051 146.683Z" fill="#343434"/>
<path d="M68.3282 132.542H68.2148V131.749C68.4682 131.743 68.7168 131.68 68.9431 131.566C69.1694 131.452 69.3677 131.29 69.5239 131.09C70.0496 130.493 71.1732 128.588 70.2661 123.881C69.0498 117.619 73.6883 106.64 73.8841 106.177L74.6159 106.496C74.6159 106.599 69.8744 117.712 71.0495 123.737C71.9875 128.567 70.8742 130.719 70.1218 131.574C69.9079 131.853 69.6376 132.083 69.3285 132.25C69.0194 132.417 68.6785 132.516 68.3282 132.542Z" fill="#343434"/>
<path d="M86.7171 105.713C81.5976 107.2 76.2011 107.469 70.9588 106.5C65.7164 105.531 60.7737 103.35 56.5256 100.131C56.5256 100.131 53.8044 44.2176 58.9789 40.4687C61.2466 38.8312 65.7202 40.1495 70.0288 42.1475C73.8087 43.9656 77.4442 46.0693 80.9036 48.4402C80.9036 48.4402 90.5517 47.0807 98.1588 47.915C103.003 48.4299 107.003 49.8512 107.188 53.0645C107.663 61.3243 86.7171 105.713 86.7171 105.713Z" fill="#FF8B66"/>
<path d="M98.5716 48.0388C95.3143 47.6989 94.7062 50.1707 91.4489 51.3551C88.636 52.3866 85.7293 53.142 82.7698 53.6106C81.2855 53.7444 80.502 55.588 80.502 55.588C80.502 55.588 79.9763 53.0956 79.1723 52.8896C78.3683 52.6836 71.4724 45.6803 70.0293 42.1477C73.8091 43.9658 77.4446 46.0695 80.9041 48.4404C80.9041 48.4404 90.5522 47.0809 98.1593 47.9152L98.5716 48.0388Z" fill="#EF6E4B"/>
<path d="M55.98 260.683C56.4233 257.594 55.2998 255.472 56.0935 254.01C57.3304 251.744 58.6291 254.607 58.6291 254.607C58.7322 251.157 64.5252 251.157 65.1025 252.743C65.2497 253.141 65.4218 253.53 65.6178 253.907C65.9786 253.072 66.5868 252.269 67.3805 252.743C70.4728 254.597 66.628 259.375 69.4421 262.856C73.0292 267.295 70.8233 274 70.8233 274H53.6505C51.6405 264.597 55.4956 263.711 55.98 260.683Z" fill="#444444"/>
<path d="M66.5885 259.551C66.5885 259.551 62.5272 257.419 57.1465 260.241L58.1773 258.294C59.3751 257.638 60.7012 257.248 62.0642 257.152C63.4272 257.056 64.7948 257.256 66.0731 257.738L66.5885 259.551Z" fill="#ADBEC4"/>
<path d="M67.2981 262.774C63.6059 261.643 59.6236 261.933 56.1348 263.588L57.1655 261.528C57.1655 261.528 62.3195 259.314 66.6075 260.972L67.2981 262.774Z" fill="#ADBEC4"/>
<path d="M116.531 258.812C116.078 255.722 117.201 253.601 116.407 252.138C115.181 249.873 113.882 252.736 113.882 252.736C113.779 249.286 107.986 249.286 107.409 250.872C107.244 251.294 107.069 251.675 106.893 252.035C106.533 251.201 105.924 250.398 105.131 250.872C102.038 252.725 105.883 257.504 103.069 260.985C99.4923 265.424 101.698 272.129 101.698 272.129H118.871C120.819 262.726 116.923 261.84 116.531 258.812Z" fill="#444444"/>
<path d="M104.625 259.551C104.625 259.551 108.686 257.419 114.067 260.241L113.036 258.294C111.84 257.638 110.516 257.249 109.154 257.153C107.793 257.057 106.427 257.256 105.151 257.738L104.625 259.551Z" fill="#ADBEC4"/>
<path d="M103.943 262.774C107.636 261.643 111.618 261.933 115.107 263.588L114.076 261.528C114.076 261.528 108.922 259.314 104.634 260.972L103.943 262.774Z" fill="#ADBEC4"/>
<path d="M79.6574 29.9533C79.6574 29.9533 80.8943 44.8767 76.7402 47.0086C76.7402 47.0086 79.8326 52.6731 88.0788 49.2229C88.0788 49.2229 86.6872 41.5501 92.1298 32.4354C95.7478 26.3281 79.6574 29.9533 79.6574 29.9533Z" fill="#EF6E4B"/>
<path d="M99.6345 58.3377C93.0044 60.0804 86.0652 60.2987 79.3385 58.9762C67.9999 56.7928 62.9285 50.4383 62.9285 50.4383C62.9285 50.4383 48.3945 40.6645 56.5273 100.131C56.5273 100.131 66.8351 112.397 86.7188 105.713C86.7188 105.713 111.385 69.8623 99.6345 58.3377Z" fill="#E1D5EB"/>
<path d="M95.6971 22.7028C95.6971 22.7028 98.7895 19.1188 99.5007 22.9809C100.315 27.4713 96.3465 29.6032 95.4394 28.2231C94.5324 26.843 95.6971 22.7028 95.6971 22.7028Z" fill="#FF8B66"/>
<path d="M72.3058 24.7214C72.3058 24.7214 68.7084 21.6317 68.5847 25.5762C68.461 30.1284 72.7078 31.6424 73.3984 30.1387C74.089 28.6351 72.3058 24.7214 72.3058 24.7214Z" fill="#FF8B66"/>
<path d="M85.6073 39.9434C93.0392 39.377 96.8531 34.2069 95.7501 19.6749C95.1729 12.1772 91.0086 7.87216 82.6902 8.5004C74.3718 9.12865 71.2176 14.0001 71.7948 21.4978C73.0215 37.1112 77.9383 40.5202 85.6073 39.9434Z" fill="#FF8B66"/>
<path d="M77.142 17.2962C77.207 17.3463 77.2867 17.3734 77.3687 17.3734C77.4508 17.3734 77.5306 17.3463 77.5955 17.2962C78.452 16.6913 79.5017 16.4235 80.5436 16.5443C80.642 16.558 80.7418 16.532 80.8211 16.4721C80.9003 16.4123 80.9525 16.3234 80.9662 16.2251C80.9799 16.1267 80.9538 16.027 80.8939 15.9478C80.834 15.8686 80.7451 15.8164 80.6467 15.8028C79.3934 15.6568 78.1311 15.9878 77.111 16.7297C77.0765 16.7641 77.0491 16.8051 77.0303 16.8501C77.0116 16.8952 77.002 16.9435 77.002 16.9923C77.002 17.0411 77.0116 17.0895 77.0303 17.1345C77.0491 17.1796 77.0765 17.2205 77.111 17.255L77.142 17.2962Z" fill="#0E3944"/>
<path d="M88.0386 16.6883C88.1023 16.7088 88.1708 16.7088 88.2345 16.6883C89.2801 16.5947 90.3241 16.8838 91.1722 17.5019C91.2059 17.5378 91.2466 17.5664 91.2918 17.5859C91.337 17.6054 91.3858 17.6155 91.435 17.6155C91.4843 17.6155 91.533 17.6054 91.5782 17.5859C91.6234 17.5664 91.6642 17.5378 91.6979 17.5019C91.7325 17.4675 91.7599 17.4265 91.7787 17.3815C91.7974 17.3364 91.807 17.2881 91.807 17.2393C91.807 17.1905 91.7974 17.1422 91.7787 17.0971C91.7599 17.052 91.7325 17.0111 91.6979 16.9767C90.7008 16.1977 89.4432 15.8292 88.183 15.9468C88.0854 15.9596 87.9966 16.0097 87.9351 16.0865C87.8737 16.1633 87.8443 16.2608 87.8531 16.3587C87.8536 16.4248 87.8709 16.4897 87.9034 16.5474C87.9358 16.605 87.9824 16.6535 88.0386 16.6883V16.6883Z" fill="#0E3944"/>
<path d="M78.409 22.5789C78.4811 23.5058 78.945 24.2165 79.4398 24.1753C79.9346 24.1341 80.316 23.3616 80.2438 22.445C80.1717 21.5284 79.6975 20.8075 79.213 20.8384C78.7286 20.8693 78.3368 21.6623 78.409 22.5789Z" fill="#1A4850"/>
<path d="M88.8816 21.7349C88.9538 22.6515 89.4177 23.3725 89.9124 23.3313C90.4072 23.2901 90.7886 22.5177 90.7164 21.5907C90.6443 20.6638 90.1701 19.9532 89.6856 19.9944C89.2012 20.0356 88.8095 20.808 88.8816 21.7349Z" fill="#1A4850"/>
<path d="M88.07 29.1607C88.07 29.1607 83.4934 30.1906 81.0195 29.0989C81.0195 29.0989 82.545 34.2484 85.0395 33.754C87.534 33.2597 88.07 29.1607 88.07 29.1607Z" fill="#1A4850"/>
<path d="M80.8762 21.9302C80.8762 21.9302 80.0206 19.7159 79.1444 19.9425C78.2683 20.1691 77.7323 22.1774 77.7323 22.1774L76.3613 21.5801L77.6911 21.6521C77.6911 21.6521 78.2271 19.5923 79.1032 19.4996C80.3608 19.3966 80.8762 21.9302 80.8762 21.9302Z" fill="#1A4850"/>
<path d="M88.1016 21.6626C88.1016 21.6626 88.6066 19.3453 89.5137 19.438C90.4208 19.5307 91.2351 21.4257 91.2351 21.4257L92.503 20.6224L91.2042 20.9004C91.2042 20.9004 90.359 18.923 89.4725 18.9848C88.215 19.0363 88.1016 21.6626 88.1016 21.6626Z" fill="#1A4850"/>
<path d="M80.8746 8.73734C80.8746 8.73734 87.6881 19.0364 96.4291 21.2095C97.2029 19.0528 97.3737 16.7261 96.9233 14.4796C96.4729 12.2331 95.4182 10.1518 93.8727 8.45926C88.4817 2.38281 78.6172 6.34795 78.6172 6.34795C78.6172 6.34795 80.1118 17.3783 96.2538 22.1982C96.2538 22.1776 82.5548 16.441 80.8746 8.73734Z" fill="#BF00FF"/>
<path d="M80.8746 8.73734C80.8746 8.73734 87.6881 19.0364 96.4291 21.2095C97.2029 19.0528 97.3737 16.7261 96.9233 14.4796C96.4729 12.2331 95.4182 10.1518 93.8727 8.45926C88.4817 2.38281 78.6172 6.34795 78.6172 6.34795C78.6172 6.34795 80.1118 17.3783 96.2538 22.1982C96.2538 22.1776 82.5548 16.441 80.8746 8.73734Z" fill="#5B5B5B"/>
<path d="M80.0071 8.84022C77.4714 9.71564 74.4512 14.0412 74.008 18.6964C73.5647 23.3516 72.0907 24.5566 72.0907 24.5566C70.9554 23.5375 70.0985 22.2464 69.6008 20.8049C69.1031 19.3634 68.9809 17.8191 69.2458 16.3173C69.9879 10.8073 78.2857 6.96578 79.6154 7.04818C80.9451 7.13057 80.0071 8.84022 80.0071 8.84022Z" fill="#5B5B5B"/>
<path d="M17.3567 47.5237C14.4602 47.2972 8.54358 56.8444 9.18266 62.5913L19.3152 66.3813L17.3567 47.5237Z" fill="#A2A2A2"/>
<path d="M16.946 75.9697C13.4723 69.1208 9.94705 49.1921 10.5552 39.9229L15.1009 39.7375C15.1009 39.7375 21.0073 61.1081 24.9345 67.3597C28.8618 73.6112 29.0577 79.1006 25.182 82.3551C21.3062 85.6096 17.6778 77.4115 16.946 75.9697Z" fill="#EF6E4B"/>
<path fill-rule="evenodd" clip-rule="evenodd" d="M53.3446 74.8845C46.9273 78.6814 29.896 88.4536 25.0878 88.1524C15.3468 87.7945 9.18359 62.5911 9.18359 62.5911C15.4507 61.5097 17.3577 47.5235 17.3577 47.5235L22.1817 58.9349C22.1817 58.9349 23.4908 57.6784 26.8305 67.1021C27.202 68.1503 27.4742 69.2259 27.6645 70.3096C37.0475 59.4203 55.2141 38.5577 56.98 38.1927C57.3706 38.1121 57.7278 38.0953 58.0538 38.1372C61.5053 36.3679 69.1445 41.7562 69.1445 41.7562C69.1445 41.7562 64.0936 97.5875 47.4981 118.144C47.4981 118.144 52.7448 103.952 54.0745 95.6615C54.4923 93.0562 54.1447 87.6265 53.7235 81.0475C53.5976 79.081 53.4651 77.0117 53.3446 74.8845Z" fill="#42225B"/>
<path fill-rule="evenodd" clip-rule="evenodd" d="M86.0785 106.537C83.5428 94.7236 95.9322 46.844 95.9322 46.844C100.163 46.9643 105.908 49.3138 107.696 50.1073C107.875 50.1609 108.06 50.2366 108.252 50.3354C109.513 50.9956 117.104 66.7249 123.219 79.735C124.226 77.302 124.845 77.7616 124.845 77.7616L128.051 65.7941C128.051 65.7941 131.823 79.4095 138.173 79.636C138.173 79.636 135.681 103.361 127.004 106.777C126.711 106.937 126.398 107.058 126.064 107.135C121.57 108.165 103.953 89.6263 103.953 89.6263C103.953 89.6263 103.874 88.8444 103.756 87.5004C102.073 96.2591 100.835 104.51 101.808 110.338C104.282 125.158 104.57 146.714 104.57 146.714C104.57 146.714 88.6142 118.35 86.0785 106.537Z" fill="#42225B"/>
<path d="M4.246 28.656C3.30799 28.1822 1.02995 28.4809 0.236251 28.656C-0.557449 28.8311 0.607332 32.5284 4.35937 34.7118C4.63413 34.4202 4.8448 34.0744 4.97794 33.6966C5.11107 33.3188 5.16372 32.9174 5.13245 32.5181C4.95722 31.2925 4.10167 31.3646 4.10167 31.3646C4.81891 31.3146 5.53873 31.3146 6.25597 31.3646C7.02905 31.4573 7.33829 31.035 6.25597 30.5201C6.25597 30.5201 6.84356 30.3244 5.91586 29.7889C5.86432 29.7889 6.01894 29.5211 4.246 28.656Z" fill="#EF6E4B"/>
<path d="M129.062 58.1728C129.062 58.1728 131.371 50.397 133.103 48.3681C134.835 46.3392 138.309 46.9983 140.319 45.5976C142.329 44.197 141.875 47.3279 139.205 47.9561C139.205 47.9561 141.937 47.4206 141.834 50.1086C141.731 52.7967 133.093 59.4396 133.093 59.4396L129.062 58.1728Z" fill="#EF6E4B"/>
<path d="M140.236 47.0501C141.143 46.6072 143.328 46.8853 144.07 47.0501C144.812 47.2148 143.73 50.7577 140.143 52.8484C139.887 52.573 139.69 52.2482 139.564 51.894C139.438 51.5398 139.386 51.1636 139.411 50.7886C139.576 49.6042 140.442 49.6763 140.442 49.6763C139.755 49.6262 139.066 49.6262 138.38 49.6763C137.638 49.769 137.349 49.357 138.38 48.873C138.38 48.873 137.813 48.6773 138.7 48.1624C138.689 48.1315 138.566 47.874 140.236 47.0501Z" fill="#EF6E4B"/>
</svg>
