<svg width="278" height="288" viewBox="0 0 278 288" fill="none" xmlns="http://www.w3.org/2000/svg">
<path d="M32.2731 35.8202C32.2731 35.8202 3.01653 51.9488 0.600848 79.2306C-1.81483 106.512 0.39954 219.86 59.0535 247.723C117.708 275.586 195.372 269.181 225.098 266.136C254.824 263.09 271.298 242.981 274.982 229.137C278.666 215.292 284.611 163.687 253.341 147.091C222.072 130.495 189.232 104.996 156.425 80.1857C123.619 55.3749 67.3675 14.863 32.2731 35.8202Z" fill="#9A969C"/>
<g clip-path="url(#clip0_4_164)">
<path d="M240.826 242.632L237.718 236.672L229.877 239.652L231.302 245.882C231.302 245.882 238.131 247.721 240.826 242.632Z" fill="#FDB487"/>
<path d="M231.245 245.882C231.245 245.882 231.773 258.143 234.439 260.937C237.105 263.731 242.693 273.953 251.546 276.876C260.4 279.798 267.229 273.611 257.121 263.218C251.182 256.773 245.735 249.892 240.826 242.632C240.826 242.632 239.314 246.053 231.245 245.882Z" fill="#444444"/>
<path d="M158.665 156.85C158.665 156.85 194.635 164.292 208.364 175.212C222.093 186.133 239.87 237.214 239.87 237.214C238.516 241.277 234.752 242.774 229.606 242.803C229.606 242.803 206.282 218.567 197.857 191.764C197.857 191.764 149.085 188.699 132.362 163.665C131.35 162.139 152.45 159.359 158.665 156.85Z" fill="#282A3A"/>
<path d="M143.682 11.1486C143.955 14.3746 142.937 17.5772 140.853 20.0544C138.768 22.5317 135.787 24.0816 132.562 24.3644C130.486 24.548 128.398 24.1894 126.503 23.3236C124.607 22.4654 122.962 21.1366 121.725 19.4636C120.487 17.7906 119.698 15.8289 119.432 13.765C119.167 11.7011 119.433 9.60353 120.206 7.67159C120.98 5.73966 122.234 4.03754 123.85 2.727C125.467 1.41646 127.392 0.541037 129.442 0.183904C131.492 -0.17323 133.599 -0.000202455 135.563 0.686545C137.528 1.37329 139.284 2.55095 140.665 4.1076C142.046 5.66425 143.006 7.54818 143.454 9.58037C143.565 10.0973 143.642 10.6213 143.682 11.1486Z" fill="#33364A"/>
<path d="M143.682 11.1486C143.955 14.3746 142.937 17.5772 140.853 20.0544C138.768 22.5317 135.787 24.0816 132.562 24.3644C130.486 24.548 128.398 24.1894 126.503 23.3237C129.767 12.4887 139.647 10.1079 143.439 9.58038C143.556 10.097 143.637 10.6209 143.682 11.1486V11.1486Z" fill="white"/>
<path d="M171.553 39.5761C171.553 39.5761 170.869 49.3275 168.303 54.7165C165.451 60.6614 163.57 61.6309 164.026 67.8325C164.026 67.8325 160.875 64.7816 161.403 61.6024C161.93 58.4232 167.105 50.1972 165.965 46.2909C164.824 42.3846 169.914 38.0506 171.553 39.5761Z" fill="#33364A"/>
<path d="M137.751 54.745H157.71C160.963 54.748 164.107 53.5727 166.56 51.4366C169.013 49.3006 170.61 46.3483 171.054 43.1259C171.396 40.6358 171.705 38.0411 171.981 35.3419C172.116 31.4284 171.665 27.5167 170.641 23.7371C168.631 17.1934 162.557 11.0346 148.885 10.5498C132.761 9.96532 123.894 24.1078 124.293 41.4009V41.5577C124.367 45.0787 125.818 48.4306 128.333 50.8954C130.849 53.3602 134.229 54.7421 137.751 54.745V54.745Z" fill="#33364A"/>
<path d="M149.841 60.191L149.128 64.1828L148.329 68.6879L147.645 72.5799C146.517 73.1231 145.284 73.4169 144.032 73.4415C142.78 73.4661 141.537 73.2209 140.389 72.7225C138.407 71.9808 136.548 70.9477 134.871 69.6573V69.3436L134.985 67.918L135.798 57.9384L135.969 55.8427C137.209 55.2155 139.162 55.6717 141.23 56.4558C143.297 57.2399 145.421 58.3234 147.103 59.022C148.786 59.7205 149.841 60.191 149.841 60.191Z" fill="#FF8B66"/>
<path d="M149.841 60.2052L148.329 68.6879C142.712 66.6634 138.835 58.0667 138.835 58.0667L147.132 59.0077C148.743 59.6635 149.841 60.2052 149.841 60.2052Z" fill="#F48568"/>
<path d="M158.936 63.8549C155.754 64.8068 152.38 64.9198 149.142 64.1828C146.248 63.5434 143.459 62.497 140.859 61.0749C139.114 60.1314 137.433 59.0742 135.826 57.91C134.714 57.1116 133.802 56.3845 133.16 55.8427C132.519 55.301 132.091 54.8876 132.091 54.8876C132.091 54.8876 131.963 52.7491 132.006 49.6412C132.026 45.7014 132.388 41.7708 133.089 37.8938C134.073 33.0323 135.855 28.6413 139.091 27.1444H144.395L169.472 27.3868C169.472 27.3868 169.472 27.7574 169.472 28.4417C169.557 29.8674 169.671 32.8185 169.586 36.3684C169.586 36.6392 169.586 36.9101 169.586 37.181C169.315 47.0893 167.348 61.2175 158.936 63.8549Z" fill="#FF8B66"/>
<path fill-rule="evenodd" clip-rule="evenodd" d="M162.369 152.55C162.908 154.272 163.497 156.054 164.126 157.948C143.411 165.29 133.93 168.127 116.78 165.347C116.618 162.631 116.377 159.373 116.117 155.856L116.117 155.856C115.411 146.323 114.565 134.885 114.784 127.168C114.939 119.055 115.348 110.951 116.009 102.868C111.609 82.3585 119.218 75.5737 119.218 75.5738L127.771 72.2377L136.61 68.8162L151.608 69.586L154.759 69.7428L160.119 70.028C160.141 70.402 160.165 70.7758 160.191 71.1494V70.028C160.191 70.028 171.054 110.046 197.856 146.072C197.856 150.192 194.221 151.618 191.013 151.618C185.182 145.413 171.51 123.444 164.501 111.947C164.176 112.279 163.845 112.588 163.525 112.887C163.189 113.2 162.865 113.502 162.572 113.81L162.286 114.109C161.954 114.489 161.68 114.917 161.474 115.378C161.401 115.52 161.339 115.668 161.289 115.82C161.146 116.219 161.003 116.675 160.861 117.16C160.022 120.732 159.421 124.357 159.064 128.009C158.864 131.451 158.899 134.487 159.13 137.308C166.65 141.655 176.08 147.078 181.946 150.349L176.614 156.28C172.913 156.021 167.709 154.494 162.369 152.55Z" fill="#3E4157"/>
<path d="M137.295 40.9732C137.295 40.9732 134.215 35.8694 130.708 38.6779C126.845 41.7573 128.584 52.6208 136.283 52.5638L137.295 40.9732Z" fill="#FF8B66"/>
<path d="M169.543 28.4845C169.543 31.7207 163.84 34.957 143.069 35.1423C143.069 35.1423 143.069 44.6942 138.977 43.8245C138.008 43.6249 137.052 38.1219 133.089 37.8368C131.991 28.7839 135.94 28.6128 139.091 27.1444L169.526 27.0873C169.526 27.0873 169.515 27.8002 169.543 28.4845Z" fill="#33364A"/>
<path d="M143.069 35.1423C143.069 35.1423 144.081 44.5943 140.945 49.6696C137.808 54.745 134.957 56.6554 136.668 62.7857C136.668 62.7857 133.517 59.7347 134.03 56.5555C134.543 53.3763 139.818 45.1503 138.592 41.2298C137.366 37.3093 141.429 33.6311 143.069 35.1423Z" fill="#33364A"/>
<path d="M222.535 253.039L219.427 247.065L211.586 250.045L213.011 256.275C213.011 256.275 219.84 258.114 222.535 253.039Z" fill="#FDB487"/>
<path d="M212.726 255.619C212.726 255.619 213.311 267.88 215.977 270.674C218.643 273.468 224.302 283.633 233.084 286.513C241.866 289.393 248.767 283.177 238.587 272.827C232.64 266.412 227.184 259.559 222.264 252.326C222.264 252.326 220.781 255.705 212.726 255.619Z" fill="#444444"/>
<path d="M123.38 159.088C123.38 159.088 179.18 170.608 192.681 181.813C206.182 193.019 221.508 247.892 221.508 247.892C220.082 251.927 216.276 253.352 211.129 253.267C211.129 253.267 191.484 223.043 182.431 198.294C182.431 198.294 144.195 195.129 126.645 188.314C115.753 184.037 110.193 166.373 123.38 159.088Z" fill="#282A3A"/>
<path d="M162.643 113.81L162.358 114.109C162.025 114.489 161.751 114.917 161.545 115.378C161.472 115.52 161.41 115.668 161.36 115.82C154.264 118.768 146.646 120.252 138.963 120.182H137.537C137.453 120.184 137.369 120.169 137.291 120.137C137.213 120.106 137.143 120.058 137.084 119.998C137.025 119.938 136.979 119.866 136.949 119.788C136.919 119.709 136.906 119.625 136.91 119.541C136.914 119.376 136.981 119.218 137.098 119.101C137.215 118.984 137.372 118.917 137.537 118.914V118.914C146.191 119.213 154.793 117.464 162.643 113.81V113.81Z" fill="#E1D5EB"/>
<path d="M151.68 69.586C151.095 75.2886 151.181 84.7264 144.052 84.9118C135.499 85.1256 129.796 75.8589 127.843 72.2377L136.682 68.8304L151.68 69.586Z" fill="#FF8B66"/>
<path d="M227.196 172.931L148.786 173.373C147.84 173.33 146.922 173.046 146.118 172.547C145.315 172.047 144.652 171.35 144.195 170.522V170.522C143.987 170.219 143.871 169.862 143.863 169.494C143.854 169.127 143.952 168.764 144.146 168.452C144.339 168.139 144.619 167.889 144.952 167.733C145.285 167.577 145.656 167.52 146.02 167.571L224.359 167.143C225.322 167.182 226.257 167.474 227.07 167.989C227.884 168.505 228.547 169.226 228.993 170.08C229.169 170.38 229.26 170.723 229.255 171.071C229.25 171.419 229.149 171.759 228.963 172.053C228.778 172.347 228.515 172.585 228.203 172.74C227.891 172.895 227.543 172.961 227.196 172.931Z" fill="white"/>
<path d="M230.39 172.96L160.946 173.345L167.904 128.309L237.318 128.138L230.39 172.96Z" fill="white"/>
<path d="M195.248 151.547C195.329 152.391 195.659 153.191 196.195 153.847C196.732 154.503 197.452 154.985 198.263 155.231C199.075 155.477 199.941 155.476 200.752 155.229C201.562 154.982 202.282 154.5 202.818 153.843C203.354 153.186 203.683 152.385 203.763 151.541C203.843 150.697 203.67 149.849 203.267 149.103C202.863 148.357 202.248 147.749 201.498 147.354C200.748 146.959 199.897 146.795 199.054 146.885C197.933 147.004 196.905 147.56 196.192 148.433C195.479 149.306 195.14 150.425 195.248 151.547V151.547Z" fill="#3E4157"/>
<path d="M226.084 172.974L226.07 172.988L156.627 173.373L163.527 128.537L167.847 128.522L160.946 173.345L226.084 172.974Z" fill="white"/>
<path d="M164.538 52.7491C164.538 52.7491 162.827 56.788 155.984 53.1978C155.984 53.1978 156.979 57.5231 160.47 56.9786C163.961 56.4342 164.538 52.7491 164.538 52.7491Z" fill="#1A4850"/>
<path d="M149.101 38.3128C149.215 38.4005 149.354 38.448 149.498 38.448C149.641 38.448 149.781 38.4005 149.894 38.3128C151.393 37.2546 153.229 36.7862 155.052 36.9975C155.224 37.0214 155.398 36.976 155.537 36.8713C155.676 36.7665 155.767 36.611 155.791 36.439C155.815 36.267 155.769 36.0925 155.665 35.954C155.56 35.8154 155.404 35.7242 155.232 35.7003C153.04 35.445 150.831 36.0239 149.047 37.3218C148.986 37.3821 148.938 37.4537 148.906 37.5325C148.873 37.6114 148.856 37.6959 148.856 37.7813C148.856 37.8667 148.873 37.9512 148.906 38.03C148.938 38.1089 148.986 38.1805 149.047 38.2407L149.101 38.3128Z" fill="#0E3944"/>
<path d="M161.956 35.432C162.043 35.5464 162.165 35.629 162.303 35.6667C162.442 35.7044 162.589 35.6952 162.722 35.6405C164.445 35.0133 166.34 35.0441 168.043 35.727C168.203 35.7953 168.384 35.7974 168.545 35.7328C168.706 35.6682 168.835 35.5421 168.903 35.3824C168.972 35.2228 168.974 35.0424 168.909 34.8812C168.844 34.72 168.718 34.5911 168.558 34.5228C166.51 33.7002 164.227 33.6783 162.164 34.4616C162.09 34.5039 162.025 34.5603 161.973 34.6278C161.92 34.6953 161.882 34.7724 161.859 34.8548C161.837 34.9371 161.831 35.0231 161.842 35.1078C161.853 35.1925 161.88 35.2742 161.923 35.3482L161.956 35.432Z" fill="#0E3944"/>
<path d="M152.441 43.2788C152.567 44.9003 153.378 46.1435 154.244 46.0715C155.11 45.9994 155.777 44.6481 155.651 43.0445C155.524 41.441 154.695 40.1798 153.847 40.2339C153 40.2879 152.314 41.6752 152.441 43.2788Z" fill="#1A4850"/>
<path d="M163.05 41.8798C163.176 43.4834 163.987 44.7446 164.853 44.6725C165.718 44.6005 166.386 43.2492 166.259 41.6276C166.133 40.006 165.304 38.7629 164.456 38.8349C163.609 38.907 162.923 40.2583 163.05 41.8798Z" fill="#1A4850"/>
<path d="M156.754 42.1437C156.754 42.1437 155.258 38.27 153.725 38.6664C152.192 39.0627 151.254 42.5761 151.254 42.5761L148.856 41.5311L151.182 41.6572C151.182 41.6572 152.12 38.0538 153.653 37.8916C155.853 37.7114 156.754 42.1437 156.754 42.1437Z" fill="#1A4850"/>
<path d="M161.687 41.7539C161.687 41.7539 162.57 37.7 164.157 37.8622C165.744 38.0243 167.169 41.3395 167.169 41.3395L169.387 39.9341L167.115 40.4206C167.115 40.4206 165.636 36.9613 164.085 37.0694C161.885 37.1595 161.687 41.7539 161.687 41.7539Z" fill="#1A4850"/>
</g>
<defs>
<clipPath id="clip0_4_164">
<rect width="147.398" height="287.183" fill="white" transform="matrix(-1 0 0 1 262.039 0)"/>
</clipPath>
</defs>
</svg>
