<svg width="337" height="279" viewBox="0 0 337 279" fill="none" xmlns="http://www.w3.org/2000/svg">
<rect x="104.5" y="0.5" width="232" height="216" rx="3.5" stroke="#444444"/>
<rect x="114.5" y="14.5" width="209" height="19" rx="3.5" stroke="#444444"/>
<rect x="114.5" y="95.5" width="209" height="19" rx="3.5" stroke="#444444"/>
<rect x="114.5" y="43.5" width="58" height="12" rx="3.5" stroke="#444444"/>
<rect x="114.5" y="126.5" width="209" height="19" rx="3.5" stroke="#444444"/>
<rect x="114.5" y="153.5" width="209" height="19" rx="3.5" stroke="#444444"/>
<rect x="308.5" y="189.5" width="13" height="13" rx="6.5" stroke="#444444"/>
<rect x="275.5" y="189.5" width="13" height="13" rx="6.5" stroke="#444444"/>
<rect x="161.5" y="45.5" width="8" height="8" rx="4" stroke="#444444"/>
<path d="M37.8385 263.211C31.3565 263.593 27.9354 265.919 27.0352 267.033V277.545C27.0352 279.934 38.8513 278.978 43.9153 277.545C48.9794 276.112 49.6546 274.794 52.693 272.882C55.1238 271.353 53.7058 265.6 52.693 263.211C50.4423 263.052 44.3205 262.829 37.8385 263.211Z" fill="#444444"/>
<path d="M8.67605 156.21C8.39605 160.4 8.35607 160.94 8.35607 160.94C8.35607 160.94 7.10605 160.53 6.92605 157.66V157.71L6.60607 158.87C6.02273 160.934 5.62118 163.046 5.40606 165.18C5.25606 167.92 4.30605 167.65 4.30605 167.65V161.07C4.30605 161.07 3.89605 166.98 3.30605 167.66C2.71605 168.34 2.00607 165.59 2.00607 165.59C2.00607 165.59 0.146065 164.14 0.00606545 160.25C-0.133935 156.36 2.19607 148.68 2.19607 148.68H7.94607C8.57812 151.137 8.82437 153.678 8.67605 156.21Z" fill="#FF8B66"/>
<path d="M11.8268 51.77C0.596788 55.34 5.82676 90.95 6.92676 103C6.92676 103 0.866791 131.9 2.23679 148.68C3.07475 149.282 4.08028 149.605 5.11179 149.605C6.1433 149.605 7.14884 149.282 7.98679 148.68C7.98679 148.68 15.9368 114.86 16.7568 105.92C17.5768 96.98 19.4768 73.14 19.4768 73.14L11.8268 51.77Z" fill="#FF8B66"/>
<path d="M13.2452 179.1C14.6152 186.21 16.5652 190.96 17.6352 196.94C19.1952 205.65 14.7552 218.26 19.2352 232.28C21.3152 238.92 24.9352 257.4 27.0352 269.5L35.0352 268C35.0352 267.89 35.4527 258.39 35.5352 266C35.5352 236.5 31.4652 207.94 32.0752 194.61C32.3252 188.97 33.2852 180.97 34.2952 173.7C34.2952 173.7 38.1652 148.83 41.2052 147.03C43.0452 145.94 57.8652 105.96 57.8652 105.96L25.8652 107.45C25.8652 107.45 7.20519 122.95 12.1052 150.54C12.1052 150.54 12.1052 150.83 12.0552 151.32C11.2352 164.27 12.0052 172.66 13.2452 179.1Z" fill="#636568"/>
<path d="M20.655 10.1501C20.655 10.1501 38.855 4.05007 42.525 16.8701C46.195 29.6901 42.525 43.0701 32.685 42.7501C20.605 42.3501 6.51498 17.3601 20.655 10.1501Z" fill="#FF8B66"/>
<path d="M34.4265 42.4002C34.4265 42.4002 33.6466 46.1302 36.0066 48.1702C36.0066 48.1702 37.5966 49.7702 35.1866 51.4102C27.6066 56.5602 19.4766 50.8502 19.4766 50.8502C21.1469 45.6125 21.3235 40.0127 19.9866 34.6802C21.5166 35.6902 26.3165 33.9202 34.4265 42.4002Z" fill="#EF6E4B"/>
<path d="M85.7757 271.65C79.9357 249.17 72.7057 215.14 71.7757 209.5C71.1657 205.86 70.6257 194.3 69.1957 180.11C68.8157 163.92 66.9557 126.92 57.8657 105.92L36.4657 106.42C37.3257 123.1 21.1557 141.1 40.8457 160.42C43.4157 167.62 51.9157 192.05 53.1457 202.81C54.5957 215.51 56.9657 221.14 64.3057 235.3C70.6657 247.56 75.1657 261.85 77.8557 271.68L85.7757 271.65Z" fill="#636568"/>
<path d="M45.4645 45.4702C45.4645 45.4702 37.0545 46.5702 27.5545 48.7702C18.0545 50.9702 14.0845 45.1902 9.22449 51.3102C1.92449 60.5102 13.7945 77.4702 20.0445 86.3102C22.3745 89.5902 27.2845 98.6802 28.2745 107.39C28.2745 107.39 44.7745 112.19 58.9945 105.97L60.0545 85.7302C60.0545 85.7302 70.7845 63.2602 45.4645 45.4702Z" fill="#ABABAB"/>
<path d="M96.8359 49.9299C97.4659 45.8799 107.836 39.2199 110.716 35.7699C110.716 35.7699 111.816 35.4699 110.716 37.2599C109.804 38.6015 108.748 39.8389 107.566 40.9499C107.566 40.9499 110.036 41.7199 110.036 42.8399C110.163 44.0956 110.02 45.3641 109.616 46.5599C109.076 47.7999 107.426 46.5599 107.426 46.5599C107.426 46.5599 104.516 50.6299 101.106 51.1999L96.8359 49.9299Z" fill="#FF8B66"/>
<path d="M96.1545 71.0399C99.0645 61.1099 101.155 51.2 101.155 51.2C99.8252 50.5082 98.3758 50.0771 96.8846 49.9299L85.6445 71.0399H96.1545Z" fill="#FF8B66"/>
<path d="M6.92512 157.66V157.71L6.60514 158.87C6.44983 157.605 6.13395 156.365 5.66514 155.18C5.28011 154.421 5.137 153.562 5.25513 152.72C5.58035 153.553 5.99618 154.348 6.49512 155.09C6.98512 155.64 6.92512 157.66 6.92512 157.66Z" fill="#EF6E4B"/>
<path d="M1.51562 158.22C1.34565 159.045 1.27846 159.888 1.31561 160.73C1.48561 161.18 1.80563 163.04 1.26562 163.33C1.31819 163.364 1.37889 163.383 1.44144 163.386C1.50398 163.388 1.56607 163.374 1.62122 163.344C1.67636 163.315 1.72257 163.271 1.755 163.217C1.78743 163.164 1.8049 163.102 1.8056 163.04C1.85378 162.524 1.85378 162.005 1.8056 161.49L2.06561 159.81C2.24774 159.972 2.39153 160.173 2.48663 160.398C2.58174 160.623 2.62579 160.866 2.6156 161.11C2.6156 162 2.0956 163.11 2.2756 163.38C2.4556 163.65 2.93561 165.75 2.03561 165.59C2.10288 165.677 2.19184 165.745 2.29361 165.787C2.39538 165.829 2.50638 165.844 2.6156 165.83C2.9356 165.75 2.7356 164.58 2.6156 163.3C2.63481 162.267 2.85563 161.248 3.26562 160.3C3.26563 160.3 3.12561 160.6 2.68561 159.95L1.51562 158.22Z" fill="#EF6E4B"/>
<path d="M10.7556 51.77C4.42562 54.06 1.86561 65.45 6.06561 102.09L4.38562 107.02C4.53782 107.345 4.62414 107.697 4.63959 108.056C4.65503 108.415 4.5993 108.773 4.47562 109.11C4.06562 110.31 1.26562 133.68 1.26562 133.68C1.26562 133.68 2.26562 139.52 10.7556 138.98C10.7556 138.98 19.7556 108.47 19.4756 105.92C19.1956 103.37 21.9656 76.15 21.9656 76.15L10.7556 51.77Z" fill="#222124"/>
<path d="M55.5643 54.6C60.2043 70.6 56.1543 130.21 57.8043 137.52C57.8043 137.52 37.1843 143.91 25.6143 142.45C14.0443 140.99 8.72434 135.85 8.72434 135.85C8.72434 135.85 13.9243 118.78 15.3843 115.85C16.8443 112.92 16.8543 107.17 17.5743 104.61C18.2943 102.05 16.6643 89.33 14.7343 86.81C12.8043 84.29 2.89433 67.98 5.99432 57.12C9.09432 46.26 16.0543 49.46 29.3243 46.72C42.5943 43.98 52.3143 43.28 55.5643 54.6Z" fill="#222124"/>
<path d="M43.9166 45.11C51.8166 44.22 79.1266 68.3 80.3966 69.03C81.6765 69.9889 82.8409 71.093 83.8666 72.32L85.7766 68.67L90.1866 61.32C90.1866 61.32 95.9266 64.57 98.1166 69.32L96.1166 74.65C95.3999 75.8486 94.9719 77.1975 94.8666 78.59C94.8666 80.42 87.6566 90.96 83.0866 89.32C78.5166 87.68 60.5366 79.77 50.8566 72.64C41.1766 65.51 43.9166 45.11 43.9166 45.11Z" fill="#222124"/>
<path d="M31.0238 7.11983C40.0238 7.85983 44.2438 10.0398 44.7838 18.8098C45.3238 27.5798 35.0438 33.8098 34.6238 46.0098C34.2038 58.2098 41.3138 73.0098 35.4738 81.8198C35.4738 81.8198 38.4738 73.4198 36.4738 70.1298C36.4738 70.1298 37.2638 85.4698 23.9238 88.2098C21.8608 87.7958 19.9582 86.8029 18.4388 85.3472C16.9194 83.8915 15.8459 82.0333 15.3438 79.9899C15.3438 79.9899 15.6238 84.6299 18.3438 86.9899C18.3438 86.9899 12.7738 86.3998 10.7438 74.5298C8.71384 62.6598 12.2039 49.6698 11.2339 30.9598C10.2639 12.2498 17.6238 6.02983 31.0238 7.11983Z" fill="#5B5B5B"/>
<path d="M88.2386 262.224C81.5165 262.63 77.9688 265.101 77.0352 266.285V277.454C77.0352 279.992 89.2889 278.977 94.5405 277.454C99.7921 275.931 100.492 274.531 103.643 272.5C106.164 270.876 104.694 264.763 103.643 262.224C101.309 262.055 94.9606 261.818 88.2386 262.224Z" fill="#444444"/>
</svg>
