<svg width="200" height="130" viewBox="0 0 200 130" fill="none" xmlns="http://www.w3.org/2000/svg">
<path fill-rule="evenodd" clip-rule="evenodd" d="M0 65C0 100.841 29.0741 130 64.8115 130C66.051 130 67.0492 128.999 67.0492 127.747C67.0492 126.504 66.051 125.503 64.8115 125.503C31.5364 125.503 4.47549 98.3551 4.47549 64.9917C4.47549 31.6282 31.5448 4.48017 64.8115 4.48017C88.2122 4.48017 109.708 18.2461 119.566 39.5373C120.081 40.6636 121.412 41.1558 122.535 40.6302C123.658 40.1129 124.149 38.7781 123.625 37.6518C113.035 14.7837 89.9508 0 64.8115 0C29.0741 0 0 29.1586 0 65ZM64.8101 119.177C35.0206 119.177 10.7881 94.8739 10.7881 64.9978C10.7881 35.1217 35.0206 10.8186 64.8101 10.8186C70.966 10.8186 76.9971 11.8448 82.7537 13.8805C83.9183 14.2893 84.5339 15.5741 84.1263 16.7421C83.7187 17.9101 82.4376 18.5275 81.273 18.1187C75.9989 16.2582 70.4669 15.3155 64.8184 15.3155C37.4996 15.3155 15.2802 37.6079 15.2802 64.9978C15.2802 92.3961 37.5079 114.68 64.8184 114.68C66.0579 114.68 67.0562 115.681 67.0562 116.924C67.0479 118.167 66.0496 119.177 64.8101 119.177ZM64.8136 108.508C40.8972 108.508 21.4313 88.9941 21.4313 64.9997C21.4313 51.2339 27.7203 38.5776 38.6844 30.268C39.666 29.5171 41.0719 29.7174 41.8206 30.7018C42.5693 31.6946 42.3696 33.0963 41.388 33.8471C31.5552 41.2974 25.9151 52.6522 25.9151 64.9914C25.9151 86.5079 43.3679 104.003 64.8136 104.003C66.0531 104.003 67.0514 105.004 67.0514 106.247C67.0514 107.499 66.0531 108.508 64.8136 108.508Z" fill="url(#paint0_linear_6_203)"/>
<path fill-rule="evenodd" clip-rule="evenodd" d="M83.2115 105.539H73.2872H73.2789V108.358H76.8394V121.482H79.6761V108.358H83.2115V105.539ZM94.8581 106.238C93.8931 105.821 92.8699 105.612 91.7718 105.612C90.6654 105.612 89.6256 105.821 88.6606 106.238C87.6957 106.655 86.8555 107.214 86.1401 107.94C85.4246 108.666 84.859 109.508 84.443 110.468C84.0271 111.427 83.8191 112.462 83.8191 113.555C83.8191 114.664 84.0354 115.707 84.443 116.667C84.8506 117.626 85.4246 118.46 86.1401 119.178C86.8555 119.895 87.6957 120.454 88.6606 120.871C89.6256 121.289 90.6654 121.497 91.7718 121.497C92.8699 121.497 93.8931 121.289 94.8581 120.871C95.8148 120.454 96.655 119.887 97.3787 119.178C98.0941 118.469 98.6598 117.626 99.0757 116.667C99.4917 115.707 99.6996 114.664 99.6996 113.555C99.6996 112.462 99.4917 111.427 99.0757 110.468C98.6681 109.5 98.0941 108.657 97.3787 107.94C96.6633 107.222 95.8231 106.655 94.8581 106.238ZM96.4636 111.569C96.7298 112.195 96.8629 112.862 96.8629 113.563C96.8629 114.28 96.7381 114.948 96.4636 115.565C96.1974 116.183 95.8314 116.725 95.3739 117.184C94.908 117.651 94.3673 118.01 93.7434 118.277C93.1195 118.544 92.454 118.677 91.7552 118.677C91.0315 118.677 90.366 118.544 89.7504 118.277C89.1348 118.01 88.5941 117.643 88.1365 117.184C87.6707 116.725 87.313 116.183 87.0468 115.565C86.7806 114.948 86.6475 114.28 86.6475 113.563C86.6475 112.854 86.7806 112.195 87.0468 111.569C87.313 110.943 87.679 110.401 88.1365 109.942C88.5941 109.483 89.1348 109.116 89.7504 108.841C90.366 108.566 91.0398 108.432 91.7552 108.432C92.454 108.432 93.1195 108.566 93.7434 108.841C94.3673 109.116 94.9163 109.483 95.3739 109.942C95.8314 110.401 96.1974 110.943 96.4636 111.569ZM115.038 105.589C115.071 106.949 115.096 108.342 115.104 109.769C115.121 111.195 115.129 112.588 115.129 113.948V114.232V114.833C115.129 115.025 115.113 115.217 115.08 115.408V115.383C115.005 116.334 114.788 117.194 114.447 117.945C114.106 118.696 113.64 119.338 113.066 119.855C112.484 120.381 111.81 120.781 111.028 121.065C110.246 121.349 109.381 121.49 108.433 121.49C107.526 121.49 106.686 121.34 105.912 121.04C105.139 120.74 104.456 120.322 103.874 119.78C103.292 119.238 102.818 118.595 102.46 117.853C102.102 117.11 101.886 116.284 101.803 115.375C101.769 115.141 101.753 114.891 101.753 114.624V113.823V113.448V111.571C101.753 110.962 101.761 110.336 101.778 109.693V108.742C101.778 108.375 101.778 107.992 101.786 107.599L101.787 107.551C101.795 107.176 101.803 106.817 101.803 106.473V105.58H104.614V115.233C104.614 115.734 104.723 116.193 104.939 116.61C105.155 117.027 105.446 117.377 105.804 117.669C106.162 117.961 106.569 118.187 107.035 118.353C107.493 118.52 107.959 118.604 108.424 118.604C108.89 118.604 109.356 118.52 109.805 118.353C110.255 118.187 110.662 117.961 111.012 117.669C111.361 117.377 111.644 117.027 111.868 116.61C112.085 116.193 112.193 115.734 112.193 115.233V105.58H115.038V105.589ZM128.125 120.865C129.081 120.448 129.98 119.847 130.82 119.046L128.79 117.11C128.241 117.611 127.651 117.995 127.018 118.27C126.386 118.545 125.754 118.679 125.13 118.679C124.415 118.679 123.741 118.545 123.117 118.278C122.493 118.011 121.944 117.653 121.478 117.185C121.012 116.718 120.646 116.176 120.38 115.55C120.114 114.925 119.981 114.249 119.981 113.531C119.981 112.83 120.114 112.163 120.388 111.537C120.663 110.912 121.037 110.361 121.503 109.894C121.969 109.427 122.518 109.059 123.15 108.792C123.782 108.525 124.448 108.392 125.155 108.392C125.779 108.392 126.403 108.525 127.027 108.801C127.651 109.068 128.233 109.46 128.782 109.96L130.82 108.008C129.988 107.207 129.098 106.607 128.15 106.189C127.201 105.772 126.203 105.564 125.155 105.564C124.048 105.564 123.009 105.772 122.044 106.189C121.079 106.607 120.23 107.174 119.498 107.883C118.766 108.601 118.192 109.443 117.776 110.411C117.36 111.379 117.152 112.422 117.152 113.531C117.152 114.641 117.36 115.684 117.776 116.652C118.192 117.619 118.758 118.47 119.481 119.188C120.205 119.914 121.054 120.473 122.019 120.881C122.984 121.29 124.024 121.49 125.13 121.49C126.17 121.49 127.176 121.282 128.125 120.865ZM141.476 105.564H144.312V121.482H141.476V114.674H135.361V121.482H132.525V105.564H135.361V111.954H141.476V105.564ZM164.311 106.238C163.346 105.821 162.322 105.612 161.224 105.612C160.118 105.612 159.078 105.821 158.121 106.238C157.165 106.655 156.325 107.222 155.601 107.94C154.885 108.666 154.32 109.508 153.904 110.468C153.488 111.427 153.28 112.462 153.28 113.555C153.28 114.664 153.488 115.707 153.904 116.667C154.32 117.626 154.885 118.469 155.601 119.178C156.316 119.895 157.156 120.454 158.121 120.871C159.078 121.289 160.118 121.497 161.224 121.497C162.322 121.497 163.346 121.289 164.311 120.871C165.267 120.454 166.107 119.887 166.831 119.178C167.547 118.469 168.112 117.626 168.528 116.667C168.944 115.707 169.152 114.664 169.152 113.555C169.152 112.462 168.944 111.427 168.528 110.468C168.112 109.5 167.547 108.657 166.831 107.94C166.116 107.222 165.276 106.655 164.311 106.238ZM165.916 111.569C166.182 112.195 166.315 112.862 166.315 113.563C166.315 114.28 166.182 114.948 165.916 115.565C165.65 116.183 165.284 116.725 164.826 117.184C164.361 117.651 163.82 118.01 163.196 118.277C162.572 118.544 161.906 118.677 161.208 118.677C160.484 118.677 159.818 118.544 159.203 118.277C158.587 118.01 158.047 117.643 157.589 117.184C157.132 116.725 156.765 116.183 156.499 115.565C156.233 114.948 156.1 114.28 156.1 113.563C156.1 112.854 156.233 112.195 156.499 111.569C156.765 110.943 157.132 110.401 157.589 109.942C158.047 109.483 158.587 109.116 159.203 108.841C159.818 108.566 160.492 108.432 161.208 108.432C161.906 108.432 162.572 108.566 163.196 108.841C163.82 109.116 164.369 109.483 164.826 109.942C165.284 110.401 165.65 110.943 165.916 111.569ZM176.35 105.564C177.115 105.564 177.822 105.681 178.471 105.914C179.12 106.148 179.677 106.481 180.151 106.915C180.617 107.349 180.983 107.875 181.241 108.5C181.499 109.126 181.632 109.835 181.632 110.636C181.632 112.338 181.175 113.631 180.26 114.499C179.345 115.367 178.047 115.801 176.358 115.801H174.253V121.482H171.417V105.564H176.35ZM174.253 112.914H174.254C174.328 112.914 174.412 112.914 174.486 112.922C174.561 112.931 174.644 112.931 174.719 112.931H174.719C174.986 112.947 175.252 112.956 175.526 112.964C175.801 112.972 176.075 112.972 176.349 112.972H176.35C177.09 112.972 177.689 112.797 178.13 112.438C178.571 112.08 178.796 111.512 178.796 110.745C178.796 110.002 178.571 109.418 178.13 109.001C177.689 108.584 177.09 108.375 176.35 108.375H174.253V112.914ZM187.751 108.701C188.075 108.434 188.45 108.292 188.891 108.292C189.34 108.292 189.772 108.4 190.197 108.659C190.621 108.918 191.012 109.251 191.37 109.66L192.143 108.792C192.163 108.769 192.184 108.744 192.205 108.719C192.335 108.566 192.489 108.384 192.667 108.183C192.884 107.95 193.05 107.75 193.175 107.574C192.909 107.266 192.601 106.982 192.26 106.732C191.919 106.481 191.561 106.273 191.187 106.098C190.812 105.931 190.43 105.797 190.047 105.714C189.664 105.622 189.298 105.58 188.957 105.58C188.308 105.58 187.684 105.664 187.11 105.847C186.528 106.031 186.029 106.298 185.596 106.657C185.172 107.015 184.831 107.466 184.582 108.008C184.332 108.55 184.207 109.185 184.207 109.902C184.207 110.494 184.315 111.012 184.532 111.462C184.748 111.913 185.039 112.313 185.397 112.664C185.754 113.022 186.154 113.331 186.595 113.606C187.027 113.882 187.476 114.14 187.926 114.391C188.267 114.582 188.591 114.766 188.907 114.958C189.223 115.15 189.498 115.342 189.731 115.534C189.972 115.734 190.155 115.942 190.297 116.168C190.438 116.401 190.504 116.643 190.504 116.91C190.504 117.502 190.313 117.945 189.93 118.237C189.548 118.529 189.065 118.671 188.491 118.671C188.258 118.671 188.009 118.645 187.751 118.587C187.493 118.529 187.244 118.437 187.002 118.303C186.761 118.178 186.536 118.003 186.337 117.803C186.137 117.603 185.962 117.361 185.821 117.077C185.766 117.119 185.706 117.164 185.641 117.212C185.541 117.287 185.43 117.369 185.314 117.461C185.199 117.551 185.079 117.64 184.956 117.732C184.874 117.794 184.79 117.856 184.706 117.92L184.703 117.922C184.496 118.071 184.289 118.221 184.099 118.362C183.899 118.504 183.733 118.62 183.592 118.712C184.141 119.655 184.848 120.347 185.721 120.781C186.595 121.223 187.485 121.44 188.391 121.44C189.14 121.44 189.831 121.332 190.455 121.123C191.078 120.906 191.619 120.606 192.068 120.206C192.518 119.805 192.875 119.305 193.133 118.712C193.391 118.112 193.516 117.427 193.516 116.643C193.516 116.034 193.399 115.5 193.175 115.05C192.95 114.599 192.659 114.19 192.301 113.832C191.944 113.473 191.536 113.156 191.087 112.88C190.638 112.605 190.18 112.347 189.731 112.096C189.398 111.921 189.09 111.754 188.791 111.579C188.5 111.404 188.233 111.22 188.009 111.037C187.784 110.853 187.601 110.661 187.468 110.453C187.335 110.244 187.268 110.019 187.268 109.769C187.268 109.326 187.427 108.968 187.751 108.701Z" fill="url(#paint1_linear_6_203)"/>
<path fill-rule="evenodd" clip-rule="evenodd" d="M88.9945 44.166C86.3575 41.5296 83.2463 39.4272 79.7274 37.9088C76.2003 36.3904 72.3903 35.6145 68.3889 35.6145C64.3294 35.6145 60.4861 36.382 56.959 37.9088C53.4484 39.4272 50.3289 41.5296 47.6919 44.166C45.0548 46.8024 42.9585 49.9226 41.4445 53.4434C39.9304 56.9725 39.1568 60.7935 39.1568 64.8065C39.1568 68.8778 39.9221 72.724 41.4445 76.253C42.9585 79.7738 45.0631 82.8857 47.7002 85.497C50.3372 88.1084 53.4484 90.1941 56.9673 91.7125C60.4861 93.2309 64.3294 94.0068 68.3973 94.0068C72.4069 94.0068 76.2169 93.2393 79.7441 91.7125C83.2629 90.1941 86.3741 88.1084 89.0112 85.497C91.6482 82.894 93.7529 79.7821 95.2669 76.253C96.7809 72.724 97.5545 68.8695 97.5545 64.8065C97.5545 60.8019 96.7809 56.9725 95.2669 53.4434C93.7362 49.9226 91.6316 46.8024 88.9945 44.166ZM68.3474 46.6689C70.8264 46.6689 73.1972 47.1611 75.3933 48.1206C77.5978 49.0883 79.5444 50.3982 81.1666 52.0251C82.7887 53.6519 84.0865 55.5959 85.0265 57.7984C85.9582 60.0009 86.4323 62.3787 86.4323 64.8565C86.4323 67.3928 85.9582 69.7789 85.0265 71.9564C84.0865 74.1339 82.7887 76.0611 81.1666 77.688C79.5444 79.3065 77.6061 80.608 75.4017 81.5508C73.2055 82.4852 70.8264 82.9608 68.3474 82.9608C65.8101 82.9608 63.4226 82.4852 61.2514 81.5508C59.0719 80.6164 57.1503 79.3149 55.5198 77.688C53.8977 76.0611 52.5999 74.1339 51.6599 71.9564C50.7282 69.7872 50.254 67.4011 50.254 64.8565C50.254 62.3787 50.7282 60.0009 51.6682 57.7984C52.5999 55.5959 53.8977 53.6519 55.5281 52.0251C57.1503 50.3982 59.0802 49.0883 61.2598 48.1206C63.431 47.1528 65.8101 46.6689 68.3474 46.6689ZM136.51 36.4662V66.7178L104.682 35.9073V93.9993H115.613V62.5797L147.449 94.5916V36.4662H136.51ZM173.838 64.848L155.852 85.2131V93.5227H199.642V74.4007H189.826V83.2275H171.018L186.94 64.5726L170.635 46.8522H189.111V54.5361H198.919V36.9324H155.778V45.0418L173.838 64.848Z" fill="url(#paint2_linear_6_203)"/>
<defs>
<linearGradient id="paint0_linear_6_203" x1="-2.21357e-07" y1="12.7679" x2="105.185" y2="70.8176" gradientUnits="userSpaceOnUse">
<stop stop-color="#9B9B9B"/>
<stop offset="1" stop-color="#545454"/>
</linearGradient>
<linearGradient id="paint1_linear_6_203" x1="51.5755" y1="121.806" x2="127.72" y2="50.8594" gradientUnits="userSpaceOnUse">
<stop stop-color="#A5A5A5"/>
<stop offset="1" stop-color="#7D7D7D"/>
</linearGradient>
<linearGradient id="paint2_linear_6_203" x1="8.66689" y1="75.3999" x2="197.427" y2="94.9172" gradientUnits="userSpaceOnUse">
<stop stop-color="#A5A5A5"/>
<stop offset="1" stop-color="#7D7D7D"/>
</linearGradient>
</defs>
</svg>
