<svg width="145" height="274" viewBox="0 0 145 274" fill="none" xmlns="http://www.w3.org/2000/svg">
<path d="M15.0984 39.0791C15.0984 39.0791 12.7895 31.293 11.0578 29.2641C9.32609 27.2352 5.84205 27.8943 3.84234 26.4936C1.84263 25.093 2.28582 28.2239 4.95554 28.8521C4.95554 28.8521 2.22399 28.3166 2.32706 31.0046C2.43014 33.6927 11.0681 40.3356 11.0681 40.3356L15.0984 39.0791Z" fill="#EF6E4B"/>
<path d="M83.0586 0.0353968C100.242 -0.819426 103.674 13.9288 101.85 31.2313C100.025 48.5337 103.983 70.5737 106.364 79.1323C107.748 84.474 107.387 90.1178 105.334 95.24C105.334 95.24 107.457 88.834 103.746 79.1323C103.746 79.1323 109.673 98.8653 93.7374 102.532C77.8016 106.198 74.266 100.544 69.5966 73.0249C64.9272 45.5058 58.1755 1.29188 83.0586 0.0353968Z" fill="#BF00FF"/>
<path d="M83.0586 0.0353968C100.242 -0.819426 103.674 13.9288 101.85 31.2313C100.025 48.5337 103.983 70.5737 106.364 79.1323C107.748 84.474 107.387 90.1178 105.334 95.24C105.334 95.24 107.457 88.834 103.746 79.1323C103.746 79.1323 109.673 98.8653 93.7374 102.532C77.8016 106.198 74.266 100.544 69.5966 73.0249C64.9272 45.5058 58.1755 1.29188 83.0586 0.0353968Z" fill="#505162"/>
<path d="M128.053 65.146C130.898 64.5384 138.041 73.1999 138.175 78.988L128.64 84.1375L128.053 65.146Z" fill="#A2A2A2"/>
<path d="M132.319 93.2834C134.834 86.074 135.648 65.8467 133.803 56.7217L129.278 57.1439C129.278 57.1439 126.299 79.1221 123.238 85.8474C120.176 92.5727 120.712 98.0312 125.021 100.74C129.329 103.449 131.772 94.8076 132.319 93.2834Z" fill="#FF8B66"/>
<path d="M112.075 252.919L104.973 254.587C104.973 254.587 93.8304 194.915 91.2638 188.612C89.0579 183.174 79.6469 162.37 76.5237 146.385C75.6954 146.361 74.8725 146.243 74.0704 146.035L73.0396 145.809L72.0088 145.592C71.7408 161.515 68.2774 181.155 67.2157 186.665C65.9375 193.339 66.6281 254.072 66.6281 254.072L59.3096 253.836C45.425 204.657 52.7539 186.181 52.7539 186.181C52.7539 186.181 40.0238 141.895 44.5076 126.302C45.8947 121.552 47.617 116.906 49.6615 112.398C49.8059 112.079 49.9398 111.76 50.1048 111.451C51.9515 107.311 54.0977 103.311 56.5265 99.4834L71.4006 101.348L71.545 101.1L71.9779 101.183V105.848L73.8642 105.756H74.2868L80.4715 105.426H81.3167L86.718 105.138C86.718 105.138 89.965 110.287 94.5829 118.526C94.7478 118.846 94.9333 119.165 95.0982 119.484C96.7372 122.461 98.5411 125.798 100.427 129.433C107.89 143.852 105.344 185.336 105.344 185.336C105.344 185.336 116.126 201.99 112.075 252.919Z" fill="#787B8E"/>
<path d="M61.4241 101.193C61.4241 101.307 57.538 110.462 49.6113 112.399C49.7556 112.079 49.8896 111.76 50.0546 111.451C57.1669 109.237 60.6407 100.998 60.6819 100.895L61.4241 101.193Z" fill="#282B3E"/>
<path d="M95.0972 119.464C86.2119 117.558 81.6971 108.268 80.4705 105.395C80.254 104.88 80.1509 104.571 80.1406 104.551L80.8931 104.283C80.8931 104.283 81.0374 104.705 81.3157 105.313C82.5836 108.258 86.7479 116.394 94.5818 118.465C94.7468 118.825 94.9323 119.144 95.0972 119.464Z" fill="#282B3E"/>
<path d="M74.051 146.035L73.0202 145.809C70.4535 140.737 68.5812 135.344 67.454 129.773C64.6812 117.476 70.9896 104.365 71.0515 104.242L71.773 104.592C71.7111 104.715 65.5161 117.579 68.2271 129.598C68.3405 130.113 68.4642 130.628 68.5776 131.081L68.7631 131.854C69.8865 136.795 71.6648 141.564 74.051 146.035Z" fill="#282B3E"/>
<path d="M68.3282 131.894H68.2148V131.101C68.4682 131.095 68.7168 131.032 68.9431 130.918C69.1694 130.804 69.3677 130.642 69.5239 130.442C70.0496 129.845 71.1732 127.94 70.2661 123.233C69.0498 116.971 73.6883 105.992 73.8841 105.529L74.6159 105.848C74.6159 105.951 69.8744 117.064 71.0495 123.089C71.9875 127.919 70.8742 130.071 70.1218 130.926C69.9079 131.205 69.6376 131.435 69.3285 131.602C69.0194 131.769 68.6785 131.868 68.3282 131.894Z" fill="#282B3E"/>
<path d="M86.7171 105.065C81.5976 106.552 76.2011 106.821 70.9588 105.852C65.7164 104.883 60.7737 102.702 56.5256 99.4833C56.5256 99.4833 53.8044 43.5696 58.9789 39.8208C61.2466 38.1832 65.7202 39.5015 70.0288 41.4995C73.8087 43.3177 77.4442 45.4214 80.9036 47.7923C80.9036 47.7923 90.5517 46.4328 98.1588 47.267C103.003 47.782 107.003 49.2032 107.188 52.4165C107.663 60.6764 86.7171 105.065 86.7171 105.065Z" fill="#FF8B66"/>
<path d="M98.5716 47.3906C95.3143 47.0507 94.7062 49.5225 91.4489 50.7069C88.636 51.7384 85.7293 52.4938 82.7698 52.9624C81.2855 53.0962 80.502 54.9398 80.502 54.9398C80.502 54.9398 79.9763 52.4474 79.1723 52.2414C78.3683 52.0354 71.4724 45.0321 70.0293 41.4995C73.8091 43.3177 77.4446 45.4213 80.9041 47.7922C80.9041 47.7922 90.5522 46.4327 98.1593 47.267L98.5716 47.3906Z" fill="#EF6E4B"/>
<path d="M55.98 260.035C56.4233 256.945 55.2998 254.824 56.0935 253.361C57.3304 251.096 58.6291 253.959 58.6291 253.959C58.7322 250.508 64.5252 250.508 65.1025 252.095C65.2497 252.493 65.4218 252.882 65.6178 253.258C65.9786 252.424 66.5868 251.621 67.3805 252.095C70.4728 253.948 66.628 258.727 69.4421 262.208C73.0292 266.647 70.8233 273.352 70.8233 273.352H53.6505C51.6405 263.949 55.4956 263.063 55.98 260.035Z" fill="#444444"/>
<path d="M66.5885 258.903C66.5885 258.903 62.5272 256.771 57.1465 259.593L58.1773 257.646C59.3751 256.99 60.7012 256.6 62.0642 256.504C63.4272 256.408 64.7948 256.608 66.0731 257.09L66.5885 258.903Z" fill="#ADBEC4"/>
<path d="M67.2981 262.126C63.6059 260.995 59.6236 261.285 56.1348 262.94L57.1655 260.88C57.1655 260.88 62.3195 258.666 66.6075 260.324L67.2981 262.126Z" fill="#ADBEC4"/>
<path d="M116.531 258.164C116.078 255.074 117.201 252.953 116.407 251.49C115.181 249.224 113.882 252.088 113.882 252.088C113.779 248.637 107.986 248.637 107.409 250.223C107.244 250.646 107.069 251.027 106.893 251.387C106.533 250.553 105.924 249.75 105.131 250.223C102.038 252.077 105.883 256.856 103.069 260.337C99.4923 264.776 101.698 271.481 101.698 271.481H118.871C120.819 262.078 116.923 261.192 116.531 258.164Z" fill="#444444"/>
<path d="M104.625 258.903C104.625 258.903 108.686 256.771 114.067 259.593L113.036 257.646C111.84 256.99 110.516 256.601 109.154 256.505C107.793 256.409 106.427 256.608 105.151 257.09L104.625 258.903Z" fill="#ADBEC4"/>
<path d="M103.943 262.126C107.636 260.995 111.618 261.285 115.107 262.94L114.076 260.88C114.076 260.88 108.922 258.666 104.634 260.324L103.943 262.126Z" fill="#ADBEC4"/>
<path d="M79.6574 29.3054C79.6574 29.3054 80.8943 44.2287 76.7402 46.3607C76.7402 46.3607 79.8326 52.0251 88.0788 48.575C88.0788 48.575 86.6872 40.9021 92.1298 31.7875C95.7478 25.6801 79.6574 29.3054 79.6574 29.3054Z" fill="#EF6E4B"/>
<path d="M99.6345 57.6895C93.0044 59.4322 86.0652 59.6506 79.3385 58.328C67.9999 56.1446 62.9285 49.7901 62.9285 49.7901C62.9285 49.7901 48.3945 40.0163 56.5273 99.4831C56.5273 99.4831 66.8351 111.749 86.7188 105.065C86.7188 105.065 111.385 69.2141 99.6345 57.6895Z" fill="#E1D5EB"/>
<path d="M95.6971 22.0551C95.6971 22.0551 98.7895 18.4711 99.5007 22.3332C100.315 26.8236 96.3465 28.9555 95.4394 27.5754C94.5324 26.1953 95.6971 22.0551 95.6971 22.0551Z" fill="#FF8B66"/>
<path d="M72.3058 24.0735C72.3058 24.0735 68.7084 20.9837 68.5847 24.9283C68.461 29.4805 72.7078 30.9944 73.3984 29.4908C74.089 27.9871 72.3058 24.0735 72.3058 24.0735Z" fill="#FF8B66"/>
<path d="M85.6073 39.2955C93.0392 38.7291 96.8531 33.5589 95.7501 19.0269C95.1729 11.5292 91.0086 7.22421 82.6902 7.85245C74.3718 8.4807 71.2176 13.3521 71.7948 20.8499C73.0215 36.4633 77.9383 39.8722 85.6073 39.2955Z" fill="#FF8B66"/>
<path d="M77.142 16.6482C77.207 16.6983 77.2867 16.7255 77.3687 16.7255C77.4508 16.7255 77.5306 16.6983 77.5955 16.6482C78.452 16.0433 79.5017 15.7756 80.5436 15.8964C80.642 15.91 80.7418 15.8841 80.8211 15.8242C80.9003 15.7643 80.9525 15.6754 80.9662 15.5771C80.9799 15.4788 80.9538 15.379 80.8939 15.2998C80.834 15.2207 80.7451 15.1685 80.6467 15.1548C79.3934 15.0089 78.1311 15.3398 77.111 16.0817C77.0765 16.1162 77.0491 16.1571 77.0303 16.2022C77.0116 16.2473 77.002 16.2956 77.002 16.3444C77.002 16.3932 77.0116 16.4415 77.0303 16.4866C77.0491 16.5316 77.0765 16.5726 77.111 16.607L77.142 16.6482Z" fill="#3F4258"/>
<path d="M88.0386 16.0403C88.1023 16.0608 88.1708 16.0608 88.2345 16.0403C89.2801 15.9467 90.3241 16.2359 91.1722 16.854C91.2059 16.8898 91.2466 16.9184 91.2918 16.9379C91.337 16.9575 91.3858 16.9675 91.435 16.9675C91.4843 16.9675 91.533 16.9575 91.5782 16.9379C91.6234 16.9184 91.6642 16.8898 91.6979 16.854C91.7325 16.8195 91.7599 16.7786 91.7787 16.7335C91.7974 16.6885 91.807 16.6402 91.807 16.5914C91.807 16.5426 91.7974 16.4942 91.7787 16.4492C91.7599 16.4041 91.7325 16.3632 91.6979 16.3287C90.7008 15.5497 89.4432 15.1812 88.183 15.2988C88.0854 15.3117 87.9966 15.3618 87.9351 15.4385C87.8737 15.5153 87.8443 15.6128 87.8531 15.7108C87.8536 15.7769 87.8709 15.8418 87.9034 15.8994C87.9358 15.9571 87.9824 16.0055 88.0386 16.0403V16.0403Z" fill="#0E3944"/>
<path d="M78.409 21.931C78.4811 22.8579 78.945 23.5685 79.4398 23.5273C79.9346 23.4861 80.316 22.7137 80.2438 21.7971C80.1717 20.8804 79.6975 20.1595 79.213 20.1904C78.7286 20.2213 78.3368 21.0143 78.409 21.931Z" fill="#3F4258"/>
<path d="M88.8816 21.087C88.9538 22.0036 89.4177 22.7245 89.9124 22.6833C90.4072 22.6421 90.7886 21.8697 90.7164 20.9428C90.6443 20.0159 90.1701 19.3052 89.6856 19.3464C89.2012 19.3876 88.8095 20.1601 88.8816 21.087Z" fill="#3F4258"/>
<path d="M88.07 28.5125C88.07 28.5125 83.4934 29.5424 81.0195 28.4507C81.0195 28.4507 82.545 33.6002 85.0395 33.1058C87.534 32.6115 88.07 28.5125 88.07 28.5125Z" fill="#3F4258"/>
<path d="M80.8762 21.2823C80.8762 21.2823 80.0206 19.068 79.1444 19.2946C78.2683 19.5211 77.7323 21.5295 77.7323 21.5295L76.3613 20.9321L77.6911 21.0042C77.6911 21.0042 78.2271 18.9444 79.1032 18.8517C80.3608 18.7487 80.8762 21.2823 80.8762 21.2823Z" fill="#3F4258"/>
<path d="M88.1016 21.0146C88.1016 21.0146 88.6066 18.6973 89.5137 18.79C90.4208 18.8827 91.2351 20.7778 91.2351 20.7778L92.503 19.9744L91.2042 20.2525C91.2042 20.2525 90.359 18.2751 89.4725 18.3369C88.215 18.3884 88.1016 21.0146 88.1016 21.0146Z" fill="#3F4258"/>
<path d="M80.8746 8.08964C80.8746 8.08964 87.6881 18.3887 96.4291 20.5618C97.2029 18.4051 97.3737 16.0784 96.9233 13.8319C96.4729 11.5854 95.4182 9.50408 93.8727 7.81156C88.4817 1.73511 78.6172 5.70025 78.6172 5.70025C78.6172 5.70025 80.1118 16.7306 96.2538 21.5505C96.2538 21.5299 82.5548 15.7933 80.8746 8.08964Z" fill="#BF00FF"/>
<path d="M80.8746 8.08964C80.8746 8.08964 87.6881 18.3887 96.4291 20.5618C97.2029 18.4051 97.3737 16.0784 96.9233 13.8319C96.4729 11.5854 95.4182 9.50408 93.8727 7.81156C88.4817 1.73511 78.6172 5.70025 78.6172 5.70025C78.6172 5.70025 80.1118 16.7306 96.2538 21.5505C96.2538 21.5299 82.5548 15.7933 80.8746 8.08964Z" fill="#505162"/>
<path d="M80.0071 8.19227C77.4714 9.06769 74.4512 13.3933 74.008 18.0485C73.5647 22.7036 72.0907 23.9086 72.0907 23.9086C70.9554 22.8896 70.0985 21.5984 69.6008 20.157C69.1031 18.7155 68.9809 17.1711 69.2458 15.6694C69.9879 10.1594 78.2857 6.31783 79.6154 6.40023C80.9451 6.48262 80.0071 8.19227 80.0071 8.19227Z" fill="#505162"/>
<path d="M17.3567 46.8755C14.4602 46.649 8.54358 56.1962 9.18266 61.9431L19.3152 65.7331L17.3567 46.8755Z" fill="#A2A2A2"/>
<path d="M16.946 75.3215C13.4723 68.4726 9.94705 48.5439 10.5552 39.2747L15.1009 39.0894C15.1009 39.0894 21.0073 60.4599 24.9345 66.7115C28.8618 72.963 29.0577 78.4524 25.182 81.7069C21.3062 84.9614 17.6778 76.7633 16.946 75.3215Z" fill="#EF6E4B"/>
<path fill-rule="evenodd" clip-rule="evenodd" d="M53.3446 74.2363C46.9273 78.0332 29.896 87.8054 25.0878 87.5042C15.3468 87.1463 9.18359 61.9429 9.18359 61.9429C15.4507 60.8615 17.3577 46.8754 17.3577 46.8754L22.1817 58.2867C22.1817 58.2867 23.4908 57.0302 26.8305 66.4539C27.202 67.5021 27.4742 68.5777 27.6645 69.6614C37.0475 58.7721 55.2141 37.9095 56.98 37.5445C57.3706 37.4639 57.7278 37.4471 58.0538 37.489C61.5053 35.7197 69.1445 41.108 69.1445 41.108C69.1445 41.108 64.0936 96.9393 47.4981 117.496C47.4981 117.496 52.7448 103.304 54.0745 95.0133C54.4923 92.408 54.1447 86.9783 53.7235 80.3993C53.5976 78.4328 53.4651 76.3635 53.3446 74.2363Z" fill="#3F4258"/>
<path fill-rule="evenodd" clip-rule="evenodd" d="M86.0785 105.888C83.5428 94.0754 95.9322 46.1958 95.9322 46.1958C100.163 46.3161 105.908 48.6656 107.696 49.4591C107.875 49.5127 108.06 49.5884 108.252 49.6872C109.513 50.3474 117.104 66.0767 123.219 79.0868C124.226 76.6538 124.845 77.1134 124.845 77.1134L128.051 65.1459C128.051 65.1459 131.823 78.7613 138.173 78.9878C138.173 78.9878 135.681 102.712 127.004 106.129C126.711 106.288 126.398 106.41 126.064 106.487C121.57 107.516 103.953 88.9781 103.953 88.9781C103.953 88.9781 103.874 88.1962 103.756 86.8522C102.073 95.6109 100.835 103.862 101.808 109.69C104.282 124.51 104.57 146.066 104.57 146.066C104.57 146.066 88.6142 117.701 86.0785 105.888Z" fill="#3F4258"/>
<path d="M4.246 28.008C3.30799 27.5343 1.02995 27.8329 0.236251 28.008C-0.557449 28.1831 0.607332 31.8805 4.35937 34.0639C4.63413 33.7722 4.8448 33.4264 4.97794 33.0487C5.11107 32.6709 5.16372 32.2695 5.13245 31.8702C4.95722 30.6446 4.10167 30.7167 4.10167 30.7167C4.81891 30.6666 5.53873 30.6666 6.25597 30.7167C7.02905 30.8094 7.33829 30.3871 6.25597 29.8721C6.25597 29.8721 6.84356 29.6765 5.91586 29.1409C5.86432 29.1409 6.01894 28.8731 4.246 28.008Z" fill="#EF6E4B"/>
<path d="M129.062 57.5249C129.062 57.5249 131.371 49.7491 133.103 47.7201C134.835 45.6912 138.309 46.3504 140.319 44.9497C142.329 43.549 141.875 46.6799 139.205 47.3082C139.205 47.3082 141.937 46.7726 141.834 49.4607C141.731 52.1487 133.093 58.7916 133.093 58.7916L129.062 57.5249Z" fill="#EF6E4B"/>
<path d="M140.236 46.4023C141.143 45.9595 143.328 46.2376 144.07 46.4023C144.812 46.5671 143.73 50.11 140.143 52.2007C139.887 51.9253 139.69 51.6005 139.564 51.2463C139.438 50.8921 139.386 50.5159 139.411 50.1409C139.576 48.9565 140.442 49.0286 140.442 49.0286C139.755 48.9785 139.066 48.9785 138.38 49.0286C137.638 49.1213 137.349 48.7093 138.38 48.2253C138.38 48.2253 137.813 48.0296 138.7 47.5146C138.689 47.4837 138.566 47.2263 140.236 46.4023Z" fill="#EF6E4B"/>
</svg>
