<svg width="191" height="124" viewBox="0 0 191 124" fill="none" xmlns="http://www.w3.org/2000/svg">
<path fill-rule="evenodd" clip-rule="evenodd" d="M0 62C0 96.1871 27.7322 124 61.8202 124C63.0025 124 63.9547 123.045 63.9547 121.851C63.9547 120.666 63.0025 119.711 61.8202 119.711C30.0809 119.711 4.26893 93.8157 4.26893 61.992C4.26893 30.1684 30.0888 4.27339 61.8202 4.27339C84.1409 4.27339 104.644 17.4039 114.047 37.7125C114.539 38.7868 115.809 39.2563 116.88 38.755C117.951 38.2616 118.419 36.9883 117.919 35.914C107.818 14.1014 85.7992 0 61.8202 0C27.7322 0 0 27.8129 0 62ZM61.8199 113.676C33.4053 113.676 10.2912 90.4947 10.2912 61.9975C10.2912 33.5003 33.4053 10.3189 61.8199 10.3189C67.6917 10.3189 73.4445 11.2977 78.9353 13.2395C80.0462 13.6294 80.6334 14.8549 80.2446 15.969C79.8558 17.0831 78.6338 17.672 77.523 17.2821C72.4923 15.5075 67.2156 14.6082 61.8279 14.6082C35.7699 14.6082 14.576 35.8717 14.576 61.9975C14.576 88.1312 35.7779 109.387 61.8279 109.387C63.0102 109.387 63.9623 110.342 63.9623 111.527C63.9544 112.713 63.0022 113.676 61.8199 113.676ZM61.8196 103.5C39.0069 103.5 20.4395 84.8863 20.4395 61.9994C20.4395 48.8688 26.4382 36.7967 36.8963 28.8706C37.8326 28.1544 39.1736 28.3454 39.8877 29.2844C40.6018 30.2314 40.4114 31.5683 39.4751 32.2846C30.0961 39.391 24.7163 50.2217 24.7163 61.9914C24.7163 82.5148 41.3636 99.2025 61.8196 99.2025C63.0018 99.2025 63.954 100.157 63.954 101.343C63.954 102.537 63.0018 103.5 61.8196 103.5Z" fill="url(#paint0_linear_6_151)"/>
<path fill-rule="evenodd" clip-rule="evenodd" d="M79.3709 100.668H69.9047H69.8968V103.357H73.2929V115.875H75.9986V103.357H79.3709V100.668ZM90.4792 101.335C89.5588 100.937 88.5828 100.738 87.5354 100.738C86.48 100.738 85.4882 100.937 84.5678 101.335C83.6473 101.733 82.8459 102.266 82.1635 102.958C81.4811 103.651 80.9415 104.454 80.5448 105.37C80.1481 106.285 79.9497 107.271 79.9497 108.314C79.9497 109.372 80.156 110.367 80.5448 111.282C80.9336 112.197 81.4811 112.993 82.1635 113.678C82.8459 114.362 83.6473 114.895 84.5678 115.293C85.4882 115.691 86.48 115.89 87.5354 115.89C88.5828 115.89 89.5588 115.691 90.4792 115.293C91.3917 114.895 92.1931 114.354 92.8835 113.678C93.5658 113.001 94.1054 112.197 94.5022 111.282C94.8989 110.367 95.0973 109.372 95.0973 108.314C95.0973 107.271 94.8989 106.285 94.5022 105.37C94.1133 104.446 93.5658 103.643 92.8835 102.958C92.2011 102.274 91.3996 101.733 90.4792 101.335ZM92.0106 106.42C92.2645 107.017 92.3915 107.653 92.3915 108.322C92.3915 109.006 92.2725 109.643 92.0106 110.232C91.7567 110.821 91.4076 111.338 90.9712 111.776C90.5268 112.221 90.0111 112.563 89.4159 112.818C88.8208 113.073 88.186 113.2 87.5195 113.2C86.8292 113.2 86.1944 113.073 85.6072 112.818C85.02 112.563 84.5043 112.213 84.0679 111.776C83.6235 111.338 83.2823 110.821 83.0284 110.232C82.7745 109.643 82.6475 109.006 82.6475 108.322C82.6475 107.646 82.7745 107.017 83.0284 106.42C83.2823 105.823 83.6315 105.306 84.0679 104.868C84.5043 104.431 85.02 104.08 85.6072 103.818C86.1944 103.555 86.8371 103.428 87.5195 103.428C88.186 103.428 88.8208 103.555 89.4159 103.818C90.0111 104.08 90.5347 104.431 90.9712 104.868C91.4076 105.306 91.7567 105.823 92.0106 106.42ZM109.728 100.716C109.759 102.013 109.783 103.342 109.791 104.703C109.807 106.063 109.815 107.392 109.815 108.69V108.96V109.533C109.815 109.716 109.799 109.899 109.767 110.082V110.058C109.696 110.966 109.49 111.785 109.164 112.501C108.839 113.218 108.395 113.83 107.847 114.324C107.292 114.825 106.649 115.207 105.903 115.478C105.157 115.748 104.332 115.884 103.427 115.884C102.563 115.884 101.761 115.74 101.023 115.454C100.285 115.167 99.6346 114.769 99.0792 114.252C98.5237 113.735 98.0715 113.122 97.7303 112.414C97.3891 111.706 97.1827 110.918 97.1034 110.05C97.0717 109.828 97.0558 109.589 97.0558 109.334V108.57V108.212V106.422C97.0558 105.841 97.0637 105.244 97.0796 104.631V103.724C97.0796 103.374 97.0796 103.008 97.0875 102.634L97.0885 102.587C97.0961 102.23 97.1034 101.887 97.1034 101.559V100.708H99.7854V109.915C99.7854 110.393 99.8885 110.83 100.095 111.228C100.301 111.626 100.579 111.96 100.92 112.239C101.261 112.517 101.65 112.732 102.094 112.891C102.531 113.05 102.975 113.13 103.42 113.13C103.864 113.13 104.308 113.05 104.737 112.891C105.165 112.732 105.554 112.517 105.887 112.239C106.221 111.96 106.49 111.626 106.705 111.228C106.911 110.83 107.014 110.393 107.014 109.915V100.708H109.728V100.716ZM122.212 115.286C123.124 114.888 123.981 114.315 124.783 113.551L122.846 111.705C122.323 112.182 121.759 112.549 121.156 112.811C120.553 113.074 119.95 113.201 119.355 113.201C118.673 113.201 118.03 113.074 117.435 112.819C116.84 112.564 116.316 112.222 115.872 111.777C115.427 111.331 115.078 110.814 114.824 110.217C114.57 109.62 114.443 108.975 114.443 108.291C114.443 107.623 114.57 106.986 114.832 106.389C115.094 105.792 115.451 105.267 115.896 104.821C116.34 104.376 116.864 104.026 117.467 103.771C118.07 103.516 118.704 103.389 119.379 103.389C119.974 103.389 120.569 103.516 121.164 103.779C121.759 104.034 122.315 104.408 122.838 104.885L124.783 103.023C123.989 102.259 123.14 101.686 122.235 101.288C121.331 100.89 120.379 100.691 119.379 100.691C118.324 100.691 117.332 100.89 116.411 101.288C115.491 101.686 114.682 102.227 113.983 102.904C113.285 103.588 112.737 104.392 112.341 105.315C111.944 106.238 111.746 107.233 111.746 108.291C111.746 109.349 111.944 110.344 112.341 111.267C112.737 112.19 113.277 113.002 113.967 113.687C114.658 114.379 115.467 114.912 116.388 115.302C117.308 115.692 118.3 115.883 119.355 115.883C120.347 115.883 121.307 115.684 122.212 115.286ZM134.947 100.691H137.653V115.875H134.947V109.381H129.115V115.875H126.409V100.691H129.115V106.787H134.947V100.691ZM156.727 101.335C155.807 100.937 154.831 100.738 153.783 100.738C152.728 100.738 151.736 100.937 150.824 101.335C149.911 101.733 149.11 102.274 148.419 102.958C147.737 103.651 147.197 104.454 146.801 105.37C146.404 106.285 146.206 107.271 146.206 108.314C146.206 109.372 146.404 110.367 146.801 111.282C147.197 112.197 147.737 113.001 148.419 113.678C149.102 114.362 149.903 114.895 150.824 115.293C151.736 115.691 152.728 115.89 153.783 115.89C154.831 115.89 155.807 115.691 156.727 115.293C157.64 114.895 158.441 114.354 159.131 113.678C159.814 113.001 160.353 112.197 160.75 111.282C161.147 110.367 161.345 109.372 161.345 108.314C161.345 107.271 161.147 106.285 160.75 105.37C160.353 104.446 159.814 103.643 159.131 102.958C158.449 102.274 157.648 101.733 156.727 101.335ZM158.259 106.42C158.513 107.017 158.639 107.653 158.639 108.322C158.639 109.006 158.513 109.643 158.259 110.232C158.005 110.821 157.656 111.338 157.219 111.776C156.775 112.221 156.259 112.563 155.664 112.818C155.069 113.073 154.434 113.2 153.767 113.2C153.077 113.2 152.442 113.073 151.855 112.818C151.268 112.563 150.752 112.213 150.316 111.776C149.879 111.338 149.53 110.821 149.276 110.232C149.022 109.643 148.896 109.006 148.896 108.322C148.896 107.646 149.022 107.017 149.276 106.42C149.53 105.823 149.879 105.306 150.316 104.868C150.752 104.431 151.268 104.08 151.855 103.818C152.442 103.555 153.085 103.428 153.767 103.428C154.434 103.428 155.069 103.555 155.664 103.818C156.259 104.08 156.783 104.431 157.219 104.868C157.656 105.306 158.005 105.823 158.259 106.42ZM168.21 100.691C168.94 100.691 169.614 100.803 170.233 101.025C170.852 101.248 171.384 101.567 171.836 101.98C172.28 102.394 172.629 102.896 172.875 103.492C173.121 104.089 173.248 104.766 173.248 105.53C173.248 107.153 172.812 108.387 171.939 109.214C171.066 110.042 169.828 110.456 168.218 110.456H166.21V115.875H163.504V100.691H168.21ZM166.21 107.702H166.21C166.282 107.702 166.361 107.702 166.432 107.71C166.504 107.718 166.583 107.718 166.654 107.718H166.655C166.908 107.734 167.162 107.742 167.424 107.75C167.686 107.758 167.948 107.758 168.209 107.758H168.21C168.916 107.758 169.487 107.591 169.908 107.249C170.328 106.906 170.543 106.365 170.543 105.633C170.543 104.925 170.328 104.368 169.908 103.97C169.487 103.572 168.916 103.373 168.21 103.373H166.21V107.702ZM179.086 103.684C179.395 103.429 179.752 103.294 180.173 103.294C180.601 103.294 181.014 103.398 181.419 103.644C181.823 103.891 182.196 104.209 182.537 104.599L183.275 103.772C183.294 103.749 183.314 103.726 183.334 103.702C183.458 103.556 183.605 103.382 183.775 103.191C183.982 102.968 184.14 102.777 184.259 102.61C184.005 102.315 183.712 102.045 183.386 101.806C183.061 101.567 182.72 101.368 182.363 101.201C182.006 101.042 181.641 100.915 181.276 100.835C180.911 100.748 180.562 100.708 180.236 100.708C179.617 100.708 179.022 100.787 178.475 100.962C177.919 101.138 177.443 101.392 177.031 101.734C176.626 102.077 176.301 102.506 176.063 103.024C175.825 103.541 175.706 104.146 175.706 104.83C175.706 105.395 175.809 105.888 176.015 106.318C176.221 106.748 176.499 107.13 176.84 107.464C177.181 107.806 177.562 108.101 177.983 108.363C178.395 108.626 178.824 108.873 179.252 109.111C179.578 109.294 179.887 109.469 180.189 109.652C180.49 109.836 180.752 110.019 180.974 110.202C181.204 110.393 181.379 110.592 181.514 110.806C181.649 111.029 181.712 111.26 181.712 111.515C181.712 112.08 181.53 112.501 181.165 112.78C180.8 113.058 180.339 113.194 179.792 113.194C179.57 113.194 179.332 113.17 179.086 113.114C178.84 113.058 178.602 112.971 178.372 112.844C178.142 112.724 177.927 112.557 177.737 112.366C177.546 112.175 177.38 111.944 177.245 111.674C177.192 111.714 177.135 111.757 177.073 111.803C176.978 111.874 176.872 111.953 176.761 112.04C176.652 112.126 176.537 112.211 176.42 112.299C176.341 112.357 176.261 112.417 176.182 112.478L176.181 112.478C175.983 112.621 175.785 112.764 175.602 112.899C175.412 113.035 175.253 113.146 175.118 113.234C175.642 114.133 176.317 114.793 177.15 115.207C177.983 115.629 178.832 115.836 179.697 115.836C180.411 115.836 181.069 115.732 181.665 115.533C182.26 115.326 182.775 115.04 183.204 114.658C183.632 114.276 183.974 113.799 184.22 113.234C184.466 112.661 184.585 112.008 184.585 111.26C184.585 110.679 184.474 110.17 184.259 109.74C184.045 109.31 183.767 108.92 183.426 108.578C183.085 108.236 182.696 107.934 182.268 107.671C181.839 107.408 181.403 107.162 180.974 106.923C180.657 106.756 180.363 106.597 180.078 106.43C179.8 106.262 179.546 106.087 179.332 105.912C179.118 105.737 178.943 105.554 178.816 105.355C178.689 105.156 178.626 104.941 178.626 104.703C178.626 104.281 178.776 103.939 179.086 103.684Z" fill="#82293E"/>
<path fill-rule="evenodd" clip-rule="evenodd" d="M84.8862 42.128C82.3708 39.6133 79.4032 37.608 76.0468 36.1596C72.6824 34.7113 69.0482 33.9712 65.2316 33.9712C61.3594 33.9712 57.6935 34.7033 54.3292 36.1596C50.9807 37.608 48.0051 39.6133 45.4898 42.128C42.9744 44.6427 40.9748 47.619 39.5307 50.9772C38.0866 54.3434 37.3486 57.9881 37.3486 61.8159C37.3486 65.6993 38.0786 69.3679 39.5307 72.7341C40.9748 76.0924 42.9824 79.0606 45.4977 81.5515C48.013 84.0423 50.9807 86.0318 54.3371 87.4801C57.6935 88.9284 61.3594 89.6685 65.2395 89.6685C69.0641 89.6685 72.6983 88.9364 76.0626 87.4801C79.4191 86.0318 82.3867 84.0423 84.902 81.5515C87.4174 79.0686 89.4249 76.1003 90.869 72.7341C92.3132 69.3679 93.0511 65.6914 93.0511 61.8159C93.0511 57.9961 92.3132 54.3434 90.869 50.9772C89.409 47.619 87.4015 44.6427 84.8862 42.128ZM65.1919 44.5154C67.5565 44.5154 69.8179 44.9849 71.9127 45.9001C74.0154 46.8232 75.8722 48.0726 77.4195 49.6244C78.9668 51.1762 80.2046 53.0304 81.1012 55.1312C81.9899 57.2321 82.4422 59.5001 82.4422 61.8636C82.4422 64.2828 81.9899 66.5588 81.1012 68.6358C80.2046 70.7128 78.9668 72.5511 77.4195 74.1029C75.8722 75.6467 74.0234 76.8881 71.9207 77.7874C69.8259 78.6787 67.5565 79.1323 65.1919 79.1323C62.7718 79.1323 60.4945 78.6787 58.4235 77.7874C56.3446 76.8961 54.5117 75.6547 52.9564 74.1029C51.4091 72.5511 50.1713 70.7128 49.2747 68.6358C48.386 66.5667 47.9337 64.2908 47.9337 61.8636C47.9337 59.5001 48.386 57.2321 49.2826 55.1312C50.1713 53.0304 51.4091 51.1762 52.9644 49.6244C54.5117 48.0726 56.3525 46.8232 58.4315 45.9001C60.5025 44.977 62.7718 44.5154 65.1919 44.5154ZM130.209 34.7834V63.6387L99.8507 34.2502V89.6611H110.277V59.6916L140.644 90.2261V34.7834H130.209ZM165.813 61.8554L148.658 81.2807V89.2067H190.427V70.9672H181.064V79.3867H163.123L178.31 61.5928L162.758 44.6903H180.381V52.0195H189.736V35.2283H148.586V42.9634L165.813 61.8554Z" fill="url(#paint1_linear_6_151)"/>
<defs>
<linearGradient id="paint0_linear_6_151" x1="-1.13824e-06" y1="19.9286" x2="59.0599" y2="124" gradientUnits="userSpaceOnUse">
<stop stop-color="#AE5E80"/>
<stop offset="1" stop-color="#83293F"/>
</linearGradient>
<linearGradient id="paint1_linear_6_151" x1="-93.5636" y1="40.0182" x2="190.428" y2="76.3926" gradientUnits="userSpaceOnUse">
<stop stop-color="#AE5E80"/>
<stop offset="1" stop-color="#83293F"/>
</linearGradient>
</defs>
</svg>
