<svg width="192" height="126" viewBox="0 0 192 126" fill="none" xmlns="http://www.w3.org/2000/svg">
<path fill-rule="evenodd" clip-rule="evenodd" d="M0 62.5122C0 96.9818 27.9613 125.024 62.331 125.024C63.523 125.024 64.4831 124.062 64.4831 122.858C64.4831 121.663 63.523 120.7 62.331 120.7C30.3294 120.7 4.3042 94.5908 4.3042 62.5042C4.3042 30.4177 30.3374 4.3087 62.331 4.3087C84.836 4.3087 105.509 17.5477 114.989 38.0241C115.485 39.1073 116.766 39.5807 117.846 39.0752C118.926 38.5777 119.398 37.2939 118.894 36.2107C108.709 14.2179 86.5081 0 62.331 0C27.9613 0 0 28.0426 0 62.5122ZM62.331 114.615C33.6816 114.615 10.3765 91.2422 10.3765 62.5095C10.3765 33.7768 33.6816 10.404 62.331 10.404C68.2512 10.404 74.0515 11.3909 79.5878 13.3486C80.7078 13.7418 81.2998 14.9774 80.9078 16.1007C80.5158 17.2241 79.2838 17.8178 78.1637 17.4246C73.0915 15.6354 67.7712 14.7287 62.339 14.7287C36.0657 14.7287 14.6967 36.1679 14.6967 62.5095C14.6967 88.8592 36.0737 110.29 62.339 110.29C63.531 110.29 64.4911 111.253 64.4911 112.449C64.4831 113.644 63.523 114.615 62.331 114.615ZM62.3316 104.354C39.3305 104.354 20.6096 85.5869 20.6096 62.5109C20.6096 49.2719 26.6579 37.1 37.2024 29.1085C38.1465 28.3863 39.4985 28.5789 40.2186 29.5257C40.9386 30.4805 40.7466 31.8285 39.8025 32.5506C30.3461 39.7157 24.9218 50.6359 24.9218 62.5029C24.9218 83.1959 41.7066 100.021 62.3316 100.021C63.5237 100.021 64.4837 100.984 64.4837 102.18C64.4837 103.383 63.5237 104.354 62.3316 104.354Z" fill="url(#paint0_linear_6_125)"/>
<path fill-rule="evenodd" clip-rule="evenodd" d="M80.0267 101.5H70.4822H70.4742V104.212H73.8984V116.833H76.6265V104.212H80.0267V101.5ZM91.2276 102.173C90.2995 101.772 89.3155 101.572 88.2594 101.572C87.1954 101.572 86.1954 101.772 85.2673 102.173C84.3393 102.574 83.5312 103.112 82.8432 103.81C82.1552 104.508 81.6111 105.319 81.2111 106.241C80.8111 107.164 80.6111 108.159 80.6111 109.21C80.6111 110.277 80.8191 111.28 81.2111 112.203C81.6031 113.126 82.1552 113.928 82.8432 114.618C83.5312 115.308 84.3393 115.846 85.2673 116.247C86.1954 116.648 87.1954 116.849 88.2594 116.849C89.3155 116.849 90.2995 116.648 91.2276 116.247C92.1476 115.846 92.9557 115.3 93.6517 114.618C94.3397 113.936 94.8838 113.126 95.2838 112.203C95.6838 111.28 95.8838 110.277 95.8838 109.21C95.8838 108.159 95.6838 107.164 95.2838 106.241C94.8918 105.311 94.3397 104.5 93.6517 103.81C92.9637 103.12 92.1556 102.574 91.2276 102.173ZM92.7717 107.3C93.0277 107.902 93.1557 108.544 93.1557 109.218C93.1557 109.908 93.0357 110.55 92.7717 111.144C92.5156 111.737 92.1636 112.259 91.7236 112.7C91.2756 113.15 90.7556 113.495 90.1555 113.751C89.5555 114.008 88.9155 114.137 88.2435 114.137C87.5474 114.137 86.9074 114.008 86.3154 113.751C85.7233 113.495 85.2033 113.142 84.7633 112.7C84.3153 112.259 83.9712 111.737 83.7152 111.144C83.4592 110.55 83.3312 109.908 83.3312 109.218C83.3312 108.536 83.4592 107.902 83.7152 107.3C83.9712 106.699 84.3233 106.177 84.7633 105.736C85.2033 105.294 85.7233 104.941 86.3154 104.677C86.9074 104.412 87.5554 104.283 88.2435 104.283C88.9155 104.283 89.5555 104.412 90.1555 104.677C90.7556 104.941 91.2836 105.294 91.7236 105.736C92.1636 106.177 92.5156 106.699 92.7717 107.3ZM110.634 101.549C110.666 102.857 110.69 104.197 110.698 105.569C110.714 106.941 110.722 108.281 110.722 109.589V109.862V110.439C110.722 110.624 110.706 110.808 110.674 110.993V110.969C110.602 111.883 110.393 112.71 110.065 113.432C109.737 114.154 109.289 114.772 108.737 115.269C108.177 115.775 107.529 116.16 106.777 116.433C106.025 116.706 105.193 116.842 104.281 116.842C103.409 116.842 102.601 116.698 101.857 116.409C101.113 116.12 100.457 115.719 99.897 115.197C99.337 114.676 98.8809 114.058 98.5369 113.344C98.1929 112.63 97.9849 111.835 97.9049 110.961C97.8729 110.736 97.8569 110.495 97.8569 110.239V109.468V109.107V107.302C97.8569 106.716 97.8649 106.114 97.8809 105.497V104.582C97.8809 104.229 97.8809 103.86 97.8889 103.483L97.8899 103.436C97.8976 103.075 97.9049 102.73 97.9049 102.4V101.541H100.609V110.824C100.609 111.306 100.713 111.747 100.921 112.148C101.129 112.549 101.409 112.886 101.753 113.167C102.097 113.448 102.489 113.665 102.937 113.825C103.377 113.986 103.825 114.066 104.273 114.066C104.721 114.066 105.169 113.986 105.601 113.825C106.033 113.665 106.425 113.448 106.761 113.167C107.097 112.886 107.369 112.549 107.585 112.148C107.793 111.747 107.897 111.306 107.897 110.824V101.541H110.634V101.549ZM123.222 116.24C124.143 115.838 125.007 115.261 125.815 114.49L123.862 112.629C123.334 113.11 122.766 113.479 122.158 113.744C121.55 114.009 120.942 114.137 120.342 114.137C119.654 114.137 119.006 114.009 118.406 113.752C117.806 113.495 117.278 113.15 116.83 112.701C116.382 112.252 116.03 111.73 115.774 111.128C115.518 110.527 115.39 109.877 115.39 109.187C115.39 108.513 115.518 107.871 115.782 107.269C116.046 106.667 116.406 106.138 116.854 105.688C117.302 105.239 117.83 104.886 118.438 104.629C119.046 104.373 119.686 104.244 120.366 104.244C120.966 104.244 121.566 104.373 122.166 104.637C122.766 104.894 123.326 105.271 123.854 105.753L125.815 103.875C125.015 103.105 124.159 102.527 123.246 102.126C122.334 101.725 121.374 101.524 120.366 101.524C119.302 101.524 118.302 101.725 117.374 102.126C116.446 102.527 115.63 103.073 114.926 103.755C114.222 104.445 113.67 105.255 113.27 106.186C112.87 107.117 112.67 108.12 112.67 109.187C112.67 110.254 112.87 111.257 113.27 112.188C113.67 113.118 114.214 113.937 114.91 114.627C115.606 115.325 116.422 115.862 117.35 116.256C118.278 116.649 119.278 116.841 120.342 116.841C121.342 116.841 122.31 116.641 123.222 116.24ZM136.061 101.524H138.789V116.833H136.061V110.286H130.181V116.833H127.453V101.524H130.181V107.67H136.061V101.524ZM158.022 102.173C157.094 101.772 156.11 101.572 155.054 101.572C153.99 101.572 152.99 101.772 152.07 102.173C151.15 102.574 150.342 103.12 149.646 103.81C148.957 104.508 148.413 105.319 148.013 106.241C147.613 107.164 147.413 108.159 147.413 109.21C147.413 110.277 147.613 111.28 148.013 112.203C148.413 113.126 148.957 113.936 149.646 114.618C150.334 115.308 151.142 115.846 152.07 116.247C152.99 116.648 153.99 116.849 155.054 116.849C156.11 116.849 157.094 116.648 158.022 116.247C158.942 115.846 159.75 115.3 160.446 114.618C161.134 113.936 161.678 113.126 162.078 112.203C162.478 111.28 162.678 110.277 162.678 109.21C162.678 108.159 162.478 107.164 162.078 106.241C161.678 105.311 161.134 104.5 160.446 103.81C159.758 103.12 158.95 102.574 158.022 102.173ZM159.566 107.3C159.822 107.902 159.95 108.544 159.95 109.218C159.95 109.908 159.822 110.55 159.566 111.144C159.31 111.737 158.958 112.259 158.518 112.7C158.07 113.15 157.55 113.495 156.95 113.751C156.35 114.008 155.71 114.137 155.038 114.137C154.342 114.137 153.702 114.008 153.11 113.751C152.518 113.495 151.998 113.142 151.558 112.7C151.118 112.259 150.766 111.737 150.51 111.144C150.254 110.55 150.126 109.908 150.126 109.218C150.126 108.536 150.254 107.902 150.51 107.3C150.766 106.699 151.118 106.177 151.558 105.736C151.998 105.294 152.518 104.941 153.11 104.677C153.702 104.412 154.35 104.283 155.038 104.283C155.71 104.283 156.35 104.412 156.95 104.677C157.55 104.941 158.078 105.294 158.518 105.736C158.958 106.177 159.31 106.699 159.566 107.3ZM169.6 101.524C170.336 101.524 171.016 101.637 171.64 101.861C172.264 102.086 172.8 102.407 173.257 102.824C173.705 103.241 174.057 103.747 174.305 104.349C174.553 104.95 174.681 105.632 174.681 106.403C174.681 108.039 174.241 109.283 173.361 110.118C172.48 110.952 171.232 111.369 169.608 111.369H167.584V116.833H164.856V101.524H169.6ZM167.584 108.593H167.584C167.656 108.593 167.736 108.593 167.808 108.601C167.88 108.609 167.96 108.609 168.032 108.609H168.032C168.288 108.625 168.544 108.633 168.808 108.641C169.072 108.649 169.336 108.649 169.6 108.649H169.6C170.312 108.649 170.888 108.481 171.312 108.136C171.736 107.791 171.952 107.245 171.952 106.507C171.952 105.793 171.736 105.231 171.312 104.83C170.888 104.429 170.312 104.228 169.6 104.228H167.584V108.593ZM180.565 104.542C180.877 104.285 181.237 104.149 181.661 104.149C182.093 104.149 182.509 104.253 182.917 104.502C183.325 104.75 183.701 105.071 184.045 105.465L184.789 104.63C184.809 104.607 184.829 104.584 184.849 104.559C184.974 104.412 185.122 104.237 185.293 104.044C185.501 103.82 185.661 103.627 185.781 103.459C185.525 103.162 185.229 102.889 184.901 102.648C184.573 102.408 184.229 102.207 183.869 102.038C183.509 101.878 183.141 101.75 182.773 101.669C182.405 101.581 182.053 101.541 181.725 101.541C181.101 101.541 180.501 101.621 179.949 101.798C179.389 101.974 178.909 102.231 178.493 102.576C178.085 102.921 177.757 103.354 177.517 103.876C177.277 104.397 177.157 105.007 177.157 105.697C177.157 106.267 177.261 106.764 177.469 107.198C177.677 107.631 177.957 108.016 178.301 108.353C178.645 108.698 179.029 108.995 179.453 109.26C179.869 109.525 180.301 109.773 180.733 110.014C181.061 110.199 181.373 110.375 181.677 110.56C181.981 110.744 182.245 110.929 182.469 111.113C182.701 111.306 182.877 111.506 183.013 111.723C183.149 111.948 183.213 112.18 183.213 112.437C183.213 113.007 183.029 113.432 182.661 113.713C182.293 113.994 181.829 114.13 181.277 114.13C181.053 114.13 180.813 114.106 180.565 114.05C180.317 113.994 180.077 113.905 179.845 113.777C179.613 113.657 179.397 113.488 179.205 113.296C179.013 113.103 178.845 112.87 178.709 112.598C178.656 112.638 178.598 112.681 178.536 112.727C178.44 112.799 178.333 112.879 178.221 112.967C178.111 113.053 177.995 113.139 177.877 113.228C177.798 113.287 177.717 113.347 177.637 113.408L177.635 113.409C177.436 113.553 177.236 113.697 177.053 113.833C176.861 113.97 176.701 114.082 176.565 114.17C177.093 115.077 177.773 115.743 178.613 116.16C179.453 116.585 180.309 116.794 181.181 116.794C181.901 116.794 182.565 116.69 183.165 116.489C183.765 116.28 184.285 115.992 184.717 115.606C185.149 115.221 185.493 114.74 185.741 114.17C185.989 113.593 186.109 112.935 186.109 112.18C186.109 111.595 185.997 111.081 185.781 110.648C185.565 110.215 185.285 109.821 184.941 109.476C184.597 109.131 184.205 108.826 183.773 108.562C183.341 108.297 182.901 108.048 182.469 107.807C182.149 107.639 181.853 107.478 181.565 107.31C181.285 107.141 181.029 106.965 180.813 106.788C180.597 106.612 180.421 106.427 180.293 106.227C180.165 106.026 180.101 105.81 180.101 105.569C180.101 105.144 180.253 104.799 180.565 104.542Z" fill="#006E4E"/>
<path fill-rule="evenodd" clip-rule="evenodd" d="M85.587 42.4759C83.0509 39.9405 80.0588 37.9185 76.6746 36.4582C73.2824 34.9979 69.6183 34.2517 65.7701 34.2517C61.8659 34.2517 58.1697 34.9899 54.7776 36.4582C51.4014 37.9185 48.4013 39.9405 45.8651 42.4759C43.329 45.0114 41.3129 48.0123 39.8568 51.3982C38.4008 54.7923 37.6567 58.4671 37.6567 62.3265C37.6567 66.242 38.3928 69.9409 39.8568 73.3349C41.3129 76.7209 43.337 79.7137 45.8731 82.2251C48.4093 84.7365 51.4014 86.7424 54.7856 88.2027C58.1697 89.663 61.8659 90.4092 65.7781 90.4092C69.6343 90.4092 73.2984 89.671 76.6906 88.2027C80.0748 86.7424 83.0669 84.7365 85.603 82.2251C88.1391 79.7217 90.1632 76.7289 91.6193 73.3349C93.0754 69.9409 93.8194 66.234 93.8194 62.3265C93.8194 58.4751 93.0754 54.7923 91.6193 51.3982C90.1472 48.0123 88.1231 45.0114 85.587 42.4759ZM65.7301 44.883C68.1142 44.883 70.3943 45.3564 72.5064 46.2792C74.6265 47.2099 76.4986 48.4696 78.0587 50.0342C79.6187 51.5988 80.8668 53.4683 81.7708 55.5866C82.6669 57.7048 83.1229 59.9916 83.1229 62.3746C83.1229 64.8138 82.6669 67.1085 81.7708 69.2027C80.8668 71.2969 79.6187 73.1504 78.0587 74.715C76.4986 76.2716 74.6345 77.5232 72.5144 78.4299C70.4023 79.3286 68.1142 79.7859 65.7301 79.7859C63.29 79.7859 60.9938 79.3286 58.9057 78.4299C56.8096 77.5313 54.9616 76.2796 53.3935 74.715C51.8334 73.1504 50.5854 71.2969 49.6813 69.2027C48.7853 67.1166 48.3293 64.8218 48.3293 62.3746C48.3293 59.9916 48.7853 57.7048 49.6893 55.5866C50.5854 53.4683 51.8334 51.5988 53.4015 50.0342C54.9616 48.4696 56.8177 47.2099 58.9138 46.2792C61.0019 45.3484 63.29 44.883 65.7301 44.883ZM131.285 35.0701V64.1638L100.676 34.5325V90.4012H111.188V60.1841L141.806 90.9709V35.0701H131.285ZM167.183 62.3656L149.886 81.9513V89.9428H192V71.5526H182.56V80.0417H164.471L179.783 62.1008L164.103 45.0585H181.872V52.4483H191.304V35.5184H149.814V43.3174L167.183 62.3656Z" fill="url(#paint1_linear_6_125)"/>
<defs>
<linearGradient id="paint0_linear_6_125" x1="-10.1582" y1="39.8516" x2="99.2382" y2="91.4242" gradientUnits="userSpaceOnUse">
<stop stop-color="#3FA496"/>
<stop offset="1" stop-color="#006E4E"/>
</linearGradient>
<linearGradient id="paint1_linear_6_125" x1="50.0095" y1="74.1808" x2="192.001" y2="77.0234" gradientUnits="userSpaceOnUse">
<stop stop-color="#3FA496"/>
<stop offset="1" stop-color="#006E4E"/>
</linearGradient>
</defs>
</svg>
