<svg width="193" height="126" viewBox="0 0 193 126" fill="none" xmlns="http://www.w3.org/2000/svg">
<path fill-rule="evenodd" clip-rule="evenodd" d="M0 62.8377C0 97.4868 28.1069 125.675 62.6555 125.675C63.8538 125.675 64.8188 124.708 64.8188 123.498C64.8188 122.296 63.8538 121.328 62.6555 121.328C30.4874 121.328 4.32661 95.0833 4.32661 62.8297C4.32661 30.576 30.4954 4.33114 62.6555 4.33114C85.2778 4.33114 106.058 17.6391 115.588 38.2221C116.087 39.3109 117.374 39.7867 118.459 39.2786C119.545 38.7786 120.019 37.4881 119.513 36.3993C109.275 14.2919 86.9586 0 62.6555 0C28.1069 0 0 28.1887 0 62.8377ZM62.6547 115.213C33.8561 115.213 10.4297 91.7179 10.4297 62.8356C10.4297 33.9533 33.8561 10.4587 62.6547 10.4587C68.6058 10.4587 74.4362 11.4508 80.0013 13.4188C81.1272 13.814 81.7223 15.056 81.3283 16.1852C80.9342 17.3144 79.6957 17.9112 78.5698 17.516C73.4712 15.7174 68.1232 14.806 62.6627 14.806C36.2526 14.806 14.7724 36.3568 14.7724 62.8356C14.7724 89.3225 36.2607 110.865 62.6627 110.865C63.861 110.865 64.826 111.833 64.826 113.035C64.818 114.237 63.8529 115.213 62.6547 115.213ZM62.6539 104.899C39.5331 104.899 20.7147 86.0337 20.7147 62.8376C20.7147 49.5296 26.7945 37.2943 37.3939 29.2612C38.3428 28.5353 39.7019 28.7289 40.4257 29.6806C41.1495 30.6404 40.9565 31.9954 40.0075 32.7213C30.5018 39.9237 25.0493 50.9007 25.0493 62.8295C25.0493 83.6302 41.9215 100.543 62.6539 100.543C63.8522 100.543 64.8172 101.511 64.8172 102.713C64.8172 103.923 63.8522 104.899 62.6539 104.899Z" fill="url(#paint0_linear_6_249)"/>
<path fill-rule="evenodd" clip-rule="evenodd" d="M80.4439 102.028H70.8497H70.8417V104.754H74.2837V117.441H77.026V104.754H80.4439V102.028ZM91.7018 102.704C90.7689 102.301 89.7798 102.099 88.7182 102.099C87.6486 102.099 86.6434 102.301 85.7105 102.704C84.7776 103.107 83.9654 103.648 83.2738 104.35C82.5821 105.051 82.0353 105.866 81.6332 106.793C81.2311 107.721 81.03 108.721 81.03 109.778C81.03 110.85 81.2391 111.858 81.6332 112.786C82.0272 113.713 82.5821 114.52 83.2738 115.214C83.9654 115.907 84.7776 116.448 85.7105 116.851C86.6434 117.254 87.6486 117.456 88.7182 117.456C89.7798 117.456 90.7689 117.254 91.7018 116.851C92.6266 116.448 93.4389 115.899 94.1385 115.214C94.8302 114.528 95.377 113.713 95.7791 112.786C96.1812 111.858 96.3823 110.85 96.3823 109.778C96.3823 108.721 96.1812 107.721 95.7791 106.793C95.3851 105.858 94.8302 105.043 94.1385 104.35C93.4469 103.656 92.6347 103.107 91.7018 102.704ZM93.2539 107.858C93.5113 108.463 93.6399 109.108 93.6399 109.786C93.6399 110.479 93.5193 111.124 93.2539 111.721C92.9966 112.318 92.6427 112.842 92.2004 113.286C91.7501 113.738 91.2273 114.084 90.6242 114.343C90.021 114.601 89.3777 114.73 88.7021 114.73C88.0025 114.73 87.3591 114.601 86.764 114.343C86.1689 114.084 85.6462 113.73 85.2038 113.286C84.7535 112.842 84.4077 112.318 84.1503 111.721C83.893 111.124 83.7643 110.479 83.7643 109.786C83.7643 109.1 83.893 108.463 84.1503 107.858C84.4077 107.253 84.7615 106.729 85.2038 106.285C85.6462 105.842 86.1689 105.487 86.764 105.221C87.3591 104.954 88.0105 104.825 88.7021 104.825C89.3777 104.825 90.021 104.954 90.6242 105.221C91.2273 105.487 91.7581 105.842 92.2004 106.285C92.6427 106.729 92.9966 107.253 93.2539 107.858ZM111.211 102.077C111.243 103.391 111.268 104.738 111.276 106.118C111.292 107.497 111.3 108.844 111.3 110.158V110.433V111.013C111.3 111.199 111.284 111.384 111.252 111.57V111.546C111.179 112.465 110.97 113.296 110.64 114.022C110.311 114.748 109.86 115.369 109.305 115.869C108.742 116.377 108.091 116.764 107.335 117.038C106.579 117.312 105.743 117.449 104.826 117.449C103.949 117.449 103.137 117.304 102.389 117.014C101.641 116.724 100.982 116.32 100.419 115.796C99.856 115.272 99.3976 114.651 99.0518 113.933C98.7059 113.215 98.4968 112.417 98.4164 111.537C98.3843 111.312 98.3682 111.07 98.3682 110.812V110.037V109.674V107.86C98.3682 107.271 98.3762 106.666 98.3923 106.045V105.125C98.3923 104.771 98.3923 104.4 98.4004 104.021L98.4014 103.973C98.4091 103.611 98.4164 103.264 98.4164 102.932V102.069H101.135V111.4C101.135 111.884 101.239 112.328 101.448 112.731C101.657 113.134 101.939 113.473 102.285 113.755C102.63 114.038 103.025 114.256 103.475 114.417C103.917 114.578 104.368 114.659 104.818 114.659C105.268 114.659 105.719 114.578 106.153 114.417C106.587 114.256 106.981 114.038 107.319 113.755C107.657 113.473 107.93 113.134 108.147 112.731C108.356 112.328 108.461 111.884 108.461 111.4V102.069H111.211V102.077ZM123.864 116.844C124.788 116.441 125.657 115.86 126.469 115.086L124.507 113.215C123.976 113.699 123.405 114.07 122.794 114.336C122.183 114.602 121.572 114.731 120.968 114.731C120.277 114.731 119.625 114.602 119.022 114.344C118.419 114.086 117.888 113.739 117.438 113.287C116.988 112.836 116.634 112.311 116.376 111.706C116.119 111.102 115.99 110.448 115.99 109.755C115.99 109.077 116.119 108.432 116.384 107.827C116.65 107.222 117.012 106.69 117.462 106.238C117.912 105.786 118.443 105.432 119.054 105.173C119.666 104.915 120.309 104.786 120.993 104.786C121.596 104.786 122.199 104.915 122.802 105.182C123.405 105.44 123.968 105.819 124.499 106.303L126.469 104.415C125.665 103.641 124.804 103.06 123.888 102.657C122.971 102.254 122.006 102.052 120.993 102.052C119.923 102.052 118.918 102.254 117.985 102.657C117.052 103.06 116.232 103.609 115.524 104.294C114.816 104.988 114.261 105.803 113.859 106.738C113.457 107.674 113.256 108.682 113.256 109.755C113.256 110.827 113.457 111.836 113.859 112.771C114.261 113.707 114.808 114.529 115.508 115.223C116.208 115.925 117.028 116.465 117.961 116.86C118.894 117.255 119.899 117.449 120.968 117.449C121.974 117.449 122.947 117.247 123.864 116.844ZM136.77 102.052H139.512V117.441H136.77V110.86H130.859V117.441H128.117V102.052H130.859V108.23H136.77V102.052ZM158.845 102.704C157.913 102.301 156.923 102.099 155.862 102.099C154.792 102.099 153.787 102.301 152.862 102.704C151.937 103.107 151.125 103.656 150.425 104.35C149.734 105.051 149.187 105.866 148.785 106.793C148.383 107.721 148.182 108.721 148.182 109.778C148.182 110.85 148.383 111.858 148.785 112.786C149.187 113.713 149.734 114.528 150.425 115.214C151.117 115.907 151.929 116.448 152.862 116.851C153.787 117.254 154.792 117.456 155.862 117.456C156.923 117.456 157.913 117.254 158.845 116.851C159.77 116.448 160.582 115.899 161.282 115.214C161.974 114.528 162.521 113.713 162.923 112.786C163.325 111.858 163.526 110.85 163.526 109.778C163.526 108.721 163.325 107.721 162.923 106.793C162.521 105.858 161.974 105.043 161.282 104.35C160.591 103.656 159.778 103.107 158.845 102.704ZM160.398 107.858C160.655 108.463 160.784 109.108 160.784 109.786C160.784 110.479 160.655 111.124 160.398 111.721C160.14 112.318 159.786 112.842 159.344 113.286C158.894 113.738 158.371 114.084 157.768 114.343C157.165 114.601 156.521 114.73 155.846 114.73C155.146 114.73 154.503 114.601 153.908 114.343C153.312 114.084 152.79 113.73 152.347 113.286C151.905 112.842 151.551 112.318 151.294 111.721C151.037 111.124 150.908 110.479 150.908 109.786C150.908 109.1 151.037 108.463 151.294 107.858C151.551 107.253 151.905 106.729 152.347 106.285C152.79 105.842 153.312 105.487 153.908 105.221C154.503 104.954 155.154 104.825 155.846 104.825C156.521 104.825 157.165 104.954 157.768 105.221C158.371 105.487 158.902 105.842 159.344 106.285C159.786 106.729 160.14 107.253 160.398 107.858ZM170.483 102.052C171.223 102.052 171.907 102.165 172.534 102.391C173.161 102.617 173.7 102.939 174.159 103.359C174.609 103.778 174.963 104.286 175.212 104.891C175.461 105.496 175.59 106.182 175.59 106.956C175.59 108.601 175.148 109.851 174.263 110.69C173.379 111.529 172.124 111.948 170.491 111.948H168.457V117.441H165.714V102.052H170.483ZM168.457 109.158H168.457C168.529 109.158 168.61 109.158 168.682 109.166C168.754 109.174 168.835 109.174 168.907 109.174H168.907C169.165 109.19 169.422 109.198 169.687 109.206C169.952 109.214 170.218 109.214 170.483 109.214H170.483C171.199 109.214 171.778 109.045 172.204 108.698C172.631 108.351 172.848 107.803 172.848 107.061C172.848 106.343 172.631 105.778 172.204 105.375C171.778 104.972 171.199 104.77 170.483 104.77H168.457V109.158ZM181.507 105.085C181.82 104.827 182.182 104.69 182.608 104.69C183.043 104.69 183.461 104.795 183.871 105.045C184.281 105.295 184.659 105.617 185.005 106.013L185.753 105.174C185.772 105.151 185.792 105.127 185.813 105.103C185.938 104.955 186.087 104.779 186.259 104.585C186.468 104.359 186.629 104.166 186.75 103.996C186.493 103.698 186.195 103.424 185.865 103.182C185.536 102.94 185.19 102.738 184.828 102.569C184.466 102.407 184.096 102.278 183.726 102.198C183.356 102.109 183.002 102.069 182.673 102.069C182.045 102.069 181.442 102.149 180.887 102.327C180.324 102.504 179.842 102.762 179.424 103.109C179.013 103.456 178.684 103.891 178.442 104.416C178.201 104.94 178.081 105.553 178.081 106.247C178.081 106.819 178.185 107.319 178.394 107.755C178.603 108.19 178.885 108.577 179.231 108.916C179.576 109.263 179.962 109.561 180.389 109.828C180.807 110.094 181.241 110.344 181.675 110.586C182.005 110.771 182.319 110.949 182.624 111.134C182.93 111.32 183.195 111.505 183.421 111.691C183.654 111.884 183.831 112.086 183.967 112.304C184.104 112.53 184.168 112.763 184.168 113.022C184.168 113.594 183.983 114.022 183.614 114.304C183.244 114.586 182.777 114.723 182.222 114.723C181.997 114.723 181.756 114.699 181.507 114.643C181.257 114.586 181.016 114.497 180.783 114.368C180.55 114.247 180.332 114.078 180.139 113.885C179.946 113.691 179.777 113.457 179.641 113.183C179.587 113.224 179.529 113.267 179.467 113.313C179.37 113.386 179.263 113.465 179.15 113.554C179.04 113.641 178.923 113.727 178.805 113.816C178.725 113.876 178.644 113.936 178.563 113.997L178.562 113.998C178.361 114.143 178.161 114.288 177.976 114.425C177.783 114.562 177.622 114.675 177.485 114.764C178.016 115.675 178.7 116.344 179.544 116.764C180.389 117.191 181.249 117.401 182.126 117.401C182.85 117.401 183.517 117.296 184.12 117.095C184.723 116.885 185.246 116.595 185.68 116.207C186.115 115.82 186.46 115.336 186.71 114.764C186.959 114.183 187.08 113.522 187.08 112.763C187.08 112.175 186.967 111.658 186.75 111.223C186.533 110.787 186.251 110.392 185.906 110.045C185.56 109.699 185.166 109.392 184.731 109.126C184.297 108.86 183.855 108.61 183.421 108.368C183.099 108.198 182.801 108.037 182.512 107.868C182.23 107.698 181.973 107.521 181.756 107.343C181.539 107.166 181.362 106.981 181.233 106.779C181.104 106.577 181.04 106.359 181.04 106.118C181.04 105.69 181.193 105.343 181.507 105.085Z" fill="#454560"/>
<path fill-rule="evenodd" clip-rule="evenodd" d="M86.0339 42.6972C83.4845 40.1485 80.4768 38.116 77.075 36.6481C73.6652 35.1802 69.9819 34.4301 66.1137 34.4301C62.1892 34.4301 58.4738 35.1722 55.064 36.6481C51.6702 38.116 48.6545 40.1485 46.1051 42.6972C43.5558 45.2459 41.5292 48.2624 40.0656 51.666C38.6019 55.0776 37.854 58.7716 37.854 62.6511C37.854 66.587 38.5939 70.3052 40.0656 73.7168C41.5292 77.1204 43.5639 80.1289 46.1132 82.6533C48.6625 85.1778 51.6702 87.1942 55.072 88.6621C58.4738 90.13 62.1892 90.8801 66.1218 90.8801C69.998 90.8801 73.6813 90.138 77.0911 88.6621C80.4929 87.1942 83.5006 85.1778 86.0499 82.6533C88.5993 80.1369 90.6339 77.1285 92.0976 73.7168C93.5612 70.3052 94.3091 66.5789 94.3091 62.6511C94.3091 58.7797 93.5612 55.0776 92.0976 51.666C90.6178 48.2624 88.5832 45.2459 86.0339 42.6972ZM66.0735 45.1168C68.47 45.1168 70.762 45.5927 72.8851 46.5202C75.0163 47.4558 76.8981 48.7221 78.4663 50.2948C80.0345 51.8676 81.289 53.7468 82.1978 55.8761C83.0985 58.0054 83.5569 60.304 83.5569 62.6995C83.5569 65.1514 83.0985 67.4581 82.1978 69.5631C81.289 71.6682 80.0345 73.5313 78.4663 75.1041C76.8981 76.6688 75.0243 77.927 72.8932 78.8384C70.7701 79.7417 68.47 80.2014 66.0735 80.2014C63.6207 80.2014 61.3126 79.7417 59.2137 78.8384C57.1066 77.935 55.2489 76.6768 53.6727 75.1041C52.1045 73.5313 50.8499 71.6682 49.9412 69.5631C49.0405 67.4661 48.5821 65.1594 48.5821 62.6995C48.5821 60.304 49.0405 58.0054 49.9492 55.8761C50.8499 53.7468 52.1045 51.8676 53.6807 50.2948C55.2489 48.7221 57.1147 47.4558 59.2217 46.5202C61.3207 45.5846 63.6207 45.1168 66.0735 45.1168ZM131.969 35.2533V64.4986L101.2 34.713V90.8725H111.767V60.4981L142.544 91.4452V35.2533H131.969ZM168.054 62.692L150.667 82.3797V90.4129H193V71.9269H183.51V80.4602H165.327L180.72 62.4259L164.957 45.2949H182.819V52.7232H192.3V35.7051H150.594V43.5447L168.054 62.692Z" fill="#454560"/>
<defs>
<linearGradient id="paint0_linear_6_249" x1="7.74514e-07" y1="15.7094" x2="76.7921" y2="43.0099" gradientUnits="userSpaceOnUse">
<stop stop-color="#E0E0F3"/>
<stop offset="1" stop-color="#83839E"/>
</linearGradient>
</defs>
</svg>
