<svg width="191" height="124" viewBox="0 0 191 124" fill="none" xmlns="http://www.w3.org/2000/svg">
<path fill-rule="evenodd" clip-rule="evenodd" d="M0 62C0 96.1871 27.7322 124 61.8202 124C63.0025 124 63.9547 123.045 63.9547 121.851C63.9547 120.666 63.0025 119.711 61.8202 119.711C30.0809 119.711 4.26893 93.8157 4.26893 61.992C4.26893 30.1684 30.0889 4.27339 61.8202 4.27339C84.1409 4.27339 104.644 17.4039 114.047 37.7125C114.539 38.7868 115.809 39.2563 116.88 38.755C117.951 38.2616 118.419 36.9883 117.919 35.914C107.818 14.1014 85.7992 0 61.8202 0C27.7322 0 0 27.8129 0 62ZM61.8201 113.677C33.4055 113.677 10.2913 90.4954 10.2913 61.9982C10.2913 33.5009 33.4055 10.3196 61.8201 10.3196C67.6918 10.3196 73.4446 11.2984 78.9355 13.2401C80.0463 13.63 80.6335 14.8556 80.2447 15.9697C79.8559 17.0838 78.634 17.6727 77.5231 17.2827C72.4924 15.5081 67.2157 14.6089 61.828 14.6089C35.77 14.6089 14.5761 35.8724 14.5761 61.9982C14.5761 88.1319 35.778 109.387 61.828 109.387C63.0103 109.387 63.9625 110.342 63.9625 111.528C63.9545 112.714 63.0024 113.677 61.8201 113.677ZM61.8193 103.5C39.0067 103.5 20.4392 84.8866 20.4392 61.9997C20.4392 48.8692 26.4379 36.797 36.896 28.871C37.8323 28.1548 39.1733 28.3457 39.8874 29.2848C40.6016 30.2318 40.4111 31.5687 39.4748 32.2849C30.0958 39.3913 24.716 50.222 24.716 61.9917C24.716 82.5152 41.3633 99.2029 61.8193 99.2029C63.0016 99.2029 63.9537 100.158 63.9537 101.344C63.9537 102.537 63.0016 103.5 61.8193 103.5Z" fill="url(#paint0_linear_6_176)"/>
<path fill-rule="evenodd" clip-rule="evenodd" d="M79.3712 100.668H69.905H69.897V103.358H73.2931V115.875H75.9989V103.358H79.3712V100.668ZM90.4796 101.335C89.5592 100.937 88.5832 100.738 87.5358 100.738C86.4804 100.738 85.4886 100.937 84.5682 101.335C83.6477 101.733 82.8463 102.266 82.1639 102.958C81.4815 103.651 80.9419 104.454 80.5452 105.37C80.1485 106.285 79.9501 107.271 79.9501 108.314C79.9501 109.372 80.1564 110.367 80.5452 111.282C80.934 112.197 81.4815 112.993 82.1639 113.678C82.8463 114.362 83.6477 114.895 84.5682 115.293C85.4886 115.691 86.4804 115.89 87.5358 115.89C88.5832 115.89 89.5592 115.691 90.4796 115.293C91.3921 114.895 92.1935 114.354 92.8838 113.678C93.5662 113.001 94.1058 112.197 94.5025 111.282C94.8993 110.367 95.0977 109.372 95.0977 108.314C95.0977 107.271 94.8993 106.285 94.5025 105.37C94.1137 104.446 93.5662 103.643 92.8838 102.958C92.2015 102.274 91.4 101.733 90.4796 101.335ZM92.011 106.42C92.2649 107.017 92.3919 107.653 92.3919 108.322C92.3919 109.006 92.2729 109.643 92.011 110.232C91.7571 110.821 91.408 111.338 90.9715 111.776C90.5272 112.221 90.0114 112.563 89.4163 112.818C88.8212 113.073 88.1864 113.2 87.5199 113.2C86.8296 113.2 86.1948 113.073 85.6076 112.818C85.0204 112.563 84.5047 112.213 84.0683 111.776C83.6239 111.338 83.2827 110.821 83.0288 110.232C82.7749 109.643 82.6479 109.006 82.6479 108.322C82.6479 107.646 82.7749 107.017 83.0288 106.42C83.2827 105.823 83.6318 105.306 84.0683 104.868C84.5047 104.431 85.0204 104.08 85.6076 103.818C86.1948 103.555 86.8375 103.428 87.5199 103.428C88.1864 103.428 88.8212 103.555 89.4163 103.818C90.0114 104.08 90.5351 104.431 90.9715 104.868C91.408 105.306 91.7571 105.823 92.011 106.42ZM109.729 100.716C109.76 102.013 109.784 103.342 109.792 104.703C109.808 106.063 109.816 107.392 109.816 108.69V108.96V109.533C109.816 109.716 109.8 109.899 109.768 110.082V110.058C109.697 110.966 109.491 111.785 109.165 112.501C108.84 113.218 108.396 113.83 107.848 114.324C107.293 114.825 106.65 115.207 105.904 115.478C105.158 115.748 104.333 115.884 103.428 115.884C102.564 115.884 101.762 115.74 101.024 115.454C100.286 115.167 99.6356 114.769 99.0801 114.252C98.5247 113.735 98.0724 113.122 97.7312 112.414C97.39 111.706 97.1837 110.918 97.1043 110.05C97.0726 109.828 97.0567 109.589 97.0567 109.334V108.57V108.212V106.422C97.0567 105.841 97.0647 105.244 97.0805 104.631V103.724C97.0805 103.374 97.0806 103.008 97.0885 102.634L97.0895 102.587C97.0971 102.23 97.1043 101.887 97.1043 101.559V100.708H99.7863V109.915C99.7863 110.393 99.8895 110.83 100.096 111.228C100.302 111.626 100.58 111.96 100.921 112.239C101.262 112.517 101.651 112.732 102.095 112.891C102.532 113.05 102.976 113.13 103.42 113.13C103.865 113.13 104.309 113.05 104.738 112.891C105.166 112.732 105.555 112.517 105.888 112.239C106.221 111.96 106.491 111.626 106.705 111.228C106.912 110.83 107.015 110.393 107.015 109.915V100.708H109.729V100.716ZM122.212 115.286C123.124 114.888 123.981 114.315 124.783 113.552L122.847 111.705C122.323 112.183 121.76 112.549 121.157 112.811C120.553 113.074 119.95 113.201 119.355 113.201C118.673 113.201 118.03 113.074 117.435 112.819C116.84 112.565 116.316 112.223 115.872 111.777C115.428 111.331 115.078 110.814 114.825 110.217C114.571 109.62 114.444 108.976 114.444 108.291C114.444 107.623 114.571 106.986 114.832 106.389C115.094 105.793 115.451 105.267 115.896 104.822C116.34 104.376 116.864 104.026 117.467 103.771C118.07 103.517 118.705 103.389 119.379 103.389C119.974 103.389 120.569 103.517 121.164 103.779C121.76 104.034 122.315 104.408 122.839 104.885L124.783 103.023C123.989 102.259 123.14 101.686 122.236 101.288C121.331 100.891 120.379 100.692 119.379 100.692C118.324 100.692 117.332 100.891 116.412 101.288C115.491 101.686 114.682 102.227 113.983 102.904C113.285 103.588 112.738 104.392 112.341 105.315C111.944 106.238 111.746 107.233 111.746 108.291C111.746 109.35 111.944 110.344 112.341 111.268C112.738 112.191 113.277 113.002 113.968 113.687C114.658 114.379 115.467 114.912 116.388 115.302C117.308 115.692 118.3 115.883 119.355 115.883C120.347 115.883 121.307 115.684 122.212 115.286ZM134.947 100.692H137.653V115.875H134.947V109.382H129.115V115.875H126.409V100.692H129.115V106.787H134.947V100.692ZM156.727 101.335C155.807 100.937 154.831 100.738 153.783 100.738C152.728 100.738 151.736 100.937 150.824 101.335C149.911 101.733 149.11 102.274 148.419 102.958C147.737 103.651 147.198 104.454 146.801 105.37C146.404 106.285 146.206 107.271 146.206 108.314C146.206 109.372 146.404 110.367 146.801 111.282C147.198 112.197 147.737 113.001 148.419 113.678C149.102 114.362 149.903 114.895 150.824 115.293C151.736 115.691 152.728 115.89 153.783 115.89C154.831 115.89 155.807 115.691 156.727 115.293C157.64 114.895 158.441 114.354 159.132 113.678C159.814 113.001 160.353 112.197 160.75 111.282C161.147 110.367 161.345 109.372 161.345 108.314C161.345 107.271 161.147 106.285 160.75 105.37C160.353 104.446 159.814 103.643 159.132 102.958C158.449 102.274 157.648 101.733 156.727 101.335ZM158.259 106.42C158.513 107.017 158.64 107.653 158.64 108.322C158.64 109.006 158.513 109.643 158.259 110.232C158.005 110.821 157.656 111.338 157.219 111.776C156.775 112.221 156.259 112.563 155.664 112.818C155.069 113.073 154.434 113.2 153.768 113.2C153.077 113.2 152.442 113.073 151.855 112.818C151.268 112.563 150.752 112.213 150.316 111.776C149.879 111.338 149.53 110.821 149.276 110.232C149.023 109.643 148.896 109.006 148.896 108.322C148.896 107.646 149.023 107.017 149.276 106.42C149.53 105.823 149.879 105.306 150.316 104.868C150.752 104.431 151.268 104.08 151.855 103.818C152.442 103.555 153.085 103.428 153.768 103.428C154.434 103.428 155.069 103.555 155.664 103.818C156.259 104.08 156.783 104.431 157.219 104.868C157.656 105.306 158.005 105.823 158.259 106.42ZM168.21 100.692C168.94 100.692 169.615 100.803 170.234 101.026C170.852 101.249 171.384 101.567 171.836 101.981C172.281 102.395 172.63 102.896 172.876 103.493C173.122 104.09 173.249 104.766 173.249 105.53C173.249 107.153 172.812 108.387 171.939 109.214C171.067 110.042 169.829 110.456 168.218 110.456H166.211V115.875H163.505V100.692H168.21ZM166.211 107.702H166.211C166.282 107.702 166.361 107.702 166.433 107.71C166.504 107.718 166.583 107.718 166.655 107.718H166.655C166.909 107.734 167.163 107.742 167.425 107.75C167.686 107.758 167.948 107.758 168.21 107.758H168.21C168.916 107.758 169.488 107.591 169.908 107.249C170.329 106.907 170.543 106.366 170.543 105.633C170.543 104.925 170.329 104.368 169.908 103.97C169.488 103.572 168.916 103.373 168.21 103.373H166.211V107.702ZM179.086 103.684C179.396 103.429 179.753 103.294 180.173 103.294C180.602 103.294 181.015 103.398 181.419 103.644C181.824 103.891 182.197 104.209 182.538 104.599L183.276 103.772C183.295 103.749 183.315 103.726 183.335 103.702C183.459 103.556 183.606 103.382 183.776 103.191C183.982 102.968 184.141 102.777 184.26 102.61C184.006 102.315 183.712 102.045 183.387 101.806C183.062 101.567 182.721 101.368 182.363 101.201C182.006 101.042 181.641 100.915 181.276 100.835C180.911 100.748 180.562 100.708 180.237 100.708C179.618 100.708 179.023 100.787 178.475 100.962C177.92 101.138 177.444 101.392 177.031 101.734C176.627 102.077 176.301 102.506 176.063 103.024C175.825 103.541 175.706 104.146 175.706 104.83C175.706 105.395 175.809 105.888 176.016 106.318C176.222 106.748 176.5 107.13 176.841 107.464C177.182 107.806 177.563 108.101 177.983 108.363C178.396 108.626 178.825 108.873 179.253 109.111C179.578 109.294 179.888 109.469 180.189 109.652C180.491 109.835 180.753 110.019 180.975 110.202C181.205 110.393 181.38 110.591 181.514 110.806C181.649 111.029 181.713 111.26 181.713 111.515C181.713 112.08 181.53 112.501 181.165 112.78C180.8 113.058 180.34 113.194 179.793 113.194C179.57 113.194 179.332 113.17 179.086 113.114C178.84 113.058 178.602 112.971 178.372 112.844C178.142 112.724 177.928 112.557 177.737 112.366C177.547 112.175 177.38 111.944 177.245 111.674C177.193 111.714 177.135 111.757 177.074 111.803C176.978 111.874 176.873 111.952 176.761 112.04C176.652 112.125 176.537 112.211 176.42 112.299C176.342 112.357 176.262 112.417 176.182 112.478L176.181 112.478C175.983 112.621 175.785 112.764 175.603 112.899C175.413 113.035 175.254 113.146 175.119 113.234C175.643 114.133 176.317 114.793 177.15 115.207C177.983 115.629 178.832 115.836 179.697 115.836C180.411 115.836 181.07 115.732 181.665 115.533C182.26 115.326 182.776 115.04 183.205 114.658C183.633 114.276 183.974 113.799 184.22 113.234C184.466 112.661 184.585 112.008 184.585 111.26C184.585 110.679 184.474 110.17 184.26 109.74C184.046 109.31 183.768 108.92 183.427 108.578C183.086 108.236 182.697 107.934 182.268 107.671C181.84 107.408 181.403 107.162 180.975 106.923C180.657 106.756 180.364 106.597 180.078 106.43C179.8 106.262 179.547 106.087 179.332 105.912C179.118 105.737 178.944 105.554 178.817 105.355C178.69 105.156 178.626 104.941 178.626 104.703C178.626 104.281 178.777 103.939 179.086 103.684Z" fill="#282A3A"/>
<path fill-rule="evenodd" clip-rule="evenodd" d="M84.8865 42.1281C82.3712 39.6134 79.4036 37.608 76.0471 36.1596C72.6828 34.7113 69.0486 33.9712 65.232 33.9712C61.3598 33.9712 57.6939 34.7033 54.3295 36.1596C50.981 37.608 48.0055 39.6134 45.4901 42.1281C42.9748 44.6428 40.9752 47.619 39.5311 50.9773C38.0869 54.3434 37.349 57.9882 37.349 61.8159C37.349 65.6994 38.079 69.368 39.5311 72.7342C40.9752 76.0924 42.9827 79.0607 45.4981 81.5515C48.0134 84.0423 50.981 86.0318 54.3375 87.4801C57.6939 88.9285 61.3598 89.6686 65.2399 89.6686C69.0645 89.6686 72.6986 88.9364 76.063 87.4801C79.4194 86.0318 82.3871 84.0423 84.9024 81.5515C87.4177 79.0686 89.4253 76.1003 90.8694 72.7342C92.3135 69.368 93.0515 65.6914 93.0515 61.8159C93.0515 57.9961 92.3135 54.3434 90.8694 50.9773C89.4094 47.619 87.4019 44.6428 84.8865 42.1281ZM65.1923 44.5154C67.5569 44.5154 69.8183 44.985 71.9131 45.9001C74.0158 46.8232 75.8726 48.0726 77.4199 49.6244C78.9671 51.1762 80.205 53.0304 81.1016 55.1313C81.9903 57.2322 82.4426 59.5002 82.4426 61.8637C82.4426 64.2829 81.9903 66.5588 81.1016 68.6358C80.205 70.7128 78.9671 72.5511 77.4199 74.1029C75.8726 75.6467 74.0238 76.8882 71.921 77.7874C69.8262 78.6787 67.5569 79.1323 65.1923 79.1323C62.7722 79.1323 60.4949 78.6787 58.4239 77.7874C56.345 76.8961 54.512 75.6547 52.9568 74.1029C51.4095 72.5511 50.1717 70.7128 49.275 68.6358C48.3863 66.5668 47.9341 64.2908 47.9341 61.8637C47.9341 59.5002 48.3863 57.2322 49.283 55.1313C50.1717 53.0304 51.4095 51.1762 52.9647 49.6244C54.512 48.0726 56.3529 46.8232 58.4318 45.9001C60.5028 44.977 62.7722 44.5154 65.1923 44.5154ZM130.209 34.7833V63.6387L99.8507 34.2502V89.661H110.277V59.6916L140.644 90.226V34.7833H130.209ZM165.813 61.8563L148.658 81.2816V89.2076H190.427V70.9681H181.064V79.3876H163.123L178.31 61.5937L162.758 44.6911H180.381V52.0204H189.737V35.2292H148.587V42.9643L165.813 61.8563Z" fill="url(#paint1_linear_6_176)"/>
<defs>
<linearGradient id="paint0_linear_6_176" x1="-1.13824e-06" y1="19.9286" x2="59.0599" y2="124" gradientUnits="userSpaceOnUse">
<stop stop-color="#3E4157"/>
<stop offset="1" stop-color="#282A3A"/>
</linearGradient>
<linearGradient id="paint1_linear_6_176" x1="48.7144" y1="45.3929" x2="190.428" y2="76.3926" gradientUnits="userSpaceOnUse">
<stop stop-color="#3E4157"/>
<stop offset="1" stop-color="#282A3A"/>
</linearGradient>
</defs>
</svg>
