<svg width="280" height="123" viewBox="0 0 280 123" fill="none" xmlns="http://www.w3.org/2000/svg">
<path d="M163.615 36.6771C161.344 36.6771 159.289 36.2956 157.45 35.5326C155.611 34.7695 154.03 33.7067 152.705 32.3441C151.38 30.9815 150.352 29.4009 149.622 27.6023C148.919 25.8037 148.568 23.8688 148.568 21.7977C148.568 19.7266 148.919 17.7917 149.622 15.9931C150.352 14.1945 151.366 12.6275 152.664 11.2921C153.989 9.92956 155.571 8.88037 157.409 8.14457C159.275 7.38152 161.344 7 163.615 7C165.859 7 167.9 7.38152 169.739 8.14457C171.605 8.88037 173.186 9.92956 174.484 11.2921C175.809 12.6275 176.837 14.2081 177.567 16.0339C178.297 17.8326 178.662 19.7538 178.662 21.7977C178.662 23.8688 178.297 25.8037 177.567 27.6023C176.837 29.4009 175.809 30.9815 174.484 32.3441C173.186 33.7067 171.605 34.7695 169.739 35.5326C167.9 36.2956 165.859 36.6771 163.615 36.6771ZM163.615 30.8316C164.804 30.8316 165.9 30.6136 166.9 30.1776C167.927 29.7143 168.806 29.0739 169.536 28.2563C170.266 27.4388 170.834 26.485 171.24 25.3949C171.645 24.2776 171.848 23.0785 171.848 21.7977C171.848 20.5169 171.645 19.3314 171.24 18.2413C170.834 17.1513 170.266 16.1975 169.536 15.3799C168.806 14.5624 167.927 13.9356 166.9 13.4995C165.9 13.0363 164.804 12.8046 163.615 12.8046C162.398 12.8046 161.289 13.0363 160.289 13.4995C159.289 13.9356 158.41 14.5624 157.653 15.3799C156.923 16.1975 156.355 17.1649 155.949 18.2822C155.571 19.3723 155.382 20.5441 155.382 21.7977C155.382 23.0785 155.571 24.2776 155.949 25.3949C156.355 26.485 156.923 27.4388 157.653 28.2563C158.41 29.0739 159.289 29.7143 160.289 30.1776C161.289 30.6136 162.398 30.8316 163.615 30.8316Z" fill="url(#paint0_linear_1_9)"/>
<path d="M163.615 36.6771C161.344 36.6771 159.289 36.2956 157.45 35.5326C155.611 34.7695 154.03 33.7067 152.705 32.3441C151.38 30.9815 150.352 29.4009 149.622 27.6023C148.919 25.8037 148.568 23.8688 148.568 21.7977C148.568 19.7266 148.919 17.7917 149.622 15.9931C150.352 14.1945 151.366 12.6275 152.664 11.2921C153.989 9.92956 155.571 8.88037 157.409 8.14457C159.275 7.38152 161.344 7 163.615 7C165.859 7 167.9 7.38152 169.739 8.14457C171.605 8.88037 173.186 9.92956 174.484 11.2921C175.809 12.6275 176.837 14.2081 177.567 16.0339C178.297 17.8326 178.662 19.7538 178.662 21.7977C178.662 23.8688 178.297 25.8037 177.567 27.6023C176.837 29.4009 175.809 30.9815 174.484 32.3441C173.186 33.7067 171.605 34.7695 169.739 35.5326C167.9 36.2956 165.859 36.6771 163.615 36.6771ZM163.615 30.8316C164.804 30.8316 165.9 30.6136 166.9 30.1776C167.927 29.7143 168.806 29.0739 169.536 28.2563C170.266 27.4388 170.834 26.485 171.24 25.3949C171.645 24.2776 171.848 23.0785 171.848 21.7977C171.848 20.5169 171.645 19.3314 171.24 18.2413C170.834 17.1513 170.266 16.1975 169.536 15.3799C168.806 14.5624 167.927 13.9356 166.9 13.4995C165.9 13.0363 164.804 12.8046 163.615 12.8046C162.398 12.8046 161.289 13.0363 160.289 13.4995C159.289 13.9356 158.41 14.5624 157.653 15.3799C156.923 16.1975 156.355 17.1649 155.949 18.2822C155.571 19.3723 155.382 20.5441 155.382 21.7977C155.382 23.0785 155.571 24.2776 155.949 25.3949C156.355 26.485 156.923 27.4388 157.653 28.2563C158.41 29.0739 159.289 29.7143 160.289 30.1776C161.289 30.6136 162.398 30.8316 163.615 30.8316Z" fill="black" fill-opacity="0.2"/>
<path d="M202.259 36.6362C200.556 36.6362 199.028 36.2683 197.676 35.5326C196.324 34.7695 195.256 33.7203 194.472 32.385C193.688 31.0496 193.296 29.5372 193.296 27.8476V15.339C193.296 14.903 193.188 14.5078 192.972 14.1536C192.755 13.7993 192.471 13.5132 192.12 13.2951C191.768 13.0771 191.376 12.9681 190.944 12.9681C190.511 12.9681 190.119 13.0771 189.768 13.2951C189.416 13.5132 189.132 13.7993 188.916 14.1536C188.727 14.5078 188.632 14.903 188.632 15.339V36.1457H181.981V15.8296C181.981 14.1127 182.359 12.6002 183.116 11.2921C183.9 9.98406 184.968 8.9485 186.32 8.18545C187.699 7.4224 189.24 7.04088 190.944 7.04088C192.674 7.04088 194.215 7.4224 195.567 8.18545C196.919 8.9485 197.987 9.98406 198.771 11.2921C199.556 12.6002 199.948 14.1127 199.948 15.8296V28.3381C199.948 28.7741 200.056 29.1829 200.272 29.5644C200.488 29.9187 200.759 30.2048 201.083 30.4229C201.435 30.6136 201.813 30.709 202.219 30.709C202.652 30.709 203.044 30.6136 203.395 30.4229C203.774 30.2048 204.071 29.9187 204.287 29.5644C204.504 29.1829 204.612 28.7741 204.612 28.3381V7.53141H211.223V27.8476C211.223 29.5372 210.831 31.0496 210.047 32.385C209.262 33.7203 208.194 34.7695 206.842 35.5326C205.491 36.2683 203.963 36.6362 202.259 36.6362Z" fill="url(#paint1_linear_1_9)"/>
<path d="M202.259 36.6362C200.556 36.6362 199.028 36.2683 197.676 35.5326C196.324 34.7695 195.256 33.7203 194.472 32.385C193.688 31.0496 193.296 29.5372 193.296 27.8476V15.339C193.296 14.903 193.188 14.5078 192.972 14.1536C192.755 13.7993 192.471 13.5132 192.12 13.2951C191.768 13.0771 191.376 12.9681 190.944 12.9681C190.511 12.9681 190.119 13.0771 189.768 13.2951C189.416 13.5132 189.132 13.7993 188.916 14.1536C188.727 14.5078 188.632 14.903 188.632 15.339V36.1457H181.981V15.8296C181.981 14.1127 182.359 12.6002 183.116 11.2921C183.9 9.98406 184.968 8.9485 186.32 8.18545C187.699 7.4224 189.24 7.04088 190.944 7.04088C192.674 7.04088 194.215 7.4224 195.567 8.18545C196.919 8.9485 197.987 9.98406 198.771 11.2921C199.556 12.6002 199.948 14.1127 199.948 15.8296V28.3381C199.948 28.7741 200.056 29.1829 200.272 29.5644C200.488 29.9187 200.759 30.2048 201.083 30.4229C201.435 30.6136 201.813 30.709 202.219 30.709C202.652 30.709 203.044 30.6136 203.395 30.4229C203.774 30.2048 204.071 29.9187 204.287 29.5644C204.504 29.1829 204.612 28.7741 204.612 28.3381V7.53141H211.223V27.8476C211.223 29.5372 210.831 31.0496 210.047 32.385C209.262 33.7203 208.194 34.7695 206.842 35.5326C205.491 36.2683 203.963 36.6362 202.259 36.6362Z" fill="black" fill-opacity="0.2"/>
<path d="M223.515 36.1457C221.92 36.1457 220.473 35.7778 219.175 35.042C217.877 34.279 216.836 33.2707 216.052 32.0171C215.295 30.7362 214.917 29.2919 214.917 27.6841C214.917 26.485 215.174 25.3677 215.687 24.3321C216.228 23.2693 216.945 22.3563 217.837 21.5933C216.972 20.8575 216.282 19.9854 215.768 18.9771C215.282 17.9688 215.038 16.906 215.038 15.7887C215.038 14.2081 215.417 12.8046 216.174 11.5783C216.931 10.3247 217.945 9.34365 219.216 8.6351C220.487 7.89931 221.893 7.53141 223.434 7.53141H235.398V13.2951L224.488 13.2543C223.975 13.2543 223.501 13.3769 223.069 13.6222C222.636 13.8674 222.285 14.1945 222.014 14.6032C221.771 15.012 221.649 15.4889 221.649 16.0339C221.649 16.5517 221.771 17.0286 222.014 17.4647C222.285 17.8734 222.636 18.2005 223.069 18.4457C223.501 18.6637 223.975 18.7727 224.488 18.7727H234.019V24.4956H224.691C224.123 24.4956 223.61 24.6319 223.15 24.9044C222.69 25.1769 222.325 25.5312 222.055 25.9672C221.784 26.4032 221.649 26.9074 221.649 27.4797C221.649 28.0247 221.784 28.5289 222.055 28.9921C222.325 29.4282 222.69 29.7688 223.15 30.0141C223.61 30.2593 224.123 30.382 224.691 30.382H235.398V36.1457H223.515Z" fill="url(#paint2_linear_1_9)"/>
<path d="M223.515 36.1457C221.92 36.1457 220.473 35.7778 219.175 35.042C217.877 34.279 216.836 33.2707 216.052 32.0171C215.295 30.7362 214.917 29.2919 214.917 27.6841C214.917 26.485 215.174 25.3677 215.687 24.3321C216.228 23.2693 216.945 22.3563 217.837 21.5933C216.972 20.8575 216.282 19.9854 215.768 18.9771C215.282 17.9688 215.038 16.906 215.038 15.7887C215.038 14.2081 215.417 12.8046 216.174 11.5783C216.931 10.3247 217.945 9.34365 219.216 8.6351C220.487 7.89931 221.893 7.53141 223.434 7.53141H235.398V13.2951L224.488 13.2543C223.975 13.2543 223.501 13.3769 223.069 13.6222C222.636 13.8674 222.285 14.1945 222.014 14.6032C221.771 15.012 221.649 15.4889 221.649 16.0339C221.649 16.5517 221.771 17.0286 222.014 17.4647C222.285 17.8734 222.636 18.2005 223.069 18.4457C223.501 18.6637 223.975 18.7727 224.488 18.7727H234.019V24.4956H224.691C224.123 24.4956 223.61 24.6319 223.15 24.9044C222.69 25.1769 222.325 25.5312 222.055 25.9672C221.784 26.4032 221.649 26.9074 221.649 27.4797C221.649 28.0247 221.784 28.5289 222.055 28.9921C222.325 29.4282 222.69 29.7688 223.15 30.0141C223.61 30.2593 224.123 30.382 224.691 30.382H235.398V36.1457H223.515Z" fill="black" fill-opacity="0.2"/>
<path d="M164.466 73.3072C162.736 73.3072 161.208 72.9256 159.883 72.1626C158.586 71.3723 157.558 70.3231 156.801 69.015C156.071 67.7069 155.706 66.249 155.706 64.6411V50.4157H148V44.6928H170.185V50.4157H162.52V65.2543C162.52 65.8811 162.736 66.4261 163.169 66.8894C163.601 67.3527 164.142 67.5843 164.791 67.5843H167.022V73.3072H164.466Z" fill="url(#paint3_linear_1_9)"/>
<path d="M164.466 73.3072C162.736 73.3072 161.208 72.9256 159.883 72.1626C158.586 71.3723 157.558 70.3231 156.801 69.015C156.071 67.7069 155.706 66.249 155.706 64.6411V50.4157H148V44.6928H170.185V50.4157H162.52V65.2543C162.52 65.8811 162.736 66.4261 163.169 66.8894C163.601 67.3527 164.142 67.5843 164.791 67.5843H167.022V73.3072H164.466Z" fill="black" fill-opacity="0.2"/>
<path d="M185.795 73.8386C183.524 73.8386 181.469 73.457 179.63 72.694C177.791 71.9309 176.21 70.8681 174.885 69.5055C173.56 68.1429 172.532 66.5624 171.802 64.7637C171.099 62.9651 170.748 61.0303 170.748 58.9591C170.748 56.888 171.099 54.9531 171.802 53.1545C172.532 51.3559 173.546 49.7889 174.844 48.4536C176.169 47.091 177.751 46.0418 179.59 45.306C181.455 44.543 183.524 44.1614 185.795 44.1614C188.039 44.1614 190.08 44.543 191.919 45.306C193.785 46.0418 195.367 47.091 196.664 48.4536C197.989 49.7889 199.017 51.3695 199.747 53.1954C200.477 54.994 200.842 56.9152 200.842 58.9591C200.842 61.0303 200.477 62.9651 199.747 64.7637C199.017 66.5624 197.989 68.1429 196.664 69.5055C195.367 70.8681 193.785 71.9309 191.919 72.694C190.08 73.457 188.039 73.8386 185.795 73.8386ZM185.795 67.9931C186.985 67.9931 188.08 67.775 189.08 67.339C190.108 66.8757 190.986 66.2353 191.716 65.4178C192.446 64.6002 193.014 63.6464 193.42 62.5563C193.825 61.439 194.028 60.24 194.028 58.9591C194.028 57.6783 193.825 56.4928 193.42 55.4028C193.014 54.3127 192.446 53.3589 191.716 52.5413C190.986 51.7238 190.108 51.097 189.08 50.661C188.08 50.1977 186.985 49.9661 185.795 49.9661C184.578 49.9661 183.47 50.1977 182.469 50.661C181.469 51.097 180.59 51.7238 179.833 52.5413C179.103 53.3589 178.535 54.3263 178.129 55.4437C177.751 56.5337 177.562 57.7055 177.562 58.9591C177.562 60.24 177.751 61.439 178.129 62.5563C178.535 63.6464 179.103 64.6002 179.833 65.4178C180.59 66.2353 181.469 66.8757 182.469 67.339C183.47 67.775 184.578 67.9931 185.795 67.9931Z" fill="url(#paint4_linear_1_9)"/>
<path d="M185.795 73.8386C183.524 73.8386 181.469 73.457 179.63 72.694C177.791 71.9309 176.21 70.8681 174.885 69.5055C173.56 68.1429 172.532 66.5624 171.802 64.7637C171.099 62.9651 170.748 61.0303 170.748 58.9591C170.748 56.888 171.099 54.9531 171.802 53.1545C172.532 51.3559 173.546 49.7889 174.844 48.4536C176.169 47.091 177.751 46.0418 179.59 45.306C181.455 44.543 183.524 44.1614 185.795 44.1614C188.039 44.1614 190.08 44.543 191.919 45.306C193.785 46.0418 195.367 47.091 196.664 48.4536C197.989 49.7889 199.017 51.3695 199.747 53.1954C200.477 54.994 200.842 56.9152 200.842 58.9591C200.842 61.0303 200.477 62.9651 199.747 64.7637C199.017 66.5624 197.989 68.1429 196.664 69.5055C195.367 70.8681 193.785 71.9309 191.919 72.694C190.08 73.457 188.039 73.8386 185.795 73.8386ZM185.795 67.9931C186.985 67.9931 188.08 67.775 189.08 67.339C190.108 66.8757 190.986 66.2353 191.716 65.4178C192.446 64.6002 193.014 63.6464 193.42 62.5563C193.825 61.439 194.028 60.24 194.028 58.9591C194.028 57.6783 193.825 56.4928 193.42 55.4028C193.014 54.3127 192.446 53.3589 191.716 52.5413C190.986 51.7238 190.108 51.097 189.08 50.661C188.08 50.1977 186.985 49.9661 185.795 49.9661C184.578 49.9661 183.47 50.1977 182.469 50.661C181.469 51.097 180.59 51.7238 179.833 52.5413C179.103 53.3589 178.535 54.3263 178.129 55.4437C177.751 56.5337 177.562 57.7055 177.562 58.9591C177.562 60.24 177.751 61.439 178.129 62.5563C178.535 63.6464 179.103 64.6002 179.833 65.4178C180.59 66.2353 181.469 66.8757 182.469 67.339C183.47 67.775 184.578 67.9931 185.795 67.9931Z" fill="black" fill-opacity="0.2"/>
<path d="M216.409 73.7977C214.057 73.7977 211.961 73.3208 210.123 72.367C208.311 71.4132 206.891 70.0506 205.864 68.2792C204.837 66.5078 204.323 64.3958 204.323 61.9432V44.6928H211.055V62.3111C211.055 63.3739 211.272 64.3413 211.704 65.2134C212.137 66.0582 212.759 66.7395 213.57 67.2573C214.381 67.7478 215.328 67.9931 216.409 67.9931C217.518 67.9931 218.464 67.7478 219.248 67.2573C220.059 66.7395 220.681 66.0582 221.114 65.2134C221.546 64.3413 221.763 63.3739 221.763 62.3111V44.6928H228.495V61.9432C228.495 64.3958 227.968 66.5078 226.914 68.2792C225.886 70.0506 224.467 71.4132 222.655 72.367C220.843 73.3208 218.761 73.7977 216.409 73.7977Z" fill="url(#paint5_linear_1_9)"/>
<path d="M216.409 73.7977C214.057 73.7977 211.961 73.3208 210.123 72.367C208.311 71.4132 206.891 70.0506 205.864 68.2792C204.837 66.5078 204.323 64.3958 204.323 61.9432V44.6928H211.055V62.3111C211.055 63.3739 211.272 64.3413 211.704 65.2134C212.137 66.0582 212.759 66.7395 213.57 67.2573C214.381 67.7478 215.328 67.9931 216.409 67.9931C217.518 67.9931 218.464 67.7478 219.248 67.2573C220.059 66.7395 220.681 66.0582 221.114 65.2134C221.546 64.3413 221.763 63.3739 221.763 62.3111V44.6928H228.495V61.9432C228.495 64.3958 227.968 66.5078 226.914 68.2792C225.886 70.0506 224.467 71.4132 222.655 72.367C220.843 73.3208 218.761 73.7977 216.409 73.7977Z" fill="black" fill-opacity="0.2"/>
<path d="M247.068 73.3072C244.743 73.2799 242.647 72.8984 240.782 72.1626C238.916 71.4268 237.334 70.4185 236.037 69.1376C234.739 67.8568 233.738 66.358 233.035 64.6411C232.332 62.897 231.981 61.0166 231.981 59C231.981 56.9834 232.332 55.1166 233.035 53.3998C233.738 51.6557 234.739 50.1432 236.037 48.8624C237.361 47.5815 238.943 46.5732 240.782 45.8374C242.647 45.1016 244.743 44.7201 247.068 44.6928H251.449V50.4157H247.231C245.96 50.443 244.797 50.6746 243.743 51.1106C242.715 51.5467 241.823 52.1462 241.066 52.9092C240.336 53.6723 239.768 54.5716 239.362 55.6072C238.984 56.6427 238.794 57.7737 238.794 59C238.794 60.2263 238.984 61.3573 239.362 62.3928C239.768 63.4284 240.336 64.3277 241.066 65.0908C241.823 65.8538 242.715 66.4533 243.743 66.8894C244.797 67.3254 245.96 67.557 247.231 67.5843H251.449V73.3072H247.068Z" fill="url(#paint6_linear_1_9)"/>
<path d="M247.068 73.3072C244.743 73.2799 242.647 72.8984 240.782 72.1626C238.916 71.4268 237.334 70.4185 236.037 69.1376C234.739 67.8568 233.738 66.358 233.035 64.6411C232.332 62.897 231.981 61.0166 231.981 59C231.981 56.9834 232.332 55.1166 233.035 53.3998C233.738 51.6557 234.739 50.1432 236.037 48.8624C237.361 47.5815 238.943 46.5732 240.782 45.8374C242.647 45.1016 244.743 44.7201 247.068 44.6928H251.449V50.4157H247.231C245.96 50.443 244.797 50.6746 243.743 51.1106C242.715 51.5467 241.823 52.1462 241.066 52.9092C240.336 53.6723 239.768 54.5716 239.362 55.6072C238.984 56.6427 238.794 57.7737 238.794 59C238.794 60.2263 238.984 61.3573 239.362 62.3928C239.768 63.4284 240.336 64.3277 241.066 65.0908C241.823 65.8538 242.715 66.4533 243.743 66.8894C244.797 67.3254 245.96 67.557 247.231 67.5843H251.449V73.3072H247.068Z" fill="black" fill-opacity="0.2"/>
<path d="M255.3 73.3072V44.6928H262.114V55.9342H273.186V44.6928H280V73.3072H273.186V61.657H262.114V73.3072H255.3Z" fill="url(#paint7_linear_1_9)"/>
<path d="M255.3 73.3072V44.6928H262.114V55.9342H273.186V44.6928H280V73.3072H273.186V61.657H262.114V73.3072H255.3Z" fill="black" fill-opacity="0.2"/>
<path d="M163.615 111C161.344 111 159.289 110.618 157.45 109.855C155.611 109.092 154.03 108.03 152.705 106.667C151.38 105.304 150.352 103.724 149.622 101.925C148.919 100.127 148.568 98.1917 148.568 96.1206C148.568 94.0494 148.919 92.1146 149.622 90.3159C150.352 88.5173 151.366 86.9504 152.664 85.615C153.989 84.2524 155.571 83.2032 157.409 82.4674C159.275 81.7044 161.344 81.3229 163.615 81.3229C165.859 81.3229 167.9 81.7044 169.739 82.4674C171.605 83.2032 173.186 84.2524 174.484 85.615C175.809 86.9504 176.837 88.531 177.567 90.3568C178.297 92.1554 178.662 94.0767 178.662 96.1206C178.662 98.1917 178.297 100.127 177.567 101.925C176.837 103.724 175.809 105.304 174.484 106.667C173.186 108.03 171.605 109.092 169.739 109.855C167.9 110.618 165.859 111 163.615 111ZM163.615 105.155C164.804 105.155 165.9 104.936 166.9 104.5C167.927 104.037 168.806 103.397 169.536 102.579C170.266 101.762 170.834 100.808 171.24 99.7178C171.645 98.6005 171.848 97.4014 171.848 96.1206C171.848 94.8397 171.645 93.6543 171.24 92.5642C170.834 91.4741 170.266 90.5203 169.536 89.7028C168.806 88.8852 167.927 88.2584 166.9 87.8224C165.9 87.3591 164.804 87.1275 163.615 87.1275C162.398 87.1275 161.289 87.3591 160.289 87.8224C159.289 88.2584 158.41 88.8852 157.653 89.7028C156.923 90.5203 156.355 91.4878 155.949 92.6051C155.571 93.6952 155.382 94.867 155.382 96.1206C155.382 97.4014 155.571 98.6005 155.949 99.7178C156.355 100.808 156.923 101.762 157.653 102.579C158.41 103.397 159.289 104.037 160.289 104.5C161.289 104.936 162.398 105.155 163.615 105.155Z" fill="url(#paint8_linear_1_9)"/>
<path d="M163.615 111C161.344 111 159.289 110.618 157.45 109.855C155.611 109.092 154.03 108.03 152.705 106.667C151.38 105.304 150.352 103.724 149.622 101.925C148.919 100.127 148.568 98.1917 148.568 96.1206C148.568 94.0494 148.919 92.1146 149.622 90.3159C150.352 88.5173 151.366 86.9504 152.664 85.615C153.989 84.2524 155.571 83.2032 157.409 82.4674C159.275 81.7044 161.344 81.3229 163.615 81.3229C165.859 81.3229 167.9 81.7044 169.739 82.4674C171.605 83.2032 173.186 84.2524 174.484 85.615C175.809 86.9504 176.837 88.531 177.567 90.3568C178.297 92.1554 178.662 94.0767 178.662 96.1206C178.662 98.1917 178.297 100.127 177.567 101.925C176.837 103.724 175.809 105.304 174.484 106.667C173.186 108.03 171.605 109.092 169.739 109.855C167.9 110.618 165.859 111 163.615 111ZM163.615 105.155C164.804 105.155 165.9 104.936 166.9 104.5C167.927 104.037 168.806 103.397 169.536 102.579C170.266 101.762 170.834 100.808 171.24 99.7178C171.645 98.6005 171.848 97.4014 171.848 96.1206C171.848 94.8397 171.645 93.6543 171.24 92.5642C170.834 91.4741 170.266 90.5203 169.536 89.7028C168.806 88.8852 167.927 88.2584 166.9 87.8224C165.9 87.3591 164.804 87.1275 163.615 87.1275C162.398 87.1275 161.289 87.3591 160.289 87.8224C159.289 88.2584 158.41 88.8852 157.653 89.7028C156.923 90.5203 156.355 91.4878 155.949 92.6051C155.571 93.6952 155.382 94.867 155.382 96.1206C155.382 97.4014 155.571 98.6005 155.949 99.7178C156.355 100.808 156.923 101.762 157.653 102.579C158.41 103.397 159.289 104.037 160.289 104.5C161.289 104.936 162.398 105.155 163.615 105.155Z" fill="black" fill-opacity="0.2"/>
<path d="M182.264 110.469V81.8543H194.472C196.365 81.8543 198.096 82.2903 199.664 83.1624C201.259 84.0344 202.53 85.2471 203.476 86.8005C204.423 88.3266 204.896 90.0979 204.896 92.1146C204.896 94.1312 204.423 95.9298 203.476 97.5104C202.53 99.0637 201.273 100.276 199.704 101.149C198.136 102.021 196.392 102.457 194.472 102.457H189.078V110.469H182.264ZM189.078 96.6928H193.702C194.513 96.6928 195.243 96.5157 195.892 96.1614C196.541 95.8072 197.068 95.2894 197.474 94.6081C197.879 93.9268 198.082 93.1092 198.082 92.1554C198.082 91.2016 197.879 90.3841 197.474 89.7028C197.068 89.0215 196.527 88.5037 195.851 88.1494C195.202 87.7679 194.486 87.5771 193.702 87.5771H189.078V96.6928Z" fill="url(#paint9_linear_1_9)"/>
<path d="M182.264 110.469V81.8543H194.472C196.365 81.8543 198.096 82.2903 199.664 83.1624C201.259 84.0344 202.53 85.2471 203.476 86.8005C204.423 88.3266 204.896 90.0979 204.896 92.1146C204.896 94.1312 204.423 95.9298 203.476 97.5104C202.53 99.0637 201.273 100.276 199.704 101.149C198.136 102.021 196.392 102.457 194.472 102.457H189.078V110.469H182.264ZM189.078 96.6928H193.702C194.513 96.6928 195.243 96.5157 195.892 96.1614C196.541 95.8072 197.068 95.2894 197.474 94.6081C197.879 93.9268 198.082 93.1092 198.082 92.1554C198.082 91.2016 197.879 90.3841 197.474 89.7028C197.068 89.0215 196.527 88.5037 195.851 88.1494C195.202 87.7679 194.486 87.5771 193.702 87.5771H189.078V96.6928Z" fill="black" fill-opacity="0.2"/>
<path d="M208.528 110.469V104.746H220.655C221.195 104.746 221.682 104.609 222.115 104.337C222.547 104.064 222.885 103.71 223.129 103.274C223.399 102.838 223.534 102.361 223.534 101.843C223.534 101.298 223.399 100.808 223.129 100.372C222.885 99.9358 222.547 99.5815 222.115 99.309C221.682 99.0365 221.195 98.9002 220.655 98.9002H216.274C214.625 98.9002 213.124 98.5732 211.772 97.9192C210.421 97.2651 209.339 96.3113 208.528 95.0577C207.744 93.7769 207.352 92.2508 207.352 90.4795C207.352 88.7353 207.73 87.2229 208.487 85.942C209.244 84.6612 210.272 83.6665 211.57 82.958C212.868 82.2222 214.301 81.8543 215.869 81.8543H228.401V87.5771H216.639C216.153 87.5771 215.707 87.6998 215.301 87.945C214.895 88.1903 214.584 88.5173 214.368 88.9261C214.152 89.3349 214.044 89.7845 214.044 90.2751C214.044 90.7656 214.152 91.2152 214.368 91.624C214.584 92.0055 214.895 92.3189 215.301 92.5642C215.707 92.8095 216.153 92.9321 216.639 92.9321H221.222C223.034 92.9321 224.602 93.2864 225.927 93.9949C227.279 94.6762 228.32 95.6437 229.05 96.8972C229.807 98.1236 230.186 99.5679 230.186 101.23C230.186 103.192 229.794 104.868 229.01 106.258C228.253 107.621 227.225 108.67 225.927 109.406C224.629 110.114 223.196 110.469 221.628 110.469H208.528Z" fill="url(#paint10_linear_1_9)"/>
<path d="M208.528 110.469V104.746H220.655C221.195 104.746 221.682 104.609 222.115 104.337C222.547 104.064 222.885 103.71 223.129 103.274C223.399 102.838 223.534 102.361 223.534 101.843C223.534 101.298 223.399 100.808 223.129 100.372C222.885 99.9358 222.547 99.5815 222.115 99.309C221.682 99.0365 221.195 98.9002 220.655 98.9002H216.274C214.625 98.9002 213.124 98.5732 211.772 97.9192C210.421 97.2651 209.339 96.3113 208.528 95.0577C207.744 93.7769 207.352 92.2508 207.352 90.4795C207.352 88.7353 207.73 87.2229 208.487 85.942C209.244 84.6612 210.272 83.6665 211.57 82.958C212.868 82.2222 214.301 81.8543 215.869 81.8543H228.401V87.5771H216.639C216.153 87.5771 215.707 87.6998 215.301 87.945C214.895 88.1903 214.584 88.5173 214.368 88.9261C214.152 89.3349 214.044 89.7845 214.044 90.2751C214.044 90.7656 214.152 91.2152 214.368 91.624C214.584 92.0055 214.895 92.3189 215.301 92.5642C215.707 92.8095 216.153 92.9321 216.639 92.9321H221.222C223.034 92.9321 224.602 93.2864 225.927 93.9949C227.279 94.6762 228.32 95.6437 229.05 96.8972C229.807 98.1236 230.186 99.5679 230.186 101.23C230.186 103.192 229.794 104.868 229.01 106.258C228.253 107.621 227.225 108.67 225.927 109.406C224.629 110.114 223.196 110.469 221.628 110.469H208.528Z" fill="black" fill-opacity="0.2"/>
<path fill-rule="evenodd" clip-rule="evenodd" d="M3.62951 34.6535C1.06304 43.5482 -0.154875 52.7726 0.0157309 62.0233C-0.154132 71.2017 1.05521 80.3539 3.60403 89.1784C4.721 92.8075 6.22245 96.3088 8.08316 99.6236C9.7894 102.672 11.871 105.497 14.2801 108.035C19.0932 113.048 25.0253 116.868 31.5984 119.188C39.3079 121.838 47.4272 123.121 55.5846 122.977L61.6161 122.977C64.3519 122.977 67.0114 122.863 69.5564 122.636C76.1313 122.137 82.5793 120.571 88.6434 118.001C94.0442 115.666 98.9167 112.277 102.971 108.035C107.79 102.855 111.374 96.6648 113.457 89.9236C116.014 81.5065 117.3 72.7598 117.274 63.9684V62.0107V60.0656C117.246 54.3042 116.476 48.57 114.984 43.0021C113.905 38.8517 111.949 34.9767 109.245 31.6348C106.551 28.5502 103.089 26.2203 99.205 24.8777C94.2878 23.2373 89.1215 22.4553 83.9353 22.5663H81.0722L81.454 22.7305C84.688 24.2927 87.5639 26.4981 89.9032 29.2098C93.0862 33.1526 95.3385 37.7533 96.4946 42.6737C98.0295 48.952 98.7479 55.3996 98.6323 61.8591C98.7458 68.3151 98.023 74.7588 96.4818 81.0319C95.3086 85.9428 93.0191 90.5223 89.7886 94.42C87.4314 97.1051 84.5536 99.2915 81.3267 100.849C81.0399 100.984 80.7515 101.116 80.4615 101.245V40.2245H56.8969V53.0896H65.5875V104.598C64.2913 104.68 62.9922 104.719 61.6924 104.714H55.6609C49.9879 104.816 44.3385 103.961 38.9534 102.188C34.4466 100.687 30.4207 98.029 27.2849 94.4831C24.3991 91.0482 22.29 87.0382 21.1005 82.7243C19.557 77.3454 18.7019 71.7949 18.5556 66.2039V65.0167V59.1057V57.8427C18.6948 49.0619 20.1224 40.3481 22.793 31.9759C25.033 24.9453 28.7842 18.4813 33.7872 13.0304C38.1745 8.38372 43.4581 4.65981 49.324 2.08C50.622 1.49901 51.9708 0.981171 53.3451 0.501221C45.9522 0.56807 38.6213 1.84838 31.6494 4.2903C25.0476 6.64138 19.103 10.5158 14.3056 15.5944C9.32071 21.0502 5.66773 27.5715 3.62951 34.6535ZM23.5056 62.6778V60.1533V60.0145V59.1435V57.9444C23.6194 49.5339 24.9499 41.1858 27.4545 33.1665C29.4881 26.658 32.8877 20.6726 37.42 15.6213C41.3681 11.3283 46.1359 7.89285 51.434 5.52338C57.3637 2.92522 63.678 1.34271 70.1193 0.84045C70.1772 0.834544 70.2357 0.834544 70.2937 0.84045C72.6729 0.638491 75.1643 0.512273 77.7678 0.512274L83.6724 0.512274C91.6541 0.367325 99.5986 1.64918 107.141 4.29901C113.589 6.61738 119.406 10.4447 124.12 15.4699C128.989 20.8506 132.562 27.3009 134.559 34.3152C137.077 43.1429 138.274 52.3036 138.109 61.4913C138.273 70.7412 137.077 79.9642 134.559 88.8568C132.567 95.9332 128.995 102.45 124.12 107.904C119.417 112.977 113.594 116.849 107.129 119.201C100.404 121.614 93.3344 122.893 86.2011 122.988C87.4468 122.521 88.7548 122.029 89.9382 121.473C95.6745 118.94 100.851 115.265 105.161 110.668C110.244 105.068 114.02 98.3818 116.21 91.1036C118.831 82.3375 120.153 73.2258 120.134 64.0663V62.0593V60.065C120.081 55.2226 119.576 50.3962 118.626 45.6501C118.29 43.9714 117.916 42.3557 117.468 40.8284C116.283 36.5254 114.221 32.522 111.414 29.0769C108.337 25.5354 104.393 22.8794 99.9785 21.3772C97.7048 20.5784 95.3664 19.9829 92.9902 19.5974L92.4296 19.5091H92.1057C89.3527 19.1213 86.5765 18.9273 83.797 18.9284H77.8923H75.7498C73.6942 18.9831 71.6436 19.1601 69.6086 19.4586C65.7625 19.9469 62.0191 21.0593 58.5219 22.753C55.3568 24.3052 52.5347 26.4908 50.2256 29.1779C47.0671 33.0741 44.8301 37.6507 43.6857 42.5576C42.173 48.8264 41.4614 55.266 41.5681 61.7185C41.4611 68.1737 42.1644 74.6165 43.6609 80.892C44.8019 85.8084 47.0105 90.4052 50.1259 94.3475C52.4103 97.0583 55.2219 99.2627 58.3849 100.823C58.4845 100.823 58.5842 100.887 58.6838 100.952C58.6947 100.959 58.7056 100.966 58.7165 100.973C58.7306 100.982 58.7446 100.991 58.7586 101H56.1302C53.4424 101.005 50.7576 100.82 48.0955 100.444H47.8836L47.3855 100.343L46.1398 100.129L45.4546 99.9898H45.2553H45.1183L44.7819 99.9014L44.1093 99.7499C43.5363 99.5985 42.9508 99.4344 42.4027 99.2577L42.0788 99.1567C41.7968 99.0737 41.5281 98.9773 41.2629 98.8821L41.2628 98.8821L41.2624 98.882C41.1647 98.8469 41.0674 98.812 40.9702 98.778C37.1567 97.4444 33.7578 95.115 31.1167 92.025C28.4833 88.6781 26.5735 84.8077 25.5111 80.6648C25.2121 79.5919 24.9381 78.4685 24.7014 77.3072C24.0041 73.664 23.5876 69.9713 23.4557 66.2626V65.0887V64.2304C23.4557 64.0921 23.4646 63.9044 23.4748 63.6873C23.4889 63.3893 23.5056 63.0357 23.5056 62.6778Z" fill="url(#paint11_linear_1_9)"/>
<path fill-rule="evenodd" clip-rule="evenodd" d="M3.62951 34.6535C1.06304 43.5482 -0.154875 52.7726 0.0157309 62.0233C-0.154132 71.2017 1.05521 80.3539 3.60403 89.1784C4.721 92.8075 6.22245 96.3088 8.08316 99.6236C9.7894 102.672 11.871 105.497 14.2801 108.035C19.0932 113.048 25.0253 116.868 31.5984 119.188C39.3079 121.838 47.4272 123.121 55.5846 122.977L61.6161 122.977C64.3519 122.977 67.0114 122.863 69.5564 122.636C76.1313 122.137 82.5793 120.571 88.6434 118.001C94.0442 115.666 98.9167 112.277 102.971 108.035C107.79 102.855 111.374 96.6648 113.457 89.9236C116.014 81.5065 117.3 72.7598 117.274 63.9684V62.0107V60.0656C117.246 54.3042 116.476 48.57 114.984 43.0021C113.905 38.8517 111.949 34.9767 109.245 31.6348C106.551 28.5502 103.089 26.2203 99.205 24.8777C94.2878 23.2373 89.1215 22.4553 83.9353 22.5663H81.0722L81.454 22.7305C84.688 24.2927 87.5639 26.4981 89.9032 29.2098C93.0862 33.1526 95.3385 37.7533 96.4946 42.6737C98.0295 48.952 98.7479 55.3996 98.6323 61.8591C98.7458 68.3151 98.023 74.7588 96.4818 81.0319C95.3086 85.9428 93.0191 90.5223 89.7886 94.42C87.4314 97.1051 84.5536 99.2915 81.3267 100.849C81.0399 100.984 80.7515 101.116 80.4615 101.245V40.2245H56.8969V53.0896H65.5875V104.598C64.2913 104.68 62.9922 104.719 61.6924 104.714H55.6609C49.9879 104.816 44.3385 103.961 38.9534 102.188C34.4466 100.687 30.4207 98.029 27.2849 94.4831C24.3991 91.0482 22.29 87.0382 21.1005 82.7243C19.557 77.3454 18.7019 71.7949 18.5556 66.2039V65.0167V59.1057V57.8427C18.6948 49.0619 20.1224 40.3481 22.793 31.9759C25.033 24.9453 28.7842 18.4813 33.7872 13.0304C38.1745 8.38372 43.4581 4.65981 49.324 2.08C50.622 1.49901 51.9708 0.981171 53.3451 0.501221C45.9522 0.56807 38.6213 1.84838 31.6494 4.2903C25.0476 6.64138 19.103 10.5158 14.3056 15.5944C9.32071 21.0502 5.66773 27.5715 3.62951 34.6535ZM23.5056 62.6778V60.1533V60.0145V59.1435V57.9444C23.6194 49.5339 24.9499 41.1858 27.4545 33.1665C29.4881 26.658 32.8877 20.6726 37.42 15.6213C41.3681 11.3283 46.1359 7.89285 51.434 5.52338C57.3637 2.92522 63.678 1.34271 70.1193 0.84045C70.1772 0.834544 70.2357 0.834544 70.2937 0.84045C72.6729 0.638491 75.1643 0.512273 77.7678 0.512274L83.6724 0.512274C91.6541 0.367325 99.5986 1.64918 107.141 4.29901C113.589 6.61738 119.406 10.4447 124.12 15.4699C128.989 20.8506 132.562 27.3009 134.559 34.3152C137.077 43.1429 138.274 52.3036 138.109 61.4913C138.273 70.7412 137.077 79.9642 134.559 88.8568C132.567 95.9332 128.995 102.45 124.12 107.904C119.417 112.977 113.594 116.849 107.129 119.201C100.404 121.614 93.3344 122.893 86.2011 122.988C87.4468 122.521 88.7548 122.029 89.9382 121.473C95.6745 118.94 100.851 115.265 105.161 110.668C110.244 105.068 114.02 98.3818 116.21 91.1036C118.831 82.3375 120.153 73.2258 120.134 64.0663V62.0593V60.065C120.081 55.2226 119.576 50.3962 118.626 45.6501C118.29 43.9714 117.916 42.3557 117.468 40.8284C116.283 36.5254 114.221 32.522 111.414 29.0769C108.337 25.5354 104.393 22.8794 99.9785 21.3772C97.7048 20.5784 95.3664 19.9829 92.9902 19.5974L92.4296 19.5091H92.1057C89.3527 19.1213 86.5765 18.9273 83.797 18.9284H77.8923H75.7498C73.6942 18.9831 71.6436 19.1601 69.6086 19.4586C65.7625 19.9469 62.0191 21.0593 58.5219 22.753C55.3568 24.3052 52.5347 26.4908 50.2256 29.1779C47.0671 33.0741 44.8301 37.6507 43.6857 42.5576C42.173 48.8264 41.4614 55.266 41.5681 61.7185C41.4611 68.1737 42.1644 74.6165 43.6609 80.892C44.8019 85.8084 47.0105 90.4052 50.1259 94.3475C52.4103 97.0583 55.2219 99.2627 58.3849 100.823C58.4845 100.823 58.5842 100.887 58.6838 100.952C58.6947 100.959 58.7056 100.966 58.7165 100.973C58.7306 100.982 58.7446 100.991 58.7586 101H56.1302C53.4424 101.005 50.7576 100.82 48.0955 100.444H47.8836L47.3855 100.343L46.1398 100.129L45.4546 99.9898H45.2553H45.1183L44.7819 99.9014L44.1093 99.7499C43.5363 99.5985 42.9508 99.4344 42.4027 99.2577L42.0788 99.1567C41.7968 99.0737 41.5281 98.9773 41.2629 98.8821L41.2628 98.8821L41.2624 98.882C41.1647 98.8469 41.0674 98.812 40.9702 98.778C37.1567 97.4444 33.7578 95.115 31.1167 92.025C28.4833 88.6781 26.5735 84.8077 25.5111 80.6648C25.2121 79.5919 24.9381 78.4685 24.7014 77.3072C24.0041 73.664 23.5876 69.9713 23.4557 66.2626V65.0887V64.2304C23.4557 64.0921 23.4646 63.9044 23.4748 63.6873C23.4889 63.3893 23.5056 63.0357 23.5056 62.6778Z" fill="black" fill-opacity="0.2"/>
<defs>
<linearGradient id="paint0_linear_1_9" x1="153.496" y1="7.00057" x2="216.473" y2="7.24659" gradientUnits="userSpaceOnUse">
<stop stop-color="#BB6BED"/>
<stop offset="1" stop-color="#43268B"/>
</linearGradient>
<linearGradient id="paint1_linear_1_9" x1="153.496" y1="7.00057" x2="216.473" y2="7.24659" gradientUnits="userSpaceOnUse">
<stop stop-color="#BB6BED"/>
<stop offset="1" stop-color="#43268B"/>
</linearGradient>
<linearGradient id="paint2_linear_1_9" x1="153.496" y1="7.00057" x2="216.473" y2="7.24659" gradientUnits="userSpaceOnUse">
<stop stop-color="#BB6BED"/>
<stop offset="1" stop-color="#43268B"/>
</linearGradient>
<linearGradient id="paint3_linear_1_9" x1="153.496" y1="7.00057" x2="216.473" y2="7.24659" gradientUnits="userSpaceOnUse">
<stop stop-color="#BB6BED"/>
<stop offset="1" stop-color="#43268B"/>
</linearGradient>
<linearGradient id="paint4_linear_1_9" x1="153.496" y1="7.00057" x2="216.473" y2="7.24659" gradientUnits="userSpaceOnUse">
<stop stop-color="#BB6BED"/>
<stop offset="1" stop-color="#43268B"/>
</linearGradient>
<linearGradient id="paint5_linear_1_9" x1="153.496" y1="7.00057" x2="216.473" y2="7.24659" gradientUnits="userSpaceOnUse">
<stop stop-color="#BB6BED"/>
<stop offset="1" stop-color="#43268B"/>
</linearGradient>
<linearGradient id="paint6_linear_1_9" x1="153.496" y1="7.00057" x2="216.473" y2="7.24659" gradientUnits="userSpaceOnUse">
<stop stop-color="#BB6BED"/>
<stop offset="1" stop-color="#43268B"/>
</linearGradient>
<linearGradient id="paint7_linear_1_9" x1="153.496" y1="7.00057" x2="216.473" y2="7.24659" gradientUnits="userSpaceOnUse">
<stop stop-color="#BB6BED"/>
<stop offset="1" stop-color="#43268B"/>
</linearGradient>
<linearGradient id="paint8_linear_1_9" x1="153.496" y1="7.00057" x2="216.473" y2="7.24659" gradientUnits="userSpaceOnUse">
<stop stop-color="#BB6BED"/>
<stop offset="1" stop-color="#43268B"/>
</linearGradient>
<linearGradient id="paint9_linear_1_9" x1="153.496" y1="7.00057" x2="216.473" y2="7.24659" gradientUnits="userSpaceOnUse">
<stop stop-color="#BB6BED"/>
<stop offset="1" stop-color="#43268B"/>
</linearGradient>
<linearGradient id="paint10_linear_1_9" x1="153.496" y1="7.00057" x2="216.473" y2="7.24659" gradientUnits="userSpaceOnUse">
<stop stop-color="#BB6BED"/>
<stop offset="1" stop-color="#43268B"/>
</linearGradient>
<linearGradient id="paint11_linear_1_9" x1="5.75077" y1="0.501893" x2="71.6495" y2="0.730617" gradientUnits="userSpaceOnUse">
<stop stop-color="#BB6BED"/>
<stop offset="1" stop-color="#43268B"/>
</linearGradient>
</defs>
</svg>
