<svg width="194" height="126" viewBox="0 0 194 126" fill="none" xmlns="http://www.w3.org/2000/svg">
<path fill-rule="evenodd" clip-rule="evenodd" d="M0 63C0 97.7385 28.1795 126 62.8173 126C64.0187 126 64.9862 125.03 64.9862 123.817C64.9862 122.612 64.0187 121.641 62.8173 121.641C30.5661 121.641 4.33778 95.3288 4.33778 62.9919C4.33778 30.655 30.5742 4.34232 62.8173 4.34232C85.498 4.34232 106.332 17.6846 115.887 38.3207C116.387 39.4124 117.677 39.8895 118.765 39.38C119.854 38.8787 120.329 37.5849 119.821 36.4933C109.557 14.3288 87.1831 0 62.8173 0C28.1795 0 0 28.2614 0 63ZM62.8172 115.51C33.9443 115.51 10.4573 91.9549 10.4573 62.998C10.4573 34.0411 33.9443 10.4859 62.8172 10.4859C68.7836 10.4859 74.6292 11.4805 80.2086 13.4535C81.3374 13.8498 81.9341 15.0951 81.539 16.2271C81.1439 17.3592 79.9022 17.9576 78.7734 17.5614C73.6616 15.7581 68.2999 14.8444 62.8252 14.8444C36.347 14.8444 14.8112 36.4508 14.8112 62.998C14.8112 89.5533 36.355 111.152 62.8252 111.152C64.0266 111.152 64.9941 112.122 64.9941 113.327C64.9861 114.532 64.0185 115.51 62.8172 115.51ZM62.8163 105.169C39.6358 105.169 20.7688 86.2557 20.7688 62.9997C20.7688 49.6573 26.8643 37.3905 37.4911 29.3366C38.4425 28.6088 39.8051 28.8029 40.5308 29.7571C41.2564 30.7193 41.0629 32.0778 40.1115 32.8056C30.5812 40.0266 25.1147 51.032 25.1147 62.9916C25.1147 83.846 42.0304 100.803 62.8163 100.803C64.0177 100.803 64.9852 101.773 64.9852 102.978C64.9852 104.191 64.0177 105.169 62.8163 105.169Z" fill="url(#paint0_linear_6_179)"/>
<path fill-rule="evenodd" clip-rule="evenodd" d="M80.6514 102.291H71.0325H71.0244V105.025H74.4753V117.744H77.2247V105.025H80.6514V102.291ZM91.9389 102.969C91.0037 102.565 90.0119 102.363 88.9476 102.363C87.8753 102.363 86.8674 102.565 85.9322 102.969C84.9969 103.373 84.1825 103.915 83.4891 104.619C82.7957 105.322 82.2475 106.139 81.8443 107.069C81.4412 107.999 81.2396 109.001 81.2396 110.061C81.2396 111.136 81.4492 112.147 81.8443 113.077C82.2394 114.007 82.7957 114.816 83.4891 115.511C84.1825 116.206 84.9969 116.748 85.9322 117.152C86.8674 117.557 87.8753 117.759 88.9476 117.759C90.0119 117.759 91.0037 117.557 91.9389 117.152C92.8662 116.748 93.6805 116.198 94.382 115.511C95.0754 114.824 95.6236 114.007 96.0268 113.077C96.4299 112.147 96.6315 111.136 96.6315 110.061C96.6315 109.001 96.4299 107.999 96.0268 107.069C95.6317 106.131 95.0754 105.314 94.382 104.619C93.6886 103.923 92.8742 103.373 91.9389 102.969ZM93.4951 108.136C93.7531 108.743 93.8821 109.39 93.8821 110.069C93.8821 110.764 93.7611 111.411 93.4951 112.01C93.2371 112.608 92.8823 113.134 92.4388 113.578C91.9873 114.031 91.4632 114.379 90.8585 114.638C90.2538 114.896 89.6088 115.026 88.9315 115.026C88.2301 115.026 87.585 114.896 86.9884 114.638C86.3917 114.379 85.8677 114.023 85.4242 113.578C84.9727 113.134 84.626 112.608 84.368 112.01C84.11 111.411 83.981 110.764 83.981 110.069C83.981 109.382 84.11 108.743 84.368 108.136C84.626 107.53 84.9807 107.004 85.4242 106.559C85.8677 106.115 86.3917 105.759 86.9884 105.492C87.585 105.225 88.2381 105.096 88.9315 105.096C89.6088 105.096 90.2538 105.225 90.8585 105.492C91.4632 105.759 91.9954 106.115 92.4388 106.559C92.8823 107.004 93.2371 107.53 93.4951 108.136ZM111.498 102.34C111.531 103.658 111.555 105.009 111.563 106.391C111.579 107.774 111.587 109.124 111.587 110.443V110.717V111.3C111.587 111.486 111.571 111.672 111.539 111.858V111.833C111.466 112.755 111.257 113.588 110.926 114.316C110.595 115.044 110.144 115.666 109.588 116.168C109.023 116.677 108.37 117.065 107.612 117.34C106.854 117.615 106.016 117.752 105.097 117.752C104.218 117.752 103.403 117.607 102.654 117.316C101.904 117.025 101.243 116.62 100.678 116.095C100.114 115.569 99.6542 114.947 99.3075 114.227C98.9608 113.507 98.7512 112.707 98.6705 111.825C98.6383 111.599 98.6222 111.356 98.6222 111.098V110.321V109.957V108.138C98.6222 107.548 98.6302 106.941 98.6464 106.319V105.397C98.6464 105.041 98.6464 104.669 98.6544 104.289L98.6554 104.242L98.6555 104.241C98.6632 103.878 98.6705 103.53 98.6705 103.197V102.332H101.396V111.688C101.396 112.173 101.501 112.618 101.71 113.022C101.92 113.426 102.202 113.766 102.549 114.049C102.895 114.332 103.291 114.55 103.742 114.712C104.186 114.874 104.637 114.955 105.089 114.955C105.54 114.955 105.992 114.874 106.427 114.712C106.862 114.55 107.257 114.332 107.596 114.049C107.935 113.766 108.209 113.426 108.427 113.022C108.636 112.618 108.741 112.173 108.741 111.688V102.332H111.498V102.34ZM124.183 117.146C125.11 116.741 125.981 116.159 126.795 115.383L124.828 113.507C124.296 113.992 123.723 114.364 123.111 114.631C122.498 114.898 121.885 115.027 121.28 115.027C120.587 115.027 119.934 114.898 119.329 114.639C118.725 114.38 118.192 114.033 117.741 113.58C117.289 113.127 116.935 112.601 116.677 111.995C116.419 111.388 116.29 110.733 116.29 110.038C116.29 109.359 116.419 108.712 116.685 108.105C116.951 107.499 117.314 106.965 117.765 106.512C118.217 106.059 118.749 105.704 119.361 105.445C119.974 105.186 120.619 105.057 121.305 105.057C121.909 105.057 122.514 105.186 123.119 105.453C123.723 105.712 124.288 106.092 124.82 106.577L126.795 104.685C125.989 103.909 125.126 103.326 124.207 102.922C123.288 102.518 122.321 102.316 121.305 102.316C120.232 102.316 119.224 102.518 118.289 102.922C117.354 103.326 116.531 103.876 115.822 104.564C115.112 105.259 114.556 106.076 114.153 107.014C113.75 107.952 113.548 108.962 113.548 110.038C113.548 111.113 113.75 112.124 114.153 113.062C114.556 114 115.104 114.825 115.806 115.52C116.507 116.224 117.33 116.766 118.265 117.162C119.2 117.558 120.208 117.752 121.28 117.752C122.288 117.752 123.264 117.55 124.183 117.146ZM137.123 102.316H139.873V117.744H137.123V111.146H131.197V117.744H128.448V102.316H131.197V108.51H137.123V102.316ZM159.255 102.969C158.32 102.565 157.328 102.363 156.264 102.363C155.191 102.363 154.184 102.565 153.256 102.969C152.329 103.373 151.515 103.923 150.813 104.619C150.12 105.322 149.572 106.139 149.169 107.069C148.765 107.999 148.564 109.001 148.564 110.061C148.564 111.136 148.765 112.147 149.169 113.077C149.572 114.007 150.12 114.824 150.813 115.511C151.507 116.206 152.321 116.748 153.256 117.152C154.184 117.557 155.191 117.759 156.264 117.759C157.328 117.759 158.32 117.557 159.255 117.152C160.182 116.748 160.997 116.198 161.698 115.511C162.392 114.824 162.94 114.007 163.343 113.077C163.746 112.147 163.948 111.136 163.948 110.061C163.948 109.001 163.746 107.999 163.343 107.069C162.94 106.131 162.392 105.314 161.698 104.619C161.005 103.923 160.19 103.373 159.255 102.969ZM160.811 108.136C161.069 108.743 161.198 109.39 161.198 110.069C161.198 110.764 161.069 111.411 160.811 112.01C160.553 112.608 160.198 113.134 159.755 113.578C159.303 114.031 158.779 114.379 158.175 114.638C157.57 114.896 156.925 115.026 156.248 115.026C155.546 115.026 154.901 114.896 154.305 114.638C153.708 114.379 153.184 114.023 152.74 113.578C152.297 113.134 151.942 112.608 151.684 112.01C151.426 111.411 151.297 110.764 151.297 110.069C151.297 109.382 151.426 108.743 151.684 108.136C151.942 107.53 152.297 107.004 152.74 106.559C153.184 106.115 153.708 105.759 154.305 105.492C154.901 105.225 155.554 105.096 156.248 105.096C156.925 105.096 157.57 105.225 158.175 105.492C158.779 105.759 159.312 106.115 159.755 106.559C160.198 107.004 160.553 107.53 160.811 108.136ZM170.923 102.316C171.665 102.316 172.35 102.429 172.979 102.655C173.608 102.882 174.148 103.205 174.608 103.626C175.059 104.046 175.414 104.555 175.664 105.162C175.914 105.768 176.043 106.456 176.043 107.232C176.043 108.882 175.6 110.135 174.713 110.976C173.826 111.817 172.568 112.237 170.931 112.237H168.891V117.744H166.142V102.316H170.923ZM168.891 109.44H168.891C168.964 109.44 169.045 109.44 169.117 109.448C169.19 109.456 169.27 109.456 169.343 109.456H169.343C169.601 109.472 169.859 109.48 170.125 109.488C170.391 109.496 170.657 109.496 170.923 109.496H170.923C171.641 109.496 172.221 109.326 172.649 108.979C173.076 108.631 173.294 108.081 173.294 107.337C173.294 106.617 173.076 106.051 172.649 105.647C172.221 105.243 171.641 105.041 170.923 105.041H168.891V109.44ZM181.975 105.356C182.289 105.097 182.652 104.96 183.079 104.96C183.515 104.96 183.934 105.065 184.345 105.316C184.757 105.566 185.135 105.89 185.482 106.286L186.232 105.445C186.252 105.422 186.272 105.398 186.292 105.374C186.418 105.225 186.567 105.049 186.74 104.855C186.95 104.628 187.111 104.434 187.232 104.265C186.974 103.965 186.675 103.69 186.345 103.448C186.014 103.205 185.668 103.003 185.305 102.833C184.942 102.672 184.571 102.542 184.2 102.461C183.829 102.372 183.475 102.332 183.144 102.332C182.515 102.332 181.91 102.413 181.354 102.591C180.79 102.769 180.306 103.027 179.887 103.375C179.475 103.723 179.145 104.159 178.903 104.685C178.661 105.211 178.54 105.825 178.54 106.521C178.54 107.095 178.645 107.596 178.855 108.033C179.064 108.469 179.346 108.858 179.693 109.197C180.04 109.545 180.427 109.844 180.854 110.111C181.273 110.378 181.709 110.628 182.144 110.871C182.475 111.057 182.789 111.235 183.096 111.421C183.402 111.607 183.668 111.793 183.894 111.979C184.128 112.173 184.305 112.375 184.442 112.593C184.579 112.82 184.644 113.054 184.644 113.313C184.644 113.887 184.458 114.316 184.087 114.599C183.716 114.882 183.249 115.019 182.692 115.019C182.467 115.019 182.225 114.995 181.975 114.938C181.725 114.882 181.483 114.793 181.249 114.664C181.015 114.542 180.798 114.372 180.604 114.178C180.411 113.984 180.241 113.75 180.104 113.475C180.051 113.516 179.992 113.559 179.93 113.606C179.833 113.678 179.726 113.758 179.612 113.847C179.502 113.934 179.385 114.021 179.266 114.11C179.186 114.169 179.105 114.23 179.024 114.292L179.022 114.293C178.821 114.438 178.62 114.583 178.435 114.72C178.242 114.858 178.081 114.971 177.943 115.06C178.476 115.974 179.161 116.645 180.008 117.065C180.854 117.494 181.717 117.704 182.596 117.704C183.321 117.704 183.991 117.599 184.595 117.397C185.2 117.186 185.724 116.895 186.159 116.507C186.595 116.119 186.942 115.634 187.191 115.06C187.441 114.478 187.562 113.814 187.562 113.054C187.562 112.464 187.449 111.947 187.232 111.51C187.014 111.073 186.732 110.677 186.385 110.329C186.039 109.982 185.643 109.674 185.208 109.407C184.773 109.141 184.329 108.89 183.894 108.647C183.571 108.478 183.273 108.316 182.983 108.146C182.701 107.976 182.442 107.798 182.225 107.62C182.007 107.443 181.83 107.257 181.701 107.054C181.572 106.852 181.507 106.634 181.507 106.391C181.507 105.963 181.66 105.615 181.975 105.356Z" fill="url(#paint1_linear_6_179)"/>
<path fill-rule="evenodd" clip-rule="evenodd" d="M86.2557 42.8075C83.6997 40.2522 80.6843 38.2145 77.2737 36.7428C73.8551 35.2711 70.1623 34.519 66.2841 34.519C62.3494 34.519 58.6244 35.263 55.2058 36.7428C51.8033 38.2145 48.7797 40.2522 46.2238 42.8075C43.6679 45.3627 41.6361 48.387 40.1687 51.7994C38.7012 55.2199 37.9514 58.9234 37.9514 62.8128C37.9514 66.7589 38.6932 70.4867 40.1687 73.9072C41.6361 77.3196 43.676 80.3358 46.2319 82.8668C48.7878 85.3978 51.8033 87.4193 55.2139 88.891C58.6244 90.3627 62.3494 91.1147 66.2922 91.1147C70.1784 91.1147 73.8712 90.3708 77.2898 88.891C80.7004 87.4193 83.7159 85.3978 86.2718 82.8668C88.8277 80.3438 90.8676 77.3277 92.335 73.9072C93.8024 70.4867 94.5523 66.7508 94.5523 62.8128C94.5523 58.9314 93.8024 55.2199 92.335 51.7994C90.8515 48.387 88.8116 45.3627 86.2557 42.8075ZM66.2438 45.2333C68.6465 45.2333 70.9444 45.7104 73.073 46.6403C75.2096 47.5783 77.0963 48.8479 78.6686 50.4247C80.2408 52.0015 81.4986 53.8856 82.4097 56.0204C83.3127 58.1552 83.7723 60.4597 83.7723 62.8614C83.7723 65.3196 83.3127 67.6322 82.4097 69.7428C81.4986 71.8533 80.2408 73.7212 78.6686 75.298C77.0963 76.8668 75.2177 78.1282 73.081 79.0419C70.9525 79.9476 68.6465 80.4085 66.2438 80.4085C63.7846 80.4085 61.4706 79.9476 59.3662 79.0419C57.2537 78.1363 55.3912 76.8748 53.8109 75.298C52.2387 73.7212 50.9809 71.8533 50.0698 69.7428C49.1668 67.6403 48.7072 65.3277 48.7072 62.8614C48.7072 60.4597 49.1668 58.1552 50.0779 56.0204C50.9809 53.8856 52.2387 52.0015 53.819 50.4247C55.3912 48.8479 57.2618 47.5783 59.3743 46.6403C61.4787 45.7023 63.7846 45.2333 66.2438 45.2333ZM132.309 35.3441V64.6649L101.461 34.8024V91.1069H112.056V60.6541L142.912 91.6811V35.3441H132.309ZM168.487 62.8539L151.056 82.5925V90.6464H193.498V72.1127H183.984V80.6679H165.754L181.186 62.5871L165.383 45.4119H183.291V52.8593H192.797V35.7973H150.983V43.6572L168.487 62.8539Z" fill="url(#paint2_linear_6_179)"/>
<defs>
<linearGradient id="paint0_linear_6_179" x1="-5.625" y1="3.92385e-06" x2="86.4619" y2="32.1861" gradientUnits="userSpaceOnUse">
<stop stop-color="#7945A2" stop-opacity="0.947"/>
<stop offset="1" stop-color="#583574"/>
</linearGradient>
<linearGradient id="paint1_linear_6_179" x1="98.9997" y1="96.7501" x2="128.249" y2="163.124" gradientUnits="userSpaceOnUse">
<stop stop-color="#7945A2"/>
<stop offset="1" stop-color="#532F6F" stop-opacity="0.947"/>
</linearGradient>
<linearGradient id="paint2_linear_6_179" x1="38.2502" y1="33.75" x2="220.499" y2="62.9998" gradientUnits="userSpaceOnUse">
<stop stop-color="white"/>
<stop stop-color="#7945A2"/>
<stop offset="1" stop-color="#532F6F" stop-opacity="0.947"/>
</linearGradient>
</defs>
</svg>
